STARTFONT 2.1
COMMENT
COMMENT Converted from OpenType font "ipam.ttf" by "otf2bdf 3.0".
COMMENT
FONT -FreeType-IPAMincho-Medium-R-Normal--12-120-72-72-P-108-ISO10646-1
SIZE 12 72 72
FONTBOUNDINGBOX 12 13 0 -2
STARTPROPERTIES 19
FOUNDRY "FreeType"
FAMILY_NAME "IPAMincho"
WEIGHT_NAME "Medium"
SLANT "R"
SETWIDTH_NAME "Normal"
ADD_STYLE_NAME ""
PIXEL_SIZE 12
POINT_SIZE 120
RESOLUTION_X 72
RESOLUTION_Y 72
SPACING "P"
AVERAGE_WIDTH 108
CHARSET_REGISTRY "ISO10646"
CHARSET_ENCODING "1"
FONT_ASCENT 10
FONT_DESCENT 1
COPYRIGHT "Copyright(c) Information-technology Promotion Agency, Japan (IPA), 2003-2011. You must accept "http://ipafont.ipa.go.jp/ipa_font_license_v1.html" to use this product."
_OTF_FONTFILE "ipam.ttf"
_OTF_PSNAME "IPAMincho"
ENDPROPERTIES
CHARS 11158
STARTCHAR 0020
ENCODING 32
SWIDTH 500 0
DWIDTH 6 0
BBX 0 0 0 0
BITMAP
ENDCHAR
STARTCHAR 0021
ENCODING 33
SWIDTH 500 0
DWIDTH 6 0
BBX 2 10 2 0
BITMAP
C0
C0
C0
80
80
80
80
80
00
C0
ENDCHAR
STARTCHAR 0022
ENCODING 34
SWIDTH 500 0
DWIDTH 6 0
BBX 4 3 1 7
BITMAP
D0
F0
A0
ENDCHAR
STARTCHAR 0023
ENCODING 35
SWIDTH 500 0
DWIDTH 6 0
BBX 4 10 1 0
BITMAP
70
60
60
F0
A0
A0
A0
F0
A0
A0
ENDCHAR
STARTCHAR 0024
ENCODING 36
SWIDTH 500 0
DWIDTH 6 0
BBX 4 11 1 -1
BITMAP
40
E0
D0
D0
C0
20
50
D0
D0
60
40
ENDCHAR
STARTCHAR 0025
ENCODING 37
SWIDTH 500 0
DWIDTH 6 0
BBX 6 11 0 -1
BITMAP
6C
A8
A8
B0
70
20
38
58
64
58
98
ENDCHAR
STARTCHAR 0026
ENCODING 38
SWIDTH 500 0
DWIDTH 6 0
BBX 6 9 0 0
BITMAP
30
50
50
20
6C
A8
98
54
78
ENDCHAR
STARTCHAR 0027
ENCODING 39
SWIDTH 500 0
DWIDTH 6 0
BBX 2 3 1 7
BITMAP
C0
C0
80
ENDCHAR
STARTCHAR 0028
ENCODING 40
SWIDTH 500 0
DWIDTH 6 0
BBX 3 11 2 -1
BITMAP
60
40
80
80
80
80
80
80
80
40
60
ENDCHAR
STARTCHAR 0029
ENCODING 41
SWIDTH 500 0
DWIDTH 6 0
BBX 3 11 1 -1
BITMAP
80
40
20
20
20
20
20
20
20
40
80
ENDCHAR
STARTCHAR 002A
ENCODING 42
SWIDTH 500 0
DWIDTH 6 0
BBX 4 5 1 2
BITMAP
40
D0
60
D0
40
ENDCHAR
STARTCHAR 002B
ENCODING 43
SWIDTH 500 0
DWIDTH 6 0
BBX 4 7 1 1
BITMAP
40
40
40
F0
40
40
40
ENDCHAR
STARTCHAR 002C
ENCODING 44
SWIDTH 500 0
DWIDTH 6 0
BBX 2 3 1 -1
BITMAP
C0
40
80
ENDCHAR
STARTCHAR 002D
ENCODING 45
SWIDTH 500 0
DWIDTH 6 0
BBX 4 1 1 4
BITMAP
F0
ENDCHAR
STARTCHAR 002E
ENCODING 46
SWIDTH 500 0
DWIDTH 6 0
BBX 2 2 1 0
BITMAP
C0
C0
ENDCHAR
STARTCHAR 002F
ENCODING 47
SWIDTH 500 0
DWIDTH 6 0
BBX 4 11 1 -1
BITMAP
10
10
20
20
20
40
40
80
80
80
80
ENDCHAR
STARTCHAR 0030
ENCODING 48
SWIDTH 500 0
DWIDTH 6 0
BBX 4 9 1 0
BITMAP
60
90
90
90
90
90
90
90
60
ENDCHAR
STARTCHAR 0031
ENCODING 49
SWIDTH 500 0
DWIDTH 6 0
BBX 2 9 2 1
BITMAP
80
80
80
80
80
80
80
80
C0
ENDCHAR
STARTCHAR 0032
ENCODING 50
SWIDTH 500 0
DWIDTH 6 0
BBX 4 8 1 1
BITMAP
F0
90
90
20
20
40
90
F0
ENDCHAR
STARTCHAR 0033
ENCODING 51
SWIDTH 500 0
DWIDTH 6 0
BBX 4 9 1 0
BITMAP
E0
90
10
10
60
10
10
90
E0
ENDCHAR
STARTCHAR 0034
ENCODING 52
SWIDTH 500 0
DWIDTH 6 0
BBX 6 8 0 1
BITMAP
10
30
30
50
50
90
FC
18
ENDCHAR
STARTCHAR 0035
ENCODING 53
SWIDTH 500 0
DWIDTH 6 0
BBX 4 9 1 0
BITMAP
F0
80
80
E0
90
10
90
90
60
ENDCHAR
STARTCHAR 0036
ENCODING 54
SWIDTH 500 0
DWIDTH 6 0
BBX 4 9 1 0
BITMAP
70
90
80
E0
90
90
90
90
60
ENDCHAR
STARTCHAR 0037
ENCODING 55
SWIDTH 500 0
DWIDTH 6 0
BBX 4 9 1 0
BITMAP
F0
90
A0
20
20
20
40
40
40
ENDCHAR
STARTCHAR 0038
ENCODING 56
SWIDTH 500 0
DWIDTH 6 0
BBX 4 9 1 0
BITMAP
60
90
90
A0
E0
90
90
90
60
ENDCHAR
STARTCHAR 0039
ENCODING 57
SWIDTH 500 0
DWIDTH 6 0
BBX 4 9 1 0
BITMAP
60
90
90
90
F0
10
10
90
E0
ENDCHAR
STARTCHAR 003A
ENCODING 58
SWIDTH 500 0
DWIDTH 6 0
BBX 2 6 2 0
BITMAP
C0
C0
00
00
C0
C0
ENDCHAR
STARTCHAR 003B
ENCODING 59
SWIDTH 500 0
DWIDTH 6 0
BBX 2 7 2 -1
BITMAP
C0
C0
00
00
C0
40
80
ENDCHAR
STARTCHAR 003C
ENCODING 60
SWIDTH 500 0
DWIDTH 6 0
BBX 4 7 1 1
BITMAP
10
20
40
80
40
20
10
ENDCHAR
STARTCHAR 003D
ENCODING 61
SWIDTH 500 0
DWIDTH 6 0
BBX 4 3 1 3
BITMAP
F0
00
F0
ENDCHAR
STARTCHAR 003E
ENCODING 62
SWIDTH 500 0
DWIDTH 6 0
BBX 4 7 1 1
BITMAP
80
40
20
10
20
40
80
ENDCHAR
STARTCHAR 003F
ENCODING 63
SWIDTH 500 0
DWIDTH 6 0
BBX 4 9 1 0
BITMAP
F0
90
90
10
20
40
40
00
60
ENDCHAR
STARTCHAR 0040
ENCODING 64
SWIDTH 500 0
DWIDTH 6 0
BBX 6 9 0 0
BITMAP
38
48
B4
B4
D4
D4
B8
44
38
ENDCHAR
STARTCHAR 0041
ENCODING 65
SWIDTH 500 0
DWIDTH 6 0
BBX 6 8 0 1
BITMAP
20
30
30
50
50
78
48
CC
ENDCHAR
STARTCHAR 0042
ENCODING 66
SWIDTH 500 0
DWIDTH 6 0
BBX 5 8 0 1
BITMAP
F0
48
48
48
70
48
48
F8
ENDCHAR
STARTCHAR 0043
ENCODING 67
SWIDTH 500 0
DWIDTH 6 0
BBX 4 9 1 0
BITMAP
70
90
80
80
80
80
90
90
60
ENDCHAR
STARTCHAR 0044
ENCODING 68
SWIDTH 500 0
DWIDTH 6 0
BBX 5 8 0 1
BITMAP
F0
48
48
48
48
48
48
F0
ENDCHAR
STARTCHAR 0045
ENCODING 69
SWIDTH 500 0
DWIDTH 6 0
BBX 5 8 0 1
BITMAP
F8
48
48
50
70
50
48
F8
ENDCHAR
STARTCHAR 0046
ENCODING 70
SWIDTH 500 0
DWIDTH 6 0
BBX 5 8 0 1
BITMAP
F8
48
48
50
70
50
40
E0
ENDCHAR
STARTCHAR 0047
ENCODING 71
SWIDTH 500 0
DWIDTH 6 0
BBX 5 9 1 0
BITMAP
70
90
80
80
98
90
90
90
60
ENDCHAR
STARTCHAR 0048
ENCODING 72
SWIDTH 500 0
DWIDTH 6 0
BBX 6 8 0 1
BITMAP
CC
48
48
48
78
48
48
CC
ENDCHAR
STARTCHAR 0049
ENCODING 73
SWIDTH 500 0
DWIDTH 6 0
BBX 2 8 2 1
BITMAP
C0
80
80
80
80
80
80
C0
ENDCHAR
STARTCHAR 004A
ENCODING 74
SWIDTH 500 0
DWIDTH 6 0
BBX 4 9 1 0
BITMAP
30
10
10
10
10
10
90
A0
E0
ENDCHAR
STARTCHAR 004B
ENCODING 75
SWIDTH 500 0
DWIDTH 6 0
BBX 6 8 0 1
BITMAP
D8
50
60
60
50
50
48
CC
ENDCHAR
STARTCHAR 004C
ENCODING 76
SWIDTH 500 0
DWIDTH 6 0
BBX 4 8 1 1
BITMAP
C0
80
80
80
80
90
90
F0
ENDCHAR
STARTCHAR 004D
ENCODING 77
SWIDTH 500 0
DWIDTH 6 0
BBX 6 8 0 1
BITMAP
CC
58
D8
D8
B8
A8
A8
EC
ENDCHAR
STARTCHAR 004E
ENCODING 78
SWIDTH 500 0
DWIDTH 6 0
BBX 6 8 0 1
BITMAP
CC
C8
A8
A8
98
98
88
C8
ENDCHAR
STARTCHAR 004F
ENCODING 79
SWIDTH 500 0
DWIDTH 6 0
BBX 4 9 1 0
BITMAP
60
90
90
90
90
90
90
90
60
ENDCHAR
STARTCHAR 0050
ENCODING 80
SWIDTH 500 0
DWIDTH 6 0
BBX 6 8 0 1
BITMAP
F8
48
4C
48
78
40
40
E0
ENDCHAR
STARTCHAR 0051
ENCODING 81
SWIDTH 500 0
DWIDTH 6 0
BBX 5 9 1 0
BITMAP
60
90
90
90
90
90
F0
B0
78
ENDCHAR
STARTCHAR 0052
ENCODING 82
SWIDTH 500 0
DWIDTH 6 0
BBX 6 8 0 1
BITMAP
F0
48
48
48
70
50
50
EC
ENDCHAR
STARTCHAR 0053
ENCODING 83
SWIDTH 500 0
DWIDTH 6 0
BBX 4 9 1 0
BITMAP
F0
90
80
40
20
10
90
90
60
ENDCHAR
STARTCHAR 0054
ENCODING 84
SWIDTH 500 0
DWIDTH 6 0
BBX 4 8 1 1
BITMAP
F0
D0
D0
40
40
40
40
60
ENDCHAR
STARTCHAR 0055
ENCODING 85
SWIDTH 500 0
DWIDTH 6 0
BBX 6 9 0 0
BITMAP
CC
48
48
48
48
48
48
48
30
ENDCHAR
STARTCHAR 0056
ENCODING 86
SWIDTH 500 0
DWIDTH 6 0
BBX 6 9 0 0
BITMAP
CC
48
48
50
30
30
30
20
20
ENDCHAR
STARTCHAR 0057
ENCODING 87
SWIDTH 500 0
DWIDTH 6 0
BBX 6 9 0 0
BITMAP
FC
98
98
78
78
68
48
48
50
ENDCHAR
STARTCHAR 0058
ENCODING 88
SWIDTH 500 0
DWIDTH 6 0
BBX 6 8 0 1
BITMAP
EC
50
30
20
30
50
48
CC
ENDCHAR
STARTCHAR 0059
ENCODING 89
SWIDTH 500 0
DWIDTH 6 0
BBX 6 8 0 1
BITMAP
CC
48
50
30
20
20
20
30
ENDCHAR
STARTCHAR 005A
ENCODING 90
SWIDTH 500 0
DWIDTH 6 0
BBX 4 8 1 1
BITMAP
F0
90
20
20
40
90
90
F0
ENDCHAR
STARTCHAR 005B
ENCODING 91
SWIDTH 500 0
DWIDTH 6 0
BBX 3 11 2 -1
BITMAP
E0
80
80
80
80
80
80
80
80
80
E0
ENDCHAR
STARTCHAR 005C
ENCODING 92
SWIDTH 500 0
DWIDTH 6 0
BBX 6 8 0 1
BITMAP
CC
48
50
78
30
78
20
30
ENDCHAR
STARTCHAR 005D
ENCODING 93
SWIDTH 500 0
DWIDTH 6 0
BBX 3 11 1 -1
BITMAP
E0
20
20
20
20
20
20
20
20
20
E0
ENDCHAR
STARTCHAR 005E
ENCODING 94
SWIDTH 500 0
DWIDTH 6 0
BBX 4 1 1 8
BITMAP
F0
ENDCHAR
STARTCHAR 005F
ENCODING 95
SWIDTH 500 0
DWIDTH 6 0
BBX 0 0 0 -1
BITMAP
ENDCHAR
STARTCHAR 0060
ENCODING 96
SWIDTH 500 0
DWIDTH 6 0
BBX 4 1 1 8
BITMAP
F0
ENDCHAR
STARTCHAR 0061
ENCODING 97
SWIDTH 500 0
DWIDTH 6 0
BBX 5 6 1 0
BITMAP
E0
90
70
90
90
F8
ENDCHAR
STARTCHAR 0062
ENCODING 98
SWIDTH 500 0
DWIDTH 6 0
BBX 4 9 1 0
BITMAP
80
80
80
E0
90
90
90
90
E0
ENDCHAR
STARTCHAR 0063
ENCODING 99
SWIDTH 500 0
DWIDTH 6 0
BBX 4 6 1 0
BITMAP
70
90
80
80
90
60
ENDCHAR
STARTCHAR 0064
ENCODING 100
SWIDTH 500 0
DWIDTH 6 0
BBX 5 9 1 0
BITMAP
30
10
10
F0
90
90
90
90
68
ENDCHAR
STARTCHAR 0065
ENCODING 101
SWIDTH 500 0
DWIDTH 6 0
BBX 4 6 1 0
BITMAP
60
90
F0
80
90
60
ENDCHAR
STARTCHAR 0066
ENCODING 102
SWIDTH 500 0
DWIDTH 6 0
BBX 4 8 1 1
BITMAP
30
50
40
E0
40
40
40
E0
ENDCHAR
STARTCHAR 0067
ENCODING 103
SWIDTH 500 0
DWIDTH 6 0
BBX 5 7 1 -1
BITMAP
F8
90
E0
80
F0
90
F0
ENDCHAR
STARTCHAR 0068
ENCODING 104
SWIDTH 500 0
DWIDTH 6 0
BBX 6 8 0 1
BITMAP
C0
40
40
78
48
48
48
EC
ENDCHAR
STARTCHAR 0069
ENCODING 105
SWIDTH 500 0
DWIDTH 6 0
BBX 2 8 2 1
BITMAP
C0
00
80
80
80
80
80
C0
ENDCHAR
STARTCHAR 006A
ENCODING 106
SWIDTH 500 0
DWIDTH 6 0
BBX 3 10 1 -1
BITMAP
20
00
20
20
20
20
20
20
20
E0
ENDCHAR
STARTCHAR 006B
ENCODING 107
SWIDTH 500 0
DWIDTH 6 0
BBX 6 8 0 1
BITMAP
C0
40
40
58
60
50
50
FC
ENDCHAR
STARTCHAR 006C
ENCODING 108
SWIDTH 500 0
DWIDTH 6 0
BBX 2 9 2 1
BITMAP
80
80
80
80
80
80
80
80
C0
ENDCHAR
STARTCHAR 006D
ENCODING 109
SWIDTH 500 0
DWIDTH 6 0
BBX 6 5 0 1
BITMAP
F8
A8
A8
A8
FC
ENDCHAR
STARTCHAR 006E
ENCODING 110
SWIDTH 500 0
DWIDTH 6 0
BBX 6 5 0 1
BITMAP
F8
48
48
48
EC
ENDCHAR
STARTCHAR 006F
ENCODING 111
SWIDTH 500 0
DWIDTH 6 0
BBX 4 6 1 0
BITMAP
60
90
90
90
90
60
ENDCHAR
STARTCHAR 0070
ENCODING 112
SWIDTH 500 0
DWIDTH 6 0
BBX 4 7 1 -1
BITMAP
F0
90
90
90
F0
80
C0
ENDCHAR
STARTCHAR 0071
ENCODING 113
SWIDTH 500 0
DWIDTH 6 0
BBX 5 7 1 -1
BITMAP
F0
90
90
90
70
10
38
ENDCHAR
STARTCHAR 0072
ENCODING 114
SWIDTH 500 0
DWIDTH 6 0
BBX 4 5 1 1
BITMAP
F0
40
40
40
C0
ENDCHAR
STARTCHAR 0073
ENCODING 115
SWIDTH 500 0
DWIDTH 6 0
BBX 4 6 1 0
BITMAP
70
90
80
E0
90
70
ENDCHAR
STARTCHAR 0074
ENCODING 116
SWIDTH 500 0
DWIDTH 6 0
BBX 4 8 1 0
BITMAP
40
40
F0
40
40
40
40
70
ENDCHAR
STARTCHAR 0075
ENCODING 117
SWIDTH 500 0
DWIDTH 6 0
BBX 6 6 0 0
BITMAP
D8
48
48
48
48
34
ENDCHAR
STARTCHAR 0076
ENCODING 118
SWIDTH 500 0
DWIDTH 6 0
BBX 6 6 0 0
BITMAP
EC
48
50
30
30
20
ENDCHAR
STARTCHAR 0077
ENCODING 119
SWIDTH 500 0
DWIDTH 6 0
BBX 6 6 0 0
BITMAP
FC
98
58
78
50
50
ENDCHAR
STARTCHAR 0078
ENCODING 120
SWIDTH 500 0
DWIDTH 6 0
BBX 6 5 0 1
BITMAP
78
30
10
70
CC
ENDCHAR
STARTCHAR 0079
ENCODING 121
SWIDTH 500 0
DWIDTH 6 0
BBX 6 7 0 -1
BITMAP
EC
48
30
30
10
20
60
ENDCHAR
STARTCHAR 007A
ENCODING 122
SWIDTH 500 0
DWIDTH 6 0
BBX 4 5 1 1
BITMAP
F0
A0
40
90
F0
ENDCHAR
STARTCHAR 007B
ENCODING 123
SWIDTH 500 0
DWIDTH 6 0
BBX 3 11 2 -1
BITMAP
60
40
40
40
80
80
80
40
40
40
20
ENDCHAR
STARTCHAR 007C
ENCODING 124
SWIDTH 500 0
DWIDTH 6 0
BBX 1 12 2 -1
BITMAP
80
80
80
80
80
80
80
80
80
80
80
80
ENDCHAR
STARTCHAR 007D
ENCODING 125
SWIDTH 500 0
DWIDTH 6 0
BBX 3 11 1 -1
BITMAP
80
40
40
40
40
20
40
40
40
40
80
ENDCHAR
STARTCHAR 007E
ENCODING 126
SWIDTH 500 0
DWIDTH 6 0
BBX 4 1 1 8
BITMAP
F0
ENDCHAR
STARTCHAR 00A0
ENCODING 160
SWIDTH 500 0
DWIDTH 6 0
BBX 0 0 0 0
BITMAP
ENDCHAR
STARTCHAR 00A1
ENCODING 161
SWIDTH 500 0
DWIDTH 6 0
BBX 2 9 2 0
BITMAP
C0
00
80
80
80
80
80
C0
C0
ENDCHAR
STARTCHAR 00A2
ENCODING 162
SWIDTH 1000 0
DWIDTH 12 0
BBX 6 9 3 0
BITMAP
18
38
58
A0
A0
A0
6C
38
40
ENDCHAR
STARTCHAR 00A3
ENCODING 163
SWIDTH 1000 0
DWIDTH 12 0
BBX 7 9 3 0
BITMAP
38
44
40
40
F8
20
20
E2
FC
ENDCHAR
STARTCHAR 00A4
ENCODING 164
SWIDTH 500 0
DWIDTH 6 0
BBX 4 4 1 2
BITMAP
F0
90
60
90
ENDCHAR
STARTCHAR 00A5
ENCODING 165
SWIDTH 1000 0
DWIDTH 12 0
BBX 8 8 2 1
BITMAP
E7
44
24
FF
18
FF
10
38
ENDCHAR
STARTCHAR 00A6
ENCODING 166
SWIDTH 500 0
DWIDTH 6 0
BBX 1 11 2 -1
BITMAP
80
80
80
80
80
00
80
80
80
80
80
ENDCHAR
STARTCHAR 00A7
ENCODING 167
SWIDTH 1000 0
DWIDTH 12 0
BBX 6 11 3 -1
BITMAP
78
48
80
40
B8
88
6C
18
C8
4C
78
ENDCHAR
STARTCHAR 00A8
ENCODING 168
SWIDTH 1000 0
DWIDTH 12 0
BBX 4 1 4 8
BITMAP
90
ENDCHAR
STARTCHAR 00A9
ENCODING 169
SWIDTH 500 0
DWIDTH 6 0
BBX 6 5 0 2
BITMAP
78
D8
C4
B4
78
ENDCHAR
STARTCHAR 00AA
ENCODING 170
SWIDTH 500 0
DWIDTH 6 0
BBX 3 5 1 4
BITMAP
C0
40
C0
E0
E0
ENDCHAR
STARTCHAR 00AB
ENCODING 171
SWIDTH 500 0
DWIDTH 6 0
BBX 3 5 2 1
BITMAP
60
C0
80
C0
60
ENDCHAR
STARTCHAR 00AC
ENCODING 172
SWIDTH 1000 0
DWIDTH 12 0
BBX 10 5 1 2
BITMAP
FFC0
0040
0040
0040
0040
ENDCHAR
STARTCHAR 00AD
ENCODING 173
SWIDTH 500 0
DWIDTH 6 0
BBX 4 1 1 4
BITMAP
F0
ENDCHAR
STARTCHAR 00AE
ENCODING 174
SWIDTH 500 0
DWIDTH 6 0
BBX 6 5 0 2
BITMAP
78
D8
B4
D8
78
ENDCHAR
STARTCHAR 00AF
ENCODING 175
SWIDTH 500 0
DWIDTH 6 0
BBX 4 1 1 8
BITMAP
F0
ENDCHAR
STARTCHAR 00B0
ENCODING 176
SWIDTH 1000 0
DWIDTH 12 0
BBX 2 2 1 8
BITMAP
C0
C0
ENDCHAR
STARTCHAR 00B1
ENCODING 177
SWIDTH 1000 0
DWIDTH 12 0
BBX 8 8 2 1
BITMAP
10
10
10
FF
10
10
10
FF
ENDCHAR
STARTCHAR 00B2
ENCODING 178
SWIDTH 500 0
DWIDTH 6 0
BBX 2 5 1 5
BITMAP
C0
C0
40
C0
C0
ENDCHAR
STARTCHAR 00B3
ENCODING 179
SWIDTH 500 0
DWIDTH 6 0
BBX 2 4 1 6
BITMAP
C0
40
40
C0
ENDCHAR
STARTCHAR 00B4
ENCODING 180
SWIDTH 1000 0
DWIDTH 12 0
BBX 3 1 5 8
BITMAP
E0
ENDCHAR
STARTCHAR 00B6
ENCODING 182
SWIDTH 1000 0
DWIDTH 12 0
BBX 5 11 3 -1
BITMAP
78
E8
E8
E8
28
28
28
28
28
28
28
ENDCHAR
STARTCHAR 00B7
ENCODING 183
SWIDTH 500 0
DWIDTH 6 0
BBX 2 2 2 4
BITMAP
C0
C0
ENDCHAR
STARTCHAR 00B8
ENCODING 184
SWIDTH 500 0
DWIDTH 6 0
BBX 2 3 2 -1
BITMAP
80
C0
C0
ENDCHAR
STARTCHAR 00B9
ENCODING 185
SWIDTH 500 0
DWIDTH 6 0
BBX 2 4 1 6
BITMAP
80
80
80
C0
ENDCHAR
STARTCHAR 00BA
ENCODING 186
SWIDTH 500 0
DWIDTH 6 0
BBX 3 5 1 4
BITMAP
C0
A0
C0
00
E0
ENDCHAR
STARTCHAR 00BB
ENCODING 187
SWIDTH 500 0
DWIDTH 6 0
BBX 3 5 1 1
BITMAP
C0
A0
60
A0
C0
ENDCHAR
STARTCHAR 00BC
ENCODING 188
SWIDTH 500 0
DWIDTH 6 0
BBX 6 11 0 -1
BITMAP
C8
48
50
50
50
A8
38
68
7C
88
88
ENDCHAR
STARTCHAR 00BD
ENCODING 189
SWIDTH 500 0
DWIDTH 6 0
BBX 6 11 0 -1
BITMAP
C8
48
50
50
50
98
38
48
48
94
9C
ENDCHAR
STARTCHAR 00BE
ENCODING 190
SWIDTH 500 0
DWIDTH 6 0
BBX 6 11 0 -1
BITMAP
6C
28
50
30
F0
28
38
68
3C
48
88
ENDCHAR
STARTCHAR 00BF
ENCODING 191
SWIDTH 500 0
DWIDTH 6 0
BBX 4 10 1 -1
BITMAP
60
00
40
40
40
80
80
90
90
F0
ENDCHAR
STARTCHAR 00C0
ENCODING 192
SWIDTH 500 0
DWIDTH 6 0
BBX 6 9 0 1
BITMAP
60
30
30
30
50
50
78
48
CC
ENDCHAR
STARTCHAR 00C1
ENCODING 193
SWIDTH 500 0
DWIDTH 6 0
BBX 6 9 0 1
BITMAP
18
20
30
30
50
50
78
48
CC
ENDCHAR
STARTCHAR 00C2
ENCODING 194
SWIDTH 500 0
DWIDTH 6 0
BBX 6 9 0 1
BITMAP
30
20
30
30
50
50
78
48
CC
ENDCHAR
STARTCHAR 00C3
ENCODING 195
SWIDTH 500 0
DWIDTH 6 0
BBX 6 9 0 1
BITMAP
78
20
30
30
50
50
78
48
CC
ENDCHAR
STARTCHAR 00C4
ENCODING 196
SWIDTH 500 0
DWIDTH 6 0
BBX 6 9 0 1
BITMAP
48
20
30
30
50
50
78
48
CC
ENDCHAR
STARTCHAR 00C5
ENCODING 197
SWIDTH 500 0
DWIDTH 6 0
BBX 6 10 0 1
BITMAP
30
30
20
30
30
50
50
78
48
CC
ENDCHAR
STARTCHAR 00C6
ENCODING 198
SWIDTH 500 0
DWIDTH 6 0
BBX 6 8 0 1
BITMAP
18
38
30
58
58
78
50
FC
ENDCHAR
STARTCHAR 00C7
ENCODING 199
SWIDTH 500 0
DWIDTH 6 0
BBX 4 10 1 -1
BITMAP
70
90
80
80
80
80
90
90
60
60
ENDCHAR
STARTCHAR 00C8
ENCODING 200
SWIDTH 500 0
DWIDTH 6 0
BBX 5 9 0 1
BITMAP
60
F8
48
48
50
70
50
48
F8
ENDCHAR
STARTCHAR 00C9
ENCODING 201
SWIDTH 500 0
DWIDTH 6 0
BBX 5 9 0 1
BITMAP
18
F8
48
48
50
70
50
48
F8
ENDCHAR
STARTCHAR 00CA
ENCODING 202
SWIDTH 500 0
DWIDTH 6 0
BBX 5 9 0 1
BITMAP
30
F8
48
48
50
70
50
48
F8
ENDCHAR
STARTCHAR 00CB
ENCODING 203
SWIDTH 500 0
DWIDTH 6 0
BBX 5 9 0 1
BITMAP
48
F8
48
48
50
70
50
48
F8
ENDCHAR
STARTCHAR 00CC
ENCODING 204
SWIDTH 500 0
DWIDTH 6 0
BBX 3 9 1 1
BITMAP
C0
20
40
40
40
40
40
40
60
ENDCHAR
STARTCHAR 00CD
ENCODING 205
SWIDTH 500 0
DWIDTH 6 0
BBX 3 9 2 1
BITMAP
60
80
80
80
80
80
80
80
C0
ENDCHAR
STARTCHAR 00CE
ENCODING 206
SWIDTH 500 0
DWIDTH 6 0
BBX 2 9 2 1
BITMAP
C0
80
80
80
80
80
80
80
C0
ENDCHAR
STARTCHAR 00CF
ENCODING 207
SWIDTH 500 0
DWIDTH 6 0
BBX 4 9 1 1
BITMAP
90
60
40
40
40
40
40
40
60
ENDCHAR
STARTCHAR 00D0
ENCODING 208
SWIDTH 500 0
DWIDTH 6 0
BBX 5 8 0 1
BITMAP
F0
48
48
48
E8
48
48
F0
ENDCHAR
STARTCHAR 00D1
ENCODING 209
SWIDTH 500 0
DWIDTH 6 0
BBX 6 9 0 1
BITMAP
78
CC
C8
A8
A8
98
98
88
C8
ENDCHAR
STARTCHAR 00D2
ENCODING 210
SWIDTH 500 0
DWIDTH 6 0
BBX 4 10 1 0
BITMAP
C0
60
90
90
90
90
90
90
90
60
ENDCHAR
STARTCHAR 00D3
ENCODING 211
SWIDTH 500 0
DWIDTH 6 0
BBX 4 10 1 0
BITMAP
30
60
90
90
90
90
90
90
90
60
ENDCHAR
STARTCHAR 00D4
ENCODING 212
SWIDTH 500 0
DWIDTH 6 0
BBX 4 10 1 0
BITMAP
60
60
90
90
90
90
90
90
90
60
ENDCHAR
STARTCHAR 00D5
ENCODING 213
SWIDTH 500 0
DWIDTH 6 0
BBX 4 10 1 0
BITMAP
F0
60
90
90
90
90
90
90
90
60
ENDCHAR
STARTCHAR 00D6
ENCODING 214
SWIDTH 500 0
DWIDTH 6 0
BBX 4 10 1 0
BITMAP
90
60
90
90
90
90
90
90
90
60
ENDCHAR
STARTCHAR 00D7
ENCODING 215
SWIDTH 1000 0
DWIDTH 12 0
BBX 8 7 2 1
BITMAP
83
44
28
10
28
44
83
ENDCHAR
STARTCHAR 00D8
ENCODING 216
SWIDTH 500 0
DWIDTH 6 0
BBX 4 10 1 0
BITMAP
10
70
90
90
B0
D0
D0
90
90
E0
ENDCHAR
STARTCHAR 00D9
ENCODING 217
SWIDTH 500 0
DWIDTH 6 0
BBX 6 10 0 0
BITMAP
60
DC
48
48
48
48
48
48
48
30
ENDCHAR
STARTCHAR 00DA
ENCODING 218
SWIDTH 500 0
DWIDTH 6 0
BBX 6 10 0 0
BITMAP
18
EC
48
48
48
48
48
48
48
30
ENDCHAR
STARTCHAR 00DB
ENCODING 219
SWIDTH 500 0
DWIDTH 6 0
BBX 6 10 0 0
BITMAP
30
CC
48
48
48
48
48
48
48
30
ENDCHAR
STARTCHAR 00DC
ENCODING 220
SWIDTH 500 0
DWIDTH 6 0
BBX 6 10 0 0
BITMAP
48
CC
48
48
48
48
48
48
48
30
ENDCHAR
STARTCHAR 00DD
ENCODING 221
SWIDTH 500 0
DWIDTH 6 0
BBX 6 9 0 1
BITMAP
18
EC
48
50
30
20
20
20
30
ENDCHAR
STARTCHAR 00DE
ENCODING 222
SWIDTH 500 0
DWIDTH 6 0
BBX 6 8 0 1
BITMAP
E0
40
78
48
44
48
78
E0
ENDCHAR
STARTCHAR 00DF
ENCODING 223
SWIDTH 500 0
DWIDTH 6 0
BBX 5 9 0 0
BITMAP
30
48
48
70
48
48
48
68
B8
ENDCHAR
STARTCHAR 00E0
ENCODING 224
SWIDTH 500 0
DWIDTH 6 0
BBX 5 8 1 0
BITMAP
C0
20
E0
90
70
90
90
F8
ENDCHAR
STARTCHAR 00E1
ENCODING 225
SWIDTH 500 0
DWIDTH 6 0
BBX 5 8 1 0
BITMAP
30
40
E0
90
70
90
90
F8
ENDCHAR
STARTCHAR 00E2
ENCODING 226
SWIDTH 500 0
DWIDTH 6 0
BBX 5 8 1 0
BITMAP
60
00
E0
90
70
90
90
F8
ENDCHAR
STARTCHAR 00E3
ENCODING 227
SWIDTH 500 0
DWIDTH 6 0
BBX 5 8 1 0
BITMAP
70
80
E0
90
70
90
90
F8
ENDCHAR
STARTCHAR 00E4
ENCODING 228
SWIDTH 500 0
DWIDTH 6 0
BBX 5 8 1 0
BITMAP
90
00
E0
90
70
90
90
F8
ENDCHAR
STARTCHAR 00E5
ENCODING 229
SWIDTH 500 0
DWIDTH 6 0
BBX 5 8 1 0
BITMAP
60
00
E0
90
70
90
90
F8
ENDCHAR
STARTCHAR 00E6
ENCODING 230
SWIDTH 500 0
DWIDTH 6 0
BBX 4 6 1 0
BITMAP
F0
50
70
C0
D0
F0
ENDCHAR
STARTCHAR 00E7
ENCODING 231
SWIDTH 500 0
DWIDTH 6 0
BBX 4 7 1 -1
BITMAP
70
90
80
80
90
60
60
ENDCHAR
STARTCHAR 00E8
ENCODING 232
SWIDTH 500 0
DWIDTH 6 0
BBX 4 8 1 0
BITMAP
C0
20
60
90
F0
80
90
60
ENDCHAR
STARTCHAR 00E9
ENCODING 233
SWIDTH 500 0
DWIDTH 6 0
BBX 4 8 1 0
BITMAP
30
40
60
90
F0
80
90
60
ENDCHAR
STARTCHAR 00EA
ENCODING 234
SWIDTH 500 0
DWIDTH 6 0
BBX 4 8 1 0
BITMAP
60
00
60
90
F0
80
90
60
ENDCHAR
STARTCHAR 00EB
ENCODING 235
SWIDTH 500 0
DWIDTH 6 0
BBX 4 8 1 0
BITMAP
90
00
60
90
F0
80
90
60
ENDCHAR
STARTCHAR 00EC
ENCODING 236
SWIDTH 500 0
DWIDTH 6 0
BBX 3 7 1 1
BITMAP
C0
60
40
40
40
40
60
ENDCHAR
STARTCHAR 00ED
ENCODING 237
SWIDTH 500 0
DWIDTH 6 0
BBX 3 7 2 1
BITMAP
E0
80
80
80
80
80
C0
ENDCHAR
STARTCHAR 00EE
ENCODING 238
SWIDTH 500 0
DWIDTH 6 0
BBX 2 7 2 1
BITMAP
C0
80
80
80
80
80
C0
ENDCHAR
STARTCHAR 00EF
ENCODING 239
SWIDTH 500 0
DWIDTH 6 0
BBX 4 8 1 1
BITMAP
90
00
40
40
40
40
40
60
ENDCHAR
STARTCHAR 00F0
ENCODING 240
SWIDTH 500 0
DWIDTH 6 0
BBX 4 9 1 0
BITMAP
A0
E0
20
70
90
90
90
90
60
ENDCHAR
STARTCHAR 00F1
ENCODING 241
SWIDTH 500 0
DWIDTH 6 0
BBX 6 7 0 1
BITMAP
38
40
F8
48
48
48
EC
ENDCHAR
STARTCHAR 00F2
ENCODING 242
SWIDTH 500 0
DWIDTH 6 0
BBX 4 8 1 0
BITMAP
C0
20
60
90
90
90
90
60
ENDCHAR
STARTCHAR 00F3
ENCODING 243
SWIDTH 500 0
DWIDTH 6 0
BBX 4 8 1 0
BITMAP
30
40
60
90
90
90
90
60
ENDCHAR
STARTCHAR 00F4
ENCODING 244
SWIDTH 500 0
DWIDTH 6 0
BBX 4 8 1 0
BITMAP
60
00
60
90
90
90
90
60
ENDCHAR
STARTCHAR 00F5
ENCODING 245
SWIDTH 500 0
DWIDTH 6 0
BBX 4 8 1 0
BITMAP
70
80
60
90
90
90
90
60
ENDCHAR
STARTCHAR 00F6
ENCODING 246
SWIDTH 500 0
DWIDTH 6 0
BBX 4 8 1 0
BITMAP
90
00
60
90
90
90
90
60
ENDCHAR
STARTCHAR 00F7
ENCODING 247
SWIDTH 1000 0
DWIDTH 12 0
BBX 8 6 2 1
BITMAP
18
00
FF
00
00
18
ENDCHAR
STARTCHAR 00F8
ENCODING 248
SWIDTH 500 0
DWIDTH 6 0
BBX 4 7 1 0
BITMAP
10
70
90
F0
D0
90
E0
ENDCHAR
STARTCHAR 00F9
ENCODING 249
SWIDTH 500 0
DWIDTH 6 0
BBX 6 8 0 0
BITMAP
60
10
D8
48
48
48
48
3C
ENDCHAR
STARTCHAR 00FA
ENCODING 250
SWIDTH 500 0
DWIDTH 6 0
BBX 6 8 0 0
BITMAP
18
20
D8
48
48
48
48
3C
ENDCHAR
STARTCHAR 00FB
ENCODING 251
SWIDTH 500 0
DWIDTH 6 0
BBX 6 8 0 0
BITMAP
30
00
D8
48
48
48
48
3C
ENDCHAR
STARTCHAR 00FC
ENCODING 252
SWIDTH 500 0
DWIDTH 6 0
BBX 6 8 0 0
BITMAP
48
00
D8
48
48
48
48
3C
ENDCHAR
STARTCHAR 00FD
ENCODING 253
SWIDTH 500 0
DWIDTH 6 0
BBX 6 9 0 -1
BITMAP
18
20
EC
48
30
30
10
20
60
ENDCHAR
STARTCHAR 00FE
ENCODING 254
SWIDTH 500 0
DWIDTH 6 0
BBX 4 10 1 -1
BITMAP
80
80
80
E0
90
90
90
90
E0
C0
ENDCHAR
STARTCHAR 00FF
ENCODING 255
SWIDTH 500 0
DWIDTH 6 0
BBX 6 9 0 -1
BITMAP
28
00
EC
48
30
30
10
20
60
ENDCHAR
STARTCHAR 0100
ENCODING 256
SWIDTH 500 0
DWIDTH 6 0
BBX 6 9 0 1
BITMAP
78
20
20
30
50
50
78
48
CC
ENDCHAR
STARTCHAR 0101
ENCODING 257
SWIDTH 500 0
DWIDTH 6 0
BBX 5 8 1 0
BITMAP
F0
00
E0
90
70
90
90
F8
ENDCHAR
STARTCHAR 0102
ENCODING 258
SWIDTH 500 0
DWIDTH 6 0
BBX 6 9 0 1
BITMAP
30
20
20
30
50
50
78
48
CC
ENDCHAR
STARTCHAR 0103
ENCODING 259
SWIDTH 500 0
DWIDTH 6 0
BBX 5 8 1 0
BITMAP
60
00
E0
90
70
90
90
F8
ENDCHAR
STARTCHAR 0104
ENCODING 260
SWIDTH 500 0
DWIDTH 6 0
BBX 6 10 0 -1
BITMAP
20
30
30
50
50
78
48
88
54
0C
ENDCHAR
STARTCHAR 0105
ENCODING 261
SWIDTH 500 0
DWIDTH 6 0
BBX 5 7 1 -1
BITMAP
E0
90
70
90
90
F8
38
ENDCHAR
STARTCHAR 0106
ENCODING 262
SWIDTH 500 0
DWIDTH 6 0
BBX 4 10 1 0
BITMAP
30
70
90
80
80
80
80
90
90
60
ENDCHAR
STARTCHAR 0107
ENCODING 263
SWIDTH 500 0
DWIDTH 6 0
BBX 4 8 1 0
BITMAP
30
40
70
90
80
80
90
60
ENDCHAR
STARTCHAR 0108
ENCODING 264
SWIDTH 500 0
DWIDTH 6 0
BBX 4 10 1 0
BITMAP
60
70
90
80
80
80
80
90
90
60
ENDCHAR
STARTCHAR 0109
ENCODING 265
SWIDTH 500 0
DWIDTH 6 0
BBX 4 8 1 0
BITMAP
60
10
70
90
80
80
90
60
ENDCHAR
STARTCHAR 010C
ENCODING 268
SWIDTH 500 0
DWIDTH 6 0
BBX 4 10 1 0
BITMAP
70
70
90
90
80
80
80
90
90
60
ENDCHAR
STARTCHAR 010D
ENCODING 269
SWIDTH 500 0
DWIDTH 6 0
BBX 4 8 1 0
BITMAP
70
00
70
90
80
80
90
60
ENDCHAR
STARTCHAR 010E
ENCODING 270
SWIDTH 500 0
DWIDTH 6 0
BBX 5 9 0 1
BITMAP
50
F0
48
48
48
48
48
48
F0
ENDCHAR
STARTCHAR 010F
ENCODING 271
SWIDTH 500 0
DWIDTH 6 0
BBX 6 10 0 0
BITMAP
04
14
18
10
70
50
90
90
50
68
ENDCHAR
STARTCHAR 0111
ENCODING 273
SWIDTH 500 0
DWIDTH 6 0
BBX 5 10 1 0
BITMAP
10
30
38
10
70
90
90
90
90
78
ENDCHAR
STARTCHAR 0112
ENCODING 274
SWIDTH 500 0
DWIDTH 6 0
BBX 5 9 0 1
BITMAP
78
F8
48
48
50
70
50
48
F8
ENDCHAR
STARTCHAR 0113
ENCODING 275
SWIDTH 500 0
DWIDTH 6 0
BBX 4 8 1 0
BITMAP
F0
00
60
90
F0
80
90
60
ENDCHAR
STARTCHAR 0118
ENCODING 280
SWIDTH 500 0
DWIDTH 6 0
BBX 5 10 0 -1
BITMAP
F8
48
48
50
70
50
40
48
B0
30
ENDCHAR
STARTCHAR 0119
ENCODING 281
SWIDTH 500 0
DWIDTH 6 0
BBX 4 7 1 -1
BITMAP
60
90
F0
80
90
A0
60
ENDCHAR
STARTCHAR 011A
ENCODING 282
SWIDTH 500 0
DWIDTH 6 0
BBX 5 9 0 1
BITMAP
30
F8
48
48
50
70
50
48
F8
ENDCHAR
STARTCHAR 011B
ENCODING 283
SWIDTH 500 0
DWIDTH 6 0
BBX 4 8 1 0
BITMAP
60
00
60
90
F0
80
90
60
ENDCHAR
STARTCHAR 011C
ENCODING 284
SWIDTH 500 0
DWIDTH 6 0
BBX 5 10 1 0
BITMAP
60
70
90
80
80
98
90
90
90
60
ENDCHAR
STARTCHAR 011D
ENCODING 285
SWIDTH 500 0
DWIDTH 6 0
BBX 5 9 1 -1
BITMAP
60
80
F8
90
E0
80
F0
90
F0
ENDCHAR
STARTCHAR 0124
ENCODING 292
SWIDTH 500 0
DWIDTH 6 0
BBX 6 9 0 1
BITMAP
30
CC
48
48
48
78
48
48
CC
ENDCHAR
STARTCHAR 0125
ENCODING 293
SWIDTH 500 0
DWIDTH 6 0
BBX 6 9 0 1
BITMAP
30
48
C0
40
78
48
48
48
EC
ENDCHAR
STARTCHAR 0127
ENCODING 295
SWIDTH 500 0
DWIDTH 6 0
BBX 6 9 0 1
BITMAP
40
C0
E0
40
78
48
48
48
EC
ENDCHAR
STARTCHAR 012A
ENCODING 298
SWIDTH 500 0
DWIDTH 6 0
BBX 4 9 1 1
BITMAP
F0
20
40
40
40
40
40
40
60
ENDCHAR
STARTCHAR 012B
ENCODING 299
SWIDTH 500 0
DWIDTH 6 0
BBX 4 7 1 1
BITMAP
F0
00
40
40
40
40
60
ENDCHAR
STARTCHAR 0134
ENCODING 308
SWIDTH 500 0
DWIDTH 6 0
BBX 5 10 1 0
BITMAP
30
18
10
10
10
10
10
90
A0
E0
ENDCHAR
STARTCHAR 0135
ENCODING 309
SWIDTH 500 0
DWIDTH 6 0
BBX 4 9 1 -1
BITMAP
60
10
20
20
20
20
20
20
E0
ENDCHAR
STARTCHAR 0139
ENCODING 313
SWIDTH 500 0
DWIDTH 6 0
BBX 4 9 1 1
BITMAP
60
80
80
80
80
80
90
90
F0
ENDCHAR
STARTCHAR 013A
ENCODING 314
SWIDTH 500 0
DWIDTH 6 0
BBX 2 9 2 1
BITMAP
C0
80
80
80
80
80
80
80
C0
ENDCHAR
STARTCHAR 013D
ENCODING 317
SWIDTH 500 0
DWIDTH 6 0
BBX 4 9 1 1
BITMAP
10
D0
80
80
80
80
90
90
F0
ENDCHAR
STARTCHAR 013E
ENCODING 318
SWIDTH 500 0
DWIDTH 6 0
BBX 3 9 2 1
BITMAP
A0
A0
80
80
80
80
80
80
C0
ENDCHAR
STARTCHAR 0141
ENCODING 321
SWIDTH 500 0
DWIDTH 6 0
BBX 5 8 0 1
BITMAP
60
40
60
40
C0
48
48
78
ENDCHAR
STARTCHAR 0142
ENCODING 322
SWIDTH 500 0
DWIDTH 6 0
BBX 4 9 1 1
BITMAP
40
40
40
70
40
C0
40
40
60
ENDCHAR
STARTCHAR 0143
ENCODING 323
SWIDTH 500 0
DWIDTH 6 0
BBX 6 9 0 1
BITMAP
18
EC
C8
A8
A8
98
98
88
C8
ENDCHAR
STARTCHAR 0144
ENCODING 324
SWIDTH 500 0
DWIDTH 6 0
BBX 6 7 0 1
BITMAP
18
20
F8
48
48
48
EC
ENDCHAR
STARTCHAR 0147
ENCODING 327
SWIDTH 500 0
DWIDTH 6 0
BBX 6 9 0 1
BITMAP
30
CC
C8
A8
A8
98
98
88
C8
ENDCHAR
STARTCHAR 0148
ENCODING 328
SWIDTH 500 0
DWIDTH 6 0
BBX 6 7 0 1
BITMAP
30
00
F8
48
48
48
EC
ENDCHAR
STARTCHAR 014B
ENCODING 331
SWIDTH 500 0
DWIDTH 6 0
BBX 5 7 0 -1
BITMAP
F8
48
48
48
48
A8
38
ENDCHAR
STARTCHAR 014C
ENCODING 332
SWIDTH 500 0
DWIDTH 6 0
BBX 4 10 1 0
BITMAP
F0
60
90
90
90
90
90
90
90
60
ENDCHAR
STARTCHAR 014D
ENCODING 333
SWIDTH 500 0
DWIDTH 6 0
BBX 4 8 1 0
BITMAP
F0
00
60
90
90
90
90
60
ENDCHAR
STARTCHAR 0150
ENCODING 336
SWIDTH 500 0
DWIDTH 6 0
BBX 5 10 1 0
BITMAP
78
E0
90
90
90
90
90
90
90
60
ENDCHAR
STARTCHAR 0151
ENCODING 337
SWIDTH 500 0
DWIDTH 6 0
BBX 5 8 1 0
BITMAP
78
A0
60
90
90
90
90
60
ENDCHAR
STARTCHAR 0152
ENCODING 338
SWIDTH 500 0
DWIDTH 6 0
BBX 5 9 1 0
BITMAP
70
B0
A0
B0
B0
B0
A8
B8
40
ENDCHAR
STARTCHAR 0153
ENCODING 339
SWIDTH 500 0
DWIDTH 6 0
BBX 4 6 1 0
BITMAP
F0
B0
B0
C0
B0
F0
ENDCHAR
STARTCHAR 0154
ENCODING 340
SWIDTH 500 0
DWIDTH 6 0
BBX 6 9 0 1
BITMAP
38
D0
48
48
48
70
50
50
EC
ENDCHAR
STARTCHAR 0155
ENCODING 341
SWIDTH 500 0
DWIDTH 6 0
BBX 4 7 1 1
BITMAP
30
40
F0
40
40
40
C0
ENDCHAR
STARTCHAR 0158
ENCODING 344
SWIDTH 500 0
DWIDTH 6 0
BBX 6 9 0 1
BITMAP
70
D0
48
48
48
70
50
50
EC
ENDCHAR
STARTCHAR 0159
ENCODING 345
SWIDTH 500 0
DWIDTH 6 0
BBX 4 7 1 1
BITMAP
60
00
F0
40
40
40
C0
ENDCHAR
STARTCHAR 015A
ENCODING 346
SWIDTH 500 0
DWIDTH 6 0
BBX 4 10 1 0
BITMAP
60
F0
90
80
40
20
10
90
90
60
ENDCHAR
STARTCHAR 015B
ENCODING 347
SWIDTH 500 0
DWIDTH 6 0
BBX 4 8 1 0
BITMAP
30
40
70
90
80
E0
90
70
ENDCHAR
STARTCHAR 015C
ENCODING 348
SWIDTH 500 0
DWIDTH 6 0
BBX 4 10 1 0
BITMAP
60
70
90
80
80
60
10
90
90
70
ENDCHAR
STARTCHAR 015D
ENCODING 349
SWIDTH 500 0
DWIDTH 6 0
BBX 4 8 1 0
BITMAP
60
00
70
90
80
E0
90
70
ENDCHAR
STARTCHAR 015E
ENCODING 350
SWIDTH 500 0
DWIDTH 6 0
BBX 4 10 1 -1
BITMAP
F0
90
80
40
20
90
90
F0
00
60
ENDCHAR
STARTCHAR 015F
ENCODING 351
SWIDTH 500 0
DWIDTH 6 0
BBX 4 7 1 -1
BITMAP
F0
90
60
90
F0
00
60
ENDCHAR
STARTCHAR 0160
ENCODING 352
SWIDTH 500 0
DWIDTH 6 0
BBX 4 10 1 0
BITMAP
60
70
90
80
80
60
10
90
90
70
ENDCHAR
STARTCHAR 0161
ENCODING 353
SWIDTH 500 0
DWIDTH 6 0
BBX 4 8 1 0
BITMAP
60
00
70
90
80
E0
90
70
ENDCHAR
STARTCHAR 0162
ENCODING 354
SWIDTH 500 0
DWIDTH 6 0
BBX 4 10 1 -1
BITMAP
F0
D0
D0
40
40
40
40
40
20
60
ENDCHAR
STARTCHAR 0163
ENCODING 355
SWIDTH 500 0
DWIDTH 6 0
BBX 4 9 1 -1
BITMAP
40
40
F0
40
40
40
70
00
60
ENDCHAR
STARTCHAR 0164
ENCODING 356
SWIDTH 500 0
DWIDTH 6 0
BBX 4 9 1 1
BITMAP
60
F0
D0
D0
40
40
40
40
60
ENDCHAR
STARTCHAR 0165
ENCODING 357
SWIDTH 500 0
DWIDTH 6 0
BBX 4 10 1 0
BITMAP
10
10
60
40
F0
40
40
40
40
70
ENDCHAR
STARTCHAR 016A
ENCODING 362
SWIDTH 500 0
DWIDTH 6 0
BBX 6 10 0 0
BITMAP
78
CC
48
48
48
48
48
48
48
30
ENDCHAR
STARTCHAR 016B
ENCODING 363
SWIDTH 500 0
DWIDTH 6 0
BBX 6 8 0 0
BITMAP
78
00
D8
48
48
48
48
3C
ENDCHAR
STARTCHAR 016C
ENCODING 364
SWIDTH 500 0
DWIDTH 6 0
BBX 6 10 0 0
BITMAP
30
CC
48
48
48
48
48
48
48
30
ENDCHAR
STARTCHAR 016D
ENCODING 365
SWIDTH 500 0
DWIDTH 6 0
BBX 6 8 0 0
BITMAP
30
00
D8
48
48
48
48
3C
ENDCHAR
STARTCHAR 016E
ENCODING 366
SWIDTH 500 0
DWIDTH 6 0
BBX 6 11 0 0
BITMAP
30
30
CC
48
48
48
48
48
48
48
30
ENDCHAR
STARTCHAR 016F
ENCODING 367
SWIDTH 500 0
DWIDTH 6 0
BBX 6 9 0 0
BITMAP
30
30
00
D8
48
48
48
48
3C
ENDCHAR
STARTCHAR 0170
ENCODING 368
SWIDTH 500 0
DWIDTH 6 0
BBX 6 10 0 0
BITMAP
3C
DC
48
48
48
48
48
48
48
30
ENDCHAR
STARTCHAR 0171
ENCODING 369
SWIDTH 500 0
DWIDTH 6 0
BBX 6 8 0 0
BITMAP
3C
50
D8
48
48
48
48
3C
ENDCHAR
STARTCHAR 0179
ENCODING 377
SWIDTH 500 0
DWIDTH 6 0
BBX 4 9 1 1
BITMAP
30
F0
90
20
20
40
90
90
F0
ENDCHAR
STARTCHAR 017A
ENCODING 378
SWIDTH 500 0
DWIDTH 6 0
BBX 4 7 1 1
BITMAP
30
40
F0
A0
40
90
F0
ENDCHAR
STARTCHAR 017B
ENCODING 379
SWIDTH 500 0
DWIDTH 6 0
BBX 4 9 1 1
BITMAP
60
F0
90
20
20
40
90
90
F0
ENDCHAR
STARTCHAR 017C
ENCODING 380
SWIDTH 500 0
DWIDTH 6 0
BBX 4 7 1 1
BITMAP
20
00
F0
A0
40
90
F0
ENDCHAR
STARTCHAR 017D
ENCODING 381
SWIDTH 500 0
DWIDTH 6 0
BBX 4 9 1 1
BITMAP
60
F0
90
20
20
40
90
90
F0
ENDCHAR
STARTCHAR 017E
ENCODING 382
SWIDTH 500 0
DWIDTH 6 0
BBX 4 7 1 1
BITMAP
60
00
F0
A0
40
90
F0
ENDCHAR
STARTCHAR 0193
ENCODING 403
SWIDTH 500 0
DWIDTH 6 0
BBX 5 10 1 0
BITMAP
18
60
A0
80
80
B0
A0
A0
A0
40
ENDCHAR
STARTCHAR 01C2
ENCODING 450
SWIDTH 500 0
DWIDTH 6 0
BBX 4 10 1 -1
BITMAP
40
40
40
F0
40
40
F0
40
40
40
ENDCHAR
STARTCHAR 01CD
ENCODING 461
SWIDTH 1000 0
DWIDTH 12 0
BBX 10 9 1 1
BITMAP
1E00
0800
0C00
1400
1200
2200
3F00
2100
E3C0
ENDCHAR
STARTCHAR 01CE
ENCODING 462
SWIDTH 1000 0
DWIDTH 12 0
BBX 6 8 3 0
BITMAP
78
00
78
48
38
C8
88
7C
ENDCHAR
STARTCHAR 01D0
ENCODING 464
SWIDTH 1000 0
DWIDTH 12 0
BBX 4 8 4 1
BITMAP
B0
40
40
40
40
40
40
60
ENDCHAR
STARTCHAR 01D1
ENCODING 465
SWIDTH 1000 0
DWIDTH 12 0
BBX 8 10 2 0
BITMAP
3C
3C
42
81
81
81
81
81
42
3C
ENDCHAR
STARTCHAR 01D2
ENCODING 466
SWIDTH 1000 0
DWIDTH 12 0
BBX 6 8 3 0
BITMAP
78
00
78
C4
84
84
CC
78
ENDCHAR
STARTCHAR 01D4
ENCODING 468
SWIDTH 1000 0
DWIDTH 12 0
BBX 6 8 3 0
BITMAP
78
88
88
88
88
88
48
7C
ENDCHAR
STARTCHAR 01D6
ENCODING 470
SWIDTH 1000 0
DWIDTH 12 0
BBX 6 8 3 1
BITMAP
78
00
88
88
88
88
48
74
ENDCHAR
STARTCHAR 01D8
ENCODING 472
SWIDTH 1000 0
DWIDTH 12 0
BBX 6 8 3 1
BITMAP
78
00
88
88
88
88
48
74
ENDCHAR
STARTCHAR 01DA
ENCODING 474
SWIDTH 1000 0
DWIDTH 12 0
BBX 6 9 3 1
BITMAP
48
78
00
88
88
88
88
48
74
ENDCHAR
STARTCHAR 01DC
ENCODING 476
SWIDTH 1000 0
DWIDTH 12 0
BBX 6 8 3 1
BITMAP
78
00
88
88
88
88
48
74
ENDCHAR
STARTCHAR 01F8
ENCODING 504
SWIDTH 500 0
DWIDTH 6 0
BBX 6 9 0 1
BITMAP
60
DC
C8
A8
A8
98
98
88
C8
ENDCHAR
STARTCHAR 01F9
ENCODING 505
SWIDTH 500 0
DWIDTH 6 0
BBX 6 7 0 1
BITMAP
60
10
F8
48
48
48
EC
ENDCHAR
STARTCHAR 01FD
ENCODING 509
SWIDTH 500 0
DWIDTH 6 0
BBX 4 8 1 0
BITMAP
30
40
F0
50
70
C0
D0
F0
ENDCHAR
STARTCHAR 0250
ENCODING 592
SWIDTH 500 0
DWIDTH 6 0
BBX 5 6 0 0
BITMAP
F8
48
48
70
48
30
ENDCHAR
STARTCHAR 0251
ENCODING 593
SWIDTH 500 0
DWIDTH 6 0
BBX 5 6 1 0
BITMAP
70
90
90
90
90
78
ENDCHAR
STARTCHAR 0252
ENCODING 594
SWIDTH 500 0
DWIDTH 6 0
BBX 5 6 0 0
BITMAP
70
C8
48
48
48
70
ENDCHAR
STARTCHAR 0253
ENCODING 595
SWIDTH 500 0
DWIDTH 6 0
BBX 4 9 1 0
BITMAP
70
90
80
E0
90
90
90
90
E0
ENDCHAR
STARTCHAR 0254
ENCODING 596
SWIDTH 500 0
DWIDTH 6 0
BBX 4 6 1 0
BITMAP
E0
90
10
10
90
E0
ENDCHAR
STARTCHAR 0255
ENCODING 597
SWIDTH 500 0
DWIDTH 6 0
BBX 4 6 1 0
BITMAP
70
90
80
B0
D0
F0
ENDCHAR
STARTCHAR 0256
ENCODING 598
SWIDTH 500 0
DWIDTH 6 0
BBX 5 10 1 -1
BITMAP
20
20
20
E0
A0
A0
A0
A0
E0
18
ENDCHAR
STARTCHAR 0257
ENCODING 599
SWIDTH 500 0
DWIDTH 6 0
BBX 5 9 1 0
BITMAP
18
28
20
E0
A0
A0
A0
A0
D0
ENDCHAR
STARTCHAR 0258
ENCODING 600
SWIDTH 500 0
DWIDTH 6 0
BBX 4 6 1 0
BITMAP
60
90
F0
10
90
60
ENDCHAR
STARTCHAR 0259
ENCODING 601
SWIDTH 500 0
DWIDTH 6 0
BBX 4 6 1 0
BITMAP
60
90
10
F0
90
60
ENDCHAR
STARTCHAR 025A
ENCODING 602
SWIDTH 500 0
DWIDTH 6 0
BBX 5 6 1 0
BITMAP
C0
B0
68
A0
A0
C0
ENDCHAR
STARTCHAR 025C
ENCODING 604
SWIDTH 500 0
DWIDTH 6 0
BBX 4 6 1 0
BITMAP
E0
10
60
10
90
E0
ENDCHAR
STARTCHAR 025E
ENCODING 606
SWIDTH 500 0
DWIDTH 6 0
BBX 4 6 1 0
BITMAP
70
90
B0
90
90
70
ENDCHAR
STARTCHAR 025F
ENCODING 607
SWIDTH 500 0
DWIDTH 6 0
BBX 4 7 1 -1
BITMAP
60
20
20
F0
20
20
C0
ENDCHAR
STARTCHAR 0260
ENCODING 608
SWIDTH 500 0
DWIDTH 6 0
BBX 5 10 1 -1
BITMAP
18
28
20
E0
A0
A0
E0
20
A0
E0
ENDCHAR
STARTCHAR 0261
ENCODING 609
SWIDTH 500 0
DWIDTH 6 0
BBX 4 7 1 -1
BITMAP
F0
90
90
F0
10
90
E0
ENDCHAR
STARTCHAR 0264
ENCODING 612
SWIDTH 500 0
DWIDTH 6 0
BBX 6 6 0 0
BITMAP
4C
B0
20
10
30
30
ENDCHAR
STARTCHAR 0265
ENCODING 613
SWIDTH 500 0
DWIDTH 6 0
BBX 6 7 0 -1
BITMAP
DC
48
48
48
48
38
0C
ENDCHAR
STARTCHAR 0266
ENCODING 614
SWIDTH 500 0
DWIDTH 6 0
BBX 6 8 0 1
BITMAP
38
48
40
78
48
48
48
EC
ENDCHAR
STARTCHAR 0267
ENCODING 615
SWIDTH 500 0
DWIDTH 6 0
BBX 5 10 0 -1
BITMAP
38
48
40
78
48
48
48
48
A8
38
ENDCHAR
STARTCHAR 0268
ENCODING 616
SWIDTH 500 0
DWIDTH 6 0
BBX 3 8 2 1
BITMAP
C0
00
80
80
80
E0
80
C0
ENDCHAR
STARTCHAR 026C
ENCODING 620
SWIDTH 500 0
DWIDTH 6 0
BBX 4 8 1 1
BITMAP
40
40
40
C0
C0
70
40
60
ENDCHAR
STARTCHAR 026D
ENCODING 621
SWIDTH 500 0
DWIDTH 6 0
BBX 3 10 2 -1
BITMAP
80
80
80
80
80
80
80
80
80
60
ENDCHAR
STARTCHAR 026E
ENCODING 622
SWIDTH 500 0
DWIDTH 6 0
BBX 5 10 0 -1
BITMAP
C0
40
40
78
50
60
58
48
A8
38
ENDCHAR
STARTCHAR 026F
ENCODING 623
SWIDTH 500 0
DWIDTH 6 0
BBX 6 6 0 0
BITMAP
FC
A8
A8
A8
A8
5C
ENDCHAR
STARTCHAR 0270
ENCODING 624
SWIDTH 500 0
DWIDTH 6 0
BBX 6 7 0 -1
BITMAP
FC
A8
A8
A8
A8
58
0C
ENDCHAR
STARTCHAR 0271
ENCODING 625
SWIDTH 500 0
DWIDTH 6 0
BBX 5 7 0 -1
BITMAP
F8
A8
A8
A8
A8
58
18
ENDCHAR
STARTCHAR 0272
ENCODING 626
SWIDTH 500 0
DWIDTH 6 0
BBX 6 7 0 -1
BITMAP
58
68
48
48
48
44
C0
ENDCHAR
STARTCHAR 0273
ENCODING 627
SWIDTH 500 0
DWIDTH 6 0
BBX 6 7 0 -1
BITMAP
F0
50
50
50
50
90
0C
ENDCHAR
STARTCHAR 0275
ENCODING 629
SWIDTH 500 0
DWIDTH 6 0
BBX 4 6 1 0
BITMAP
E0
90
F0
90
90
60
ENDCHAR
STARTCHAR 0279
ENCODING 633
SWIDTH 500 0
DWIDTH 6 0
BBX 4 6 1 0
BITMAP
30
20
20
20
A0
F0
ENDCHAR
STARTCHAR 027A
ENCODING 634
SWIDTH 500 0
DWIDTH 6 0
BBX 4 9 1 0
BITMAP
30
20
20
20
20
20
20
A0
F0
ENDCHAR
STARTCHAR 027B
ENCODING 635
SWIDTH 500 0
DWIDTH 6 0
BBX 5 7 1 -1
BITMAP
70
20
20
20
A0
E0
38
ENDCHAR
STARTCHAR 027D
ENCODING 637
SWIDTH 500 0
DWIDTH 6 0
BBX 4 7 1 -1
BITMAP
F0
40
40
40
40
40
70
ENDCHAR
STARTCHAR 027E
ENCODING 638
SWIDTH 500 0
DWIDTH 6 0
BBX 4 5 1 1
BITMAP
30
40
40
40
E0
ENDCHAR
STARTCHAR 0281
ENCODING 641
SWIDTH 500 0
DWIDTH 6 0
BBX 5 5 1 1
BITMAP
D8
A0
F0
90
F0
ENDCHAR
STARTCHAR 0282
ENCODING 642
SWIDTH 500 0
DWIDTH 6 0
BBX 4 7 1 -1
BITMAP
70
90
80
E0
90
F0
C0
ENDCHAR
STARTCHAR 0283
ENCODING 643
SWIDTH 500 0
DWIDTH 6 0
BBX 6 10 0 -1
BITMAP
1C
20
20
20
20
20
20
20
20
E0
ENDCHAR
STARTCHAR 0284
ENCODING 644
SWIDTH 500 0
DWIDTH 6 0
BBX 6 10 0 -1
BITMAP
1C
20
20
20
20
20
78
20
20
E0
ENDCHAR
STARTCHAR 0288
ENCODING 648
SWIDTH 500 0
DWIDTH 6 0
BBX 4 9 1 -1
BITMAP
40
40
F0
40
40
40
40
40
30
ENDCHAR
STARTCHAR 0289
ENCODING 649
SWIDTH 500 0
DWIDTH 6 0
BBX 6 6 0 0
BITMAP
D8
48
FC
48
48
3C
ENDCHAR
STARTCHAR 028A
ENCODING 650
SWIDTH 500 0
DWIDTH 6 0
BBX 4 6 1 0
BITMAP
F0
90
90
90
90
60
ENDCHAR
STARTCHAR 028B
ENCODING 651
SWIDTH 500 0
DWIDTH 6 0
BBX 5 6 0 0
BITMAP
C8
48
48
48
48
30
ENDCHAR
STARTCHAR 028C
ENCODING 652
SWIDTH 500 0
DWIDTH 6 0
BBX 6 6 0 1
BITMAP
20
30
50
50
48
DC
ENDCHAR
STARTCHAR 028D
ENCODING 653
SWIDTH 500 0
DWIDTH 6 0
BBX 6 6 0 1
BITMAP
50
48
78
A8
A8
FC
ENDCHAR
STARTCHAR 028E
ENCODING 654
SWIDTH 500 0
DWIDTH 6 0
BBX 6 8 0 1
BITMAP
0C
10
20
20
50
50
48
DC
ENDCHAR
STARTCHAR 0290
ENCODING 656
SWIDTH 500 0
DWIDTH 6 0
BBX 5 7 1 -1
BITMAP
E0
A0
40
A0
E0
20
18
ENDCHAR
STARTCHAR 0291
ENCODING 657
SWIDTH 500 0
DWIDTH 6 0
BBX 5 6 1 0
BITMAP
F0
A0
40
B0
F8
40
ENDCHAR
STARTCHAR 0292
ENCODING 658
SWIDTH 500 0
DWIDTH 6 0
BBX 4 7 1 -1
BITMAP
F0
A0
40
E0
10
10
E0
ENDCHAR
STARTCHAR 0294
ENCODING 660
SWIDTH 500 0
DWIDTH 6 0
BBX 4 8 1 1
BITMAP
60
90
10
10
20
40
40
60
ENDCHAR
STARTCHAR 0295
ENCODING 661
SWIDTH 500 0
DWIDTH 6 0
BBX 4 8 1 1
BITMAP
60
90
80
80
40
20
20
60
ENDCHAR
STARTCHAR 0298
ENCODING 664
SWIDTH 500 0
DWIDTH 6 0
BBX 4 6 1 0
BITMAP
60
90
F0
F0
90
60
ENDCHAR
STARTCHAR 029D
ENCODING 669
SWIDTH 500 0
DWIDTH 6 0
BBX 4 10 1 -1
BITMAP
60
00
40
40
40
40
40
40
40
F0
ENDCHAR
STARTCHAR 02A1
ENCODING 673
SWIDTH 500 0
DWIDTH 6 0
BBX 4 8 1 1
BITMAP
60
90
10
10
20
40
E0
60
ENDCHAR
STARTCHAR 02A2
ENCODING 674
SWIDTH 500 0
DWIDTH 6 0
BBX 4 8 1 1
BITMAP
60
90
80
80
80
60
70
60
ENDCHAR
STARTCHAR 02C7
ENCODING 711
SWIDTH 500 0
DWIDTH 6 0
BBX 4 1 1 8
BITMAP
F0
ENDCHAR
STARTCHAR 02C8
ENCODING 712
SWIDTH 500 0
DWIDTH 6 0
BBX 1 1 2 9
BITMAP
80
ENDCHAR
STARTCHAR 02CC
ENCODING 716
SWIDTH 500 0
DWIDTH 6 0
BBX 1 2 2 -1
BITMAP
80
80
ENDCHAR
STARTCHAR 02D0
ENCODING 720
SWIDTH 500 0
DWIDTH 6 0
BBX 2 5 2 1
BITMAP
C0
80
00
80
C0
ENDCHAR
STARTCHAR 02D1
ENCODING 721
SWIDTH 500 0
DWIDTH 6 0
BBX 2 2 2 4
BITMAP
C0
80
ENDCHAR
STARTCHAR 02D8
ENCODING 728
SWIDTH 500 0
DWIDTH 6 0
BBX 4 2 1 7
BITMAP
90
60
ENDCHAR
STARTCHAR 02D9
ENCODING 729
SWIDTH 500 0
DWIDTH 6 0
BBX 2 1 2 8
BITMAP
C0
ENDCHAR
STARTCHAR 02DB
ENCODING 731
SWIDTH 500 0
DWIDTH 6 0
BBX 2 3 2 -1
BITMAP
80
80
C0
ENDCHAR
STARTCHAR 02DC
ENCODING 732
SWIDTH 500 0
DWIDTH 6 0
BBX 4 1 1 8
BITMAP
F0
ENDCHAR
STARTCHAR 02DD
ENCODING 733
SWIDTH 500 0
DWIDTH 6 0
BBX 5 1 0 8
BITMAP
F8
ENDCHAR
STARTCHAR 02DE
ENCODING 734
SWIDTH 500 0
DWIDTH 6 0
BBX 4 2 1 3
BITMAP
D0
30
ENDCHAR
STARTCHAR 02E5
ENCODING 741
SWIDTH 500 0
DWIDTH 6 0
BBX 3 12 1 -1
BITMAP
E0
20
20
20
20
20
20
20
20
20
20
20
ENDCHAR
STARTCHAR 02E6
ENCODING 742
SWIDTH 500 0
DWIDTH 6 0
BBX 3 12 1 -1
BITMAP
20
20
20
E0
20
20
20
20
20
20
20
20
ENDCHAR
STARTCHAR 02E7
ENCODING 743
SWIDTH 500 0
DWIDTH 6 0
BBX 3 12 1 -1
BITMAP
20
20
20
20
20
20
E0
20
20
20
20
20
ENDCHAR
STARTCHAR 02E8
ENCODING 744
SWIDTH 500 0
DWIDTH 6 0
BBX 3 12 1 -1
BITMAP
20
20
20
20
20
20
20
20
20
E0
20
20
ENDCHAR
STARTCHAR 02E9
ENCODING 745
SWIDTH 500 0
DWIDTH 6 0
BBX 3 12 1 -1
BITMAP
20
20
20
20
20
20
20
20
20
20
20
E0
ENDCHAR
STARTCHAR 0300
ENCODING 768
SWIDTH 500 0
DWIDTH 6 0
BBX 3 1 1 9
BITMAP
E0
ENDCHAR
STARTCHAR 0301
ENCODING 769
SWIDTH 500 0
DWIDTH 6 0
BBX 3 1 2 9
BITMAP
E0
ENDCHAR
STARTCHAR 0302
ENCODING 770
SWIDTH 500 0
DWIDTH 6 0
BBX 2 1 2 9
BITMAP
C0
ENDCHAR
STARTCHAR 0303
ENCODING 771
SWIDTH 500 0
DWIDTH 6 0
BBX 4 1 1 9
BITMAP
F0
ENDCHAR
STARTCHAR 0304
ENCODING 772
SWIDTH 500 0
DWIDTH 6 0
BBX 4 1 1 9
BITMAP
F0
ENDCHAR
STARTCHAR 0306
ENCODING 774
SWIDTH 500 0
DWIDTH 6 0
BBX 2 1 2 9
BITMAP
C0
ENDCHAR
STARTCHAR 0308
ENCODING 776
SWIDTH 500 0
DWIDTH 6 0
BBX 4 1 1 9
BITMAP
90
ENDCHAR
STARTCHAR 030B
ENCODING 779
SWIDTH 500 0
DWIDTH 6 0
BBX 5 1 1 9
BITMAP
F8
ENDCHAR
STARTCHAR 030C
ENCODING 780
SWIDTH 500 0
DWIDTH 6 0
BBX 2 1 2 9
BITMAP
C0
ENDCHAR
STARTCHAR 030F
ENCODING 783
SWIDTH 500 0
DWIDTH 6 0
BBX 5 1 0 9
BITMAP
F8
ENDCHAR
STARTCHAR 0318
ENCODING 792
SWIDTH 500 0
DWIDTH 6 0
BBX 1 1 2 -1
BITMAP
80
ENDCHAR
STARTCHAR 0319
ENCODING 793
SWIDTH 500 0
DWIDTH 6 0
BBX 1 1 3 -1
BITMAP
80
ENDCHAR
STARTCHAR 031A
ENCODING 794
SWIDTH 500 0
DWIDTH 6 0
BBX 3 1 3 9
BITMAP
E0
ENDCHAR
STARTCHAR 031C
ENCODING 796
SWIDTH 500 0
DWIDTH 6 0
BBX 1 1 2 -1
BITMAP
80
ENDCHAR
STARTCHAR 031D
ENCODING 797
SWIDTH 500 0
DWIDTH 6 0
BBX 2 1 2 -1
BITMAP
C0
ENDCHAR
STARTCHAR 031E
ENCODING 798
SWIDTH 500 0
DWIDTH 6 0
BBX 2 2 2 -1
BITMAP
C0
80
ENDCHAR
STARTCHAR 031F
ENCODING 799
SWIDTH 500 0
DWIDTH 6 0
BBX 2 1 2 -1
BITMAP
C0
ENDCHAR
STARTCHAR 0320
ENCODING 800
SWIDTH 500 0
DWIDTH 6 0
BBX 2 1 2 -1
BITMAP
C0
ENDCHAR
STARTCHAR 0324
ENCODING 804
SWIDTH 500 0
DWIDTH 6 0
BBX 4 1 1 -1
BITMAP
90
ENDCHAR
STARTCHAR 0325
ENCODING 805
SWIDTH 500 0
DWIDTH 6 0
BBX 2 1 2 -1
BITMAP
C0
ENDCHAR
STARTCHAR 0329
ENCODING 809
SWIDTH 500 0
DWIDTH 6 0
BBX 1 1 2 -1
BITMAP
80
ENDCHAR
STARTCHAR 032A
ENCODING 810
SWIDTH 500 0
DWIDTH 6 0
BBX 2 2 2 -1
BITMAP
C0
C0
ENDCHAR
STARTCHAR 032C
ENCODING 812
SWIDTH 500 0
DWIDTH 6 0
BBX 2 1 2 -1
BITMAP
C0
ENDCHAR
STARTCHAR 032F
ENCODING 815
SWIDTH 500 0
DWIDTH 6 0
BBX 2 1 2 -1
BITMAP
C0
ENDCHAR
STARTCHAR 0330
ENCODING 816
SWIDTH 500 0
DWIDTH 6 0
BBX 4 1 1 -1
BITMAP
F0
ENDCHAR
STARTCHAR 0334
ENCODING 820
SWIDTH 500 0
DWIDTH 6 0
BBX 4 1 1 4
BITMAP
F0
ENDCHAR
STARTCHAR 0339
ENCODING 825
SWIDTH 500 0
DWIDTH 6 0
BBX 1 1 3 -1
BITMAP
80
ENDCHAR
STARTCHAR 033A
ENCODING 826
SWIDTH 500 0
DWIDTH 6 0
BBX 2 1 2 -1
BITMAP
C0
ENDCHAR
STARTCHAR 033B
ENCODING 827
SWIDTH 500 0
DWIDTH 6 0
BBX 2 1 2 -1
BITMAP
C0
ENDCHAR
STARTCHAR 033C
ENCODING 828
SWIDTH 500 0
DWIDTH 6 0
BBX 4 1 1 -1
BITMAP
F0
ENDCHAR
STARTCHAR 033D
ENCODING 829
SWIDTH 500 0
DWIDTH 6 0
BBX 4 1 1 9
BITMAP
F0
ENDCHAR
STARTCHAR 0361
ENCODING 865
SWIDTH 500 0
DWIDTH 6 0
BBX 6 1 0 9
BITMAP
FC
ENDCHAR
STARTCHAR 0391
ENCODING 913
SWIDTH 1000 0
DWIDTH 12 0
BBX 10 8 1 1
BITMAP
0800
0C00
1400
1200
2200
3F00
2100
E3C0
ENDCHAR
STARTCHAR 0392
ENCODING 914
SWIDTH 1000 0
DWIDTH 12 0
BBX 8 8 2 1
BITMAP
FC
42
42
42
7C
42
43
FE
ENDCHAR
STARTCHAR 0393
ENCODING 915
SWIDTH 1000 0
DWIDTH 12 0
BBX 8 8 2 1
BITMAP
FF
41
41
40
40
40
40
F0
ENDCHAR
STARTCHAR 0394
ENCODING 916
SWIDTH 1000 0
DWIDTH 12 0
BBX 8 9 2 1
BITMAP
10
18
28
24
44
42
82
82
FF
ENDCHAR
STARTCHAR 0395
ENCODING 917
SWIDTH 1000 0
DWIDTH 12 0
BBX 7 8 2 1
BITMAP
FE
42
42
44
7C
44
42
FE
ENDCHAR
STARTCHAR 0396
ENCODING 918
SWIDTH 1000 0
DWIDTH 12 0
BBX 6 8 3 1
BITMAP
FC
84
88
10
20
44
84
FC
ENDCHAR
STARTCHAR 0397
ENCODING 919
SWIDTH 1000 0
DWIDTH 12 0
BBX 8 8 2 1
BITMAP
E7
42
42
42
7E
42
42
E7
ENDCHAR
STARTCHAR 0398
ENCODING 920
SWIDTH 1000 0
DWIDTH 12 0
BBX 8 9 2 0
BITMAP
3C
42
83
C5
BD
C5
81
42
3C
ENDCHAR
STARTCHAR 0399
ENCODING 921
SWIDTH 1000 0
DWIDTH 12 0
BBX 4 8 4 1
BITMAP
F0
40
40
40
40
40
40
F0
ENDCHAR
STARTCHAR 039A
ENCODING 922
SWIDTH 1000 0
DWIDTH 12 0
BBX 9 8 2 1
BITMAP
E700
4400
4800
5000
6800
4400
4200
E780
ENDCHAR
STARTCHAR 039B
ENCODING 923
SWIDTH 1000 0
DWIDTH 12 0
BBX 8 9 2 1
BITMAP
10
18
28
28
24
44
42
82
E7
ENDCHAR
STARTCHAR 039C
ENCODING 924
SWIDTH 1000 0
DWIDTH 12 0
BBX 10 8 1 1
BITMAP
C0C0
6180
6280
5280
5480
4C80
4C80
E9C0
ENDCHAR
STARTCHAR 039D
ENCODING 925
SWIDTH 1000 0
DWIDTH 12 0
BBX 8 8 2 1
BITMAP
C3
A2
B2
92
8A
86
82
C2
ENDCHAR
STARTCHAR 039E
ENCODING 926
SWIDTH 1000 0
DWIDTH 12 0
BBX 6 8 3 1
BITMAP
FC
84
00
88
78
88
84
FC
ENDCHAR
STARTCHAR 039F
ENCODING 927
SWIDTH 1000 0
DWIDTH 12 0
BBX 8 9 2 0
BITMAP
3C
42
81
81
81
81
83
46
3C
ENDCHAR
STARTCHAR 03A0
ENCODING 928
SWIDTH 1000 0
DWIDTH 12 0
BBX 8 8 2 1
BITMAP
FF
42
42
42
42
42
42
E7
ENDCHAR
STARTCHAR 03A1
ENCODING 929
SWIDTH 1000 0
DWIDTH 12 0
BBX 7 8 3 1
BITMAP
FC
46
42
46
7C
40
40
E0
ENDCHAR
STARTCHAR 03A3
ENCODING 931
SWIDTH 1000 0
DWIDTH 12 0
BBX 8 8 2 1
BITMAP
FE
42
20
18
10
21
41
FF
ENDCHAR
STARTCHAR 03A4
ENCODING 932
SWIDTH 1000 0
DWIDTH 12 0
BBX 8 8 2 1
BITMAP
FF
91
91
10
10
10
10
3C
ENDCHAR
STARTCHAR 03A5
ENCODING 933
SWIDTH 1000 0
DWIDTH 12 0
BBX 8 8 2 1
BITMAP
66
99
91
10
10
10
10
3C
ENDCHAR
STARTCHAR 03A6
ENCODING 934
SWIDTH 1000 0
DWIDTH 12 0
BBX 8 8 2 1
BITMAP
3C
3C
D2
91
91
92
7C
3C
ENDCHAR
STARTCHAR 03A7
ENCODING 935
SWIDTH 1000 0
DWIDTH 12 0
BBX 9 8 2 1
BITMAP
E700
2400
2800
1000
1800
2400
4200
E780
ENDCHAR
STARTCHAR 03A8
ENCODING 936
SWIDTH 1000 0
DWIDTH 12 0
BBX 10 8 1 1
BITMAP
4C80
A940
2900
2900
2900
1A00
0C00
1E00
ENDCHAR
STARTCHAR 03A9
ENCODING 937
SWIDTH 1000 0
DWIDTH 12 0
BBX 8 8 2 1
BITMAP
3C
42
C3
81
82
42
AD
E7
ENDCHAR
STARTCHAR 03B1
ENCODING 945
SWIDTH 1000 0
DWIDTH 12 0
BBX 6 6 3 0
BITMAP
34
58
88
90
AC
CC
ENDCHAR
STARTCHAR 03B2
ENCODING 946
SWIDTH 1000 0
DWIDTH 12 0
BBX 5 10 3 -1
BITMAP
38
48
48
B0
88
88
88
98
F0
80
ENDCHAR
STARTCHAR 03B3
ENCODING 947
SWIDTH 1000 0
DWIDTH 12 0
BBX 7 7 2 -1
BITMAP
62
94
18
18
10
10
10
ENDCHAR
STARTCHAR 03B4
ENCODING 948
SWIDTH 1000 0
DWIDTH 12 0
BBX 6 9 3 0
BITMAP
38
44
20
50
88
88
88
98
70
ENDCHAR
STARTCHAR 03B5
ENCODING 949
SWIDTH 1000 0
DWIDTH 12 0
BBX 5 6 3 0
BITMAP
78
40
70
80
88
70
ENDCHAR
STARTCHAR 03B6
ENCODING 950
SWIDTH 1000 0
DWIDTH 12 0
BBX 6 10 3 -1
BITMAP
6C
50
60
40
80
80
80
60
10
38
ENDCHAR
STARTCHAR 03B7
ENCODING 951
SWIDTH 1000 0
DWIDTH 12 0
BBX 5 7 3 -1
BITMAP
F8
68
48
48
88
10
10
ENDCHAR
STARTCHAR 03B8
ENCODING 952
SWIDTH 1000 0
DWIDTH 12 0
BBX 6 9 3 0
BITMAP
38
28
44
84
F8
88
88
90
60
ENDCHAR
STARTCHAR 03B9
ENCODING 953
SWIDTH 1000 0
DWIDTH 12 0
BBX 3 6 4 0
BITMAP
40
40
80
80
A0
E0
ENDCHAR
STARTCHAR 03BA
ENCODING 954
SWIDTH 1000 0
DWIDTH 12 0
BBX 6 6 3 0
BITMAP
6C
70
60
90
94
18
ENDCHAR
STARTCHAR 03BB
ENCODING 955
SWIDTH 1000 0
DWIDTH 12 0
BBX 6 9 3 0
BITMAP
60
10
10
10
30
50
94
94
08
ENDCHAR
STARTCHAR 03BC
ENCODING 956
SWIDTH 1000 0
DWIDTH 12 0
BBX 7 8 2 -1
BITMAP
24
26
44
44
48
CA
B6
80
ENDCHAR
STARTCHAR 03BD
ENCODING 957
SWIDTH 1000 0
DWIDTH 12 0
BBX 6 6 3 0
BITMAP
C4
44
44
48
70
40
ENDCHAR
STARTCHAR 03BE
ENCODING 958
SWIDTH 1000 0
DWIDTH 12 0
BBX 4 10 4 -1
BITMAP
D0
60
80
80
70
80
80
C0
20
E0
ENDCHAR
STARTCHAR 03BF
ENCODING 959
SWIDTH 1000 0
DWIDTH 12 0
BBX 5 6 4 0
BITMAP
70
90
88
88
90
E0
ENDCHAR
STARTCHAR 03C0
ENCODING 960
SWIDTH 1000 0
DWIDTH 12 0
BBX 6 7 3 0
BITMAP
04
FC
D0
50
50
94
18
ENDCHAR
STARTCHAR 03C1
ENCODING 961
SWIDTH 1000 0
DWIDTH 12 0
BBX 6 7 3 -1
BITMAP
38
48
84
C8
B8
80
80
ENDCHAR
STARTCHAR 03C2
ENCODING 962
SWIDTH 500 0
DWIDTH 6 0
BBX 4 7 1 -1
BITMAP
70
90
80
80
40
20
E0
ENDCHAR
STARTCHAR 03C3
ENCODING 963
SWIDTH 1000 0
DWIDTH 12 0
BBX 6 7 4 0
BITMAP
7C
90
88
88
90
90
E0
ENDCHAR
STARTCHAR 03C4
ENCODING 964
SWIDTH 1000 0
DWIDTH 12 0
BBX 6 7 3 0
BITMAP
04
FC
A0
20
40
48
30
ENDCHAR
STARTCHAR 03C5
ENCODING 965
SWIDTH 1000 0
DWIDTH 12 0
BBX 6 6 3 0
BITMAP
C8
44
44
84
88
70
ENDCHAR
STARTCHAR 03C6
ENCODING 966
SWIDTH 1000 0
DWIDTH 12 0
BBX 6 9 3 -1
BITMAP
08
10
78
94
A4
A4
A8
50
40
ENDCHAR
STARTCHAR 03C7
ENCODING 967
SWIDTH 1000 0
DWIDTH 12 0
BBX 6 7 3 -1
BITMAP
C4
28
10
20
20
54
98
ENDCHAR
STARTCHAR 03C8
ENCODING 968
SWIDTH 1000 0
DWIDTH 12 0
BBX 6 9 3 -1
BITMAP
08
10
54
94
A4
A4
A8
70
40
ENDCHAR
STARTCHAR 03C9
ENCODING 969
SWIDTH 1000 0
DWIDTH 12 0
BBX 8 7 2 0
BITMAP
22
41
89
89
92
92
6C
ENDCHAR
STARTCHAR 0401
ENCODING 1025
SWIDTH 1000 0
DWIDTH 12 0
BBX 7 9 2 1
BITMAP
24
FE
42
42
44
7C
44
42
FE
ENDCHAR
STARTCHAR 0410
ENCODING 1040
SWIDTH 1000 0
DWIDTH 12 0
BBX 10 8 1 1
BITMAP
0800
0C00
1400
1200
2200
3F00
2100
E3C0
ENDCHAR
STARTCHAR 0411
ENCODING 1041
SWIDTH 1000 0
DWIDTH 12 0
BBX 8 8 2 1
BITMAP
FE
42
42
40
7E
43
43
FE
ENDCHAR
STARTCHAR 0412
ENCODING 1042
SWIDTH 1000 0
DWIDTH 12 0
BBX 8 8 2 1
BITMAP
FC
42
42
42
7C
42
43
FE
ENDCHAR
STARTCHAR 0413
ENCODING 1043
SWIDTH 1000 0
DWIDTH 12 0
BBX 8 8 2 1
BITMAP
FF
41
41
40
40
40
40
F0
ENDCHAR
STARTCHAR 0414
ENCODING 1044
SWIDTH 1000 0
DWIDTH 12 0
BBX 8 10 2 -1
BITMAP
7F
22
22
22
42
42
82
FF
81
81
ENDCHAR
STARTCHAR 0415
ENCODING 1045
SWIDTH 1000 0
DWIDTH 12 0
BBX 7 8 2 1
BITMAP
FE
42
42
44
7C
44
42
FE
ENDCHAR
STARTCHAR 0416
ENCODING 1046
SWIDTH 1000 0
DWIDTH 12 0
BBX 10 8 1 1
BITMAP
CCC0
4900
2900
1A00
1E00
2900
4880
CCC0
ENDCHAR
STARTCHAR 0417
ENCODING 1047
SWIDTH 1000 0
DWIDTH 12 0
BBX 6 9 3 0
BITMAP
F8
84
04
0C
30
0C
04
84
F8
ENDCHAR
STARTCHAR 0418
ENCODING 1048
SWIDTH 1000 0
DWIDTH 12 0
BBX 8 8 2 1
BITMAP
E7
42
46
4A
72
42
42
E7
ENDCHAR
STARTCHAR 0419
ENCODING 1049
SWIDTH 1000 0
DWIDTH 12 0
BBX 8 9 2 1
BITMAP
3C
C3
42
46
4A
72
42
42
E7
ENDCHAR
STARTCHAR 041A
ENCODING 1050
SWIDTH 1000 0
DWIDTH 12 0
BBX 9 8 2 1
BITMAP
E300
4400
4800
5000
6800
4400
4200
E780
ENDCHAR
STARTCHAR 041B
ENCODING 1051
SWIDTH 1000 0
DWIDTH 12 0
BBX 9 9 1 0
BITMAP
3F80
1100
1100
1100
1100
1100
D100
9100
6280
ENDCHAR
STARTCHAR 041C
ENCODING 1052
SWIDTH 1000 0
DWIDTH 12 0
BBX 10 8 1 1
BITMAP
E1C0
6280
5280
5480
5480
4C80
8880
E1C0
ENDCHAR
STARTCHAR 041D
ENCODING 1053
SWIDTH 1000 0
DWIDTH 12 0
BBX 8 8 2 1
BITMAP
E7
42
42
42
7E
42
42
E7
ENDCHAR
STARTCHAR 041E
ENCODING 1054
SWIDTH 1000 0
DWIDTH 12 0
BBX 8 9 2 0
BITMAP
3C
42
81
81
81
81
83
46
3C
ENDCHAR
STARTCHAR 041F
ENCODING 1055
SWIDTH 1000 0
DWIDTH 12 0
BBX 8 8 2 1
BITMAP
FF
42
42
42
42
42
42
E7
ENDCHAR
STARTCHAR 0420
ENCODING 1056
SWIDTH 1000 0
DWIDTH 12 0
BBX 7 8 3 1
BITMAP
FC
46
42
46
7C
40
40
E0
ENDCHAR
STARTCHAR 0421
ENCODING 1057
SWIDTH 1000 0
DWIDTH 12 0
BBX 8 9 2 0
BITMAP
3F
41
80
80
80
81
C1
63
3C
ENDCHAR
STARTCHAR 0422
ENCODING 1058
SWIDTH 1000 0
DWIDTH 12 0
BBX 8 8 2 1
BITMAP
FF
91
91
10
10
10
10
3C
ENDCHAR
STARTCHAR 0423
ENCODING 1059
SWIDTH 1000 0
DWIDTH 12 0
BBX 8 9 2 0
BITMAP
E7
24
24
14
18
08
D0
90
60
ENDCHAR
STARTCHAR 0424
ENCODING 1060
SWIDTH 1000 0
DWIDTH 12 0
BBX 8 8 2 1
BITMAP
3C
3C
D2
91
91
92
7C
3C
ENDCHAR
STARTCHAR 0425
ENCODING 1061
SWIDTH 1000 0
DWIDTH 12 0
BBX 9 8 2 1
BITMAP
E700
2400
2800
1000
1800
2400
4200
E780
ENDCHAR
STARTCHAR 0426
ENCODING 1062
SWIDTH 1000 0
DWIDTH 12 0
BBX 8 10 2 -1
BITMAP
E7
42
42
42
42
42
42
FF
01
01
ENDCHAR
STARTCHAR 0427
ENCODING 1063
SWIDTH 1000 0
DWIDTH 12 0
BBX 8 8 2 1
BITMAP
E7
42
42
42
3E
02
02
07
ENDCHAR
STARTCHAR 0428
ENCODING 1064
SWIDTH 1000 0
DWIDTH 12 0
BBX 10 8 1 1
BITMAP
EDC0
4880
4880
4880
4880
4880
4880
FFC0
ENDCHAR
STARTCHAR 0429
ENCODING 1065
SWIDTH 1000 0
DWIDTH 12 0
BBX 10 10 1 -1
BITMAP
FDC0
4880
4880
4880
4880
4880
4880
FFC0
0040
0040
ENDCHAR
STARTCHAR 042A
ENCODING 1066
SWIDTH 1000 0
DWIDTH 12 0
BBX 9 8 2 1
BITMAP
F000
A000
2000
2000
3F00
2180
2180
7F00
ENDCHAR
STARTCHAR 042B
ENCODING 1067
SWIDTH 1000 0
DWIDTH 12 0
BBX 10 8 1 1
BITMAP
E1C0
4080
4080
4080
7C80
4280
4280
FDC0
ENDCHAR
STARTCHAR 042C
ENCODING 1068
SWIDTH 1000 0
DWIDTH 12 0
BBX 8 8 2 1
BITMAP
F0
40
40
40
3E
41
41
FE
ENDCHAR
STARTCHAR 042D
ENCODING 1069
SWIDTH 1000 0
DWIDTH 12 0
BBX 8 9 2 0
BITMAP
FC
82
01
7F
01
81
82
C6
3C
ENDCHAR
STARTCHAR 042E
ENCODING 1070
SWIDTH 1000 0
DWIDTH 12 0
BBX 10 9 1 0
BITMAP
E700
4880
5040
5040
7040
5040
5840
4880
A700
ENDCHAR
STARTCHAR 042F
ENCODING 1071
SWIDTH 1000 0
DWIDTH 12 0
BBX 8 8 2 1
BITMAP
3F
42
42
42
3E
12
22
C7
ENDCHAR
STARTCHAR 0430
ENCODING 1072
SWIDTH 1000 0
DWIDTH 12 0
BBX 6 6 3 0
BITMAP
78
48
38
C8
88
7C
ENDCHAR
STARTCHAR 0431
ENCODING 1073
SWIDTH 1000 0
DWIDTH 12 0
BBX 6 9 3 0
BITMAP
04
78
80
F8
84
84
84
4C
78
ENDCHAR
STARTCHAR 0432
ENCODING 1074
SWIDTH 1000 0
DWIDTH 12 0
BBX 6 5 3 1
BITMAP
F8
88
78
84
F8
ENDCHAR
STARTCHAR 0433
ENCODING 1075
SWIDTH 1000 0
DWIDTH 12 0
BBX 6 5 3 1
BITMAP
FC
44
40
40
E0
ENDCHAR
STARTCHAR 0434
ENCODING 1076
SWIDTH 1000 0
DWIDTH 12 0
BBX 6 7 3 -1
BITMAP
7C
48
48
88
FC
84
84
ENDCHAR
STARTCHAR 0435
ENCODING 1077
SWIDTH 1000 0
DWIDTH 12 0
BBX 6 6 3 0
BITMAP
78
88
FC
80
C4
78
ENDCHAR
STARTCHAR 0436
ENCODING 1078
SWIDTH 1000 0
DWIDTH 12 0
BBX 10 5 1 1
BITMAP
4C80
2B00
3E00
2900
EDC0
ENDCHAR
STARTCHAR 0437
ENCODING 1079
SWIDTH 1000 0
DWIDTH 12 0
BBX 4 6 4 0
BITMAP
F0
10
60
10
90
F0
ENDCHAR
STARTCHAR 0438
ENCODING 1080
SWIDTH 1000 0
DWIDTH 12 0
BBX 6 5 3 1
BITMAP
CC
98
A8
C8
CC
ENDCHAR
STARTCHAR 0439
ENCODING 1081
SWIDTH 1000 0
DWIDTH 12 0
BBX 6 7 3 1
BITMAP
48
30
CC
98
A8
C8
CC
ENDCHAR
STARTCHAR 043A
ENCODING 1082
SWIDTH 1000 0
DWIDTH 12 0
BBX 7 5 3 1
BITMAP
EC
50
70
48
EE
ENDCHAR
STARTCHAR 043B
ENCODING 1083
SWIDTH 1000 0
DWIDTH 12 0
BBX 7 6 2 0
BITMAP
3E
24
24
24
A4
EA
ENDCHAR
STARTCHAR 043C
ENCODING 1084
SWIDTH 1000 0
DWIDTH 12 0
BBX 8 5 2 1
BITMAP
C3
A6
AA
9A
D7
ENDCHAR
STARTCHAR 043D
ENCODING 1085
SWIDTH 1000 0
DWIDTH 12 0
BBX 6 5 3 1
BITMAP
CC
88
78
88
CC
ENDCHAR
STARTCHAR 043E
ENCODING 1086
SWIDTH 1000 0
DWIDTH 12 0
BBX 6 6 3 0
BITMAP
78
C4
84
84
CC
78
ENDCHAR
STARTCHAR 043F
ENCODING 1087
SWIDTH 1000 0
DWIDTH 12 0
BBX 6 5 3 1
BITMAP
FC
88
88
88
CC
ENDCHAR
STARTCHAR 0440
ENCODING 1088
SWIDTH 1000 0
DWIDTH 12 0
BBX 6 7 3 -1
BITMAP
B8
44
44
44
78
40
E0
ENDCHAR
STARTCHAR 0441
ENCODING 1089
SWIDTH 1000 0
DWIDTH 12 0
BBX 6 6 3 0
BITMAP
78
48
80
80
4C
78
ENDCHAR
STARTCHAR 0442
ENCODING 1090
SWIDTH 1000 0
DWIDTH 12 0
BBX 6 5 3 1
BITMAP
FC
A4
20
20
30
ENDCHAR
STARTCHAR 0443
ENCODING 1091
SWIDTH 1000 0
DWIDTH 12 0
BBX 7 7 3 -1
BITMAP
EE
48
28
30
10
20
E0
ENDCHAR
STARTCHAR 0444
ENCODING 1092
SWIDTH 1000 0
DWIDTH 12 0
BBX 6 11 3 -1
BITMAP
20
20
20
20
FC
A4
A4
A4
FC
20
30
ENDCHAR
STARTCHAR 0445
ENCODING 1093
SWIDTH 1000 0
DWIDTH 12 0
BBX 8 5 2 1
BITMAP
6E
18
18
24
E7
ENDCHAR
STARTCHAR 0446
ENCODING 1094
SWIDTH 1000 0
DWIDTH 12 0
BBX 6 7 3 -1
BITMAP
DC
88
88
88
FC
04
04
ENDCHAR
STARTCHAR 0447
ENCODING 1095
SWIDTH 1000 0
DWIDTH 12 0
BBX 6 5 3 1
BITMAP
DC
88
78
08
1C
ENDCHAR
STARTCHAR 0448
ENCODING 1096
SWIDTH 1000 0
DWIDTH 12 0
BBX 10 5 1 1
BITMAP
EDC0
4880
4880
4880
FFC0
ENDCHAR
STARTCHAR 0449
ENCODING 1097
SWIDTH 1000 0
DWIDTH 12 0
BBX 10 7 1 -1
BITMAP
EDC0
4880
4880
4880
FFC0
0040
0040
ENDCHAR
STARTCHAR 044A
ENCODING 1098
SWIDTH 1000 0
DWIDTH 12 0
BBX 6 5 3 1
BITMAP
E0
40
7C
44
FC
ENDCHAR
STARTCHAR 044B
ENCODING 1099
SWIDTH 1000 0
DWIDTH 12 0
BBX 8 5 2 1
BITMAP
E7
42
7A
46
FF
ENDCHAR
STARTCHAR 044C
ENCODING 1100
SWIDTH 1000 0
DWIDTH 12 0
BBX 6 5 3 1
BITMAP
E0
40
78
44
F8
ENDCHAR
STARTCHAR 044D
ENCODING 1101
SWIDTH 1000 0
DWIDTH 12 0
BBX 6 6 3 0
BITMAP
F8
8C
7C
04
88
78
ENDCHAR
STARTCHAR 044E
ENCODING 1102
SWIDTH 1000 0
DWIDTH 12 0
BBX 8 6 2 0
BITMAP
CE
91
71
91
91
4E
ENDCHAR
STARTCHAR 044F
ENCODING 1103
SWIDTH 1000 0
DWIDTH 12 0
BBX 6 5 3 1
BITMAP
7C
88
78
28
DC
ENDCHAR
STARTCHAR 0451
ENCODING 1105
SWIDTH 1000 0
DWIDTH 12 0
BBX 6 8 3 0
BITMAP
48
00
78
88
FC
80
C4
78
ENDCHAR
STARTCHAR 1E3E
ENCODING 7742
SWIDTH 500 0
DWIDTH 6 0
BBX 6 9 0 1
BITMAP
18
EC
58
D8
D8
B8
A8
A8
EC
ENDCHAR
STARTCHAR 1E3F
ENCODING 7743
SWIDTH 500 0
DWIDTH 6 0
BBX 6 7 0 1
BITMAP
18
20
F8
A8
A8
A8
FC
ENDCHAR
STARTCHAR 1F70
ENCODING 8048
SWIDTH 500 0
DWIDTH 6 0
BBX 5 8 1 0
BITMAP
C0
20
70
90
90
90
90
78
ENDCHAR
STARTCHAR 1F71
ENCODING 8049
SWIDTH 500 0
DWIDTH 6 0
BBX 5 8 1 0
BITMAP
30
40
70
90
90
90
90
78
ENDCHAR
STARTCHAR 1F72
ENCODING 8050
SWIDTH 500 0
DWIDTH 6 0
BBX 4 8 1 0
BITMAP
C0
20
70
80
60
80
90
F0
ENDCHAR
STARTCHAR 1F73
ENCODING 8051
SWIDTH 500 0
DWIDTH 6 0
BBX 4 8 1 0
BITMAP
30
40
70
80
60
80
90
F0
ENDCHAR
STARTCHAR 2010
ENCODING 8208
SWIDTH 1000 0
DWIDTH 12 0
BBX 4 1 4 4
BITMAP
F0
ENDCHAR
STARTCHAR 2013
ENCODING 8211
SWIDTH 500 0
DWIDTH 6 0
BBX 2 1 2 4
BITMAP
C0
ENDCHAR
STARTCHAR 2014
ENCODING 8212
SWIDTH 1000 0
DWIDTH 12 0
BBX 10 1 1 4
BITMAP
FFC0
ENDCHAR
STARTCHAR 2015
ENCODING 8213
SWIDTH 1000 0
DWIDTH 12 0
BBX 10 1 1 4
BITMAP
FFC0
ENDCHAR
STARTCHAR 2016
ENCODING 8214
SWIDTH 1000 0
DWIDTH 12 0
BBX 2 12 5 -1
BITMAP
C0
C0
C0
C0
C0
C0
C0
C0
C0
C0
C0
C0
ENDCHAR
STARTCHAR 2018
ENCODING 8216
SWIDTH 1000 0
DWIDTH 12 0
BBX 2 3 9 7
BITMAP
40
80
C0
ENDCHAR
STARTCHAR 2019
ENCODING 8217
SWIDTH 1000 0
DWIDTH 12 0
BBX 2 3 1 7
BITMAP
C0
C0
80
ENDCHAR
STARTCHAR 201C
ENCODING 8220
SWIDTH 1000 0
DWIDTH 12 0
BBX 4 3 7 7
BITMAP
D0
A0
F0
ENDCHAR
STARTCHAR 201D
ENCODING 8221
SWIDTH 1000 0
DWIDTH 12 0
BBX 4 3 1 7
BITMAP
D0
F0
A0
ENDCHAR
STARTCHAR 2020
ENCODING 8224
SWIDTH 1000 0
DWIDTH 12 0
BBX 4 11 4 -1
BITMAP
60
60
D0
F0
60
40
40
40
40
40
40
ENDCHAR
STARTCHAR 2021
ENCODING 8225
SWIDTH 1000 0
DWIDTH 12 0
BBX 4 11 4 -1
BITMAP
60
40
F0
40
40
40
40
40
F0
40
60
ENDCHAR
STARTCHAR 2022
ENCODING 8226
SWIDTH 500 0
DWIDTH 6 0
BBX 2 3 2 3
BITMAP
40
C0
C0
ENDCHAR
STARTCHAR 2025
ENCODING 8229
SWIDTH 1000 0
DWIDTH 12 0
BBX 8 2 2 4
BITMAP
C3
C3
ENDCHAR
STARTCHAR 2026
ENCODING 8230
SWIDTH 1000 0
DWIDTH 12 0
BBX 10 1 1 4
BITMAP
CCC0
ENDCHAR
STARTCHAR 2030
ENCODING 8240
SWIDTH 1000 0
DWIDTH 12 0
BBX 10 11 1 -1
BITMAP
C400
A800
A800
B000
D000
2000
2CC0
5540
5540
9540
8CC0
ENDCHAR
STARTCHAR 2032
ENCODING 8242
SWIDTH 1000 0
DWIDTH 12 0
BBX 1 3 1 7
BITMAP
80
80
80
ENDCHAR
STARTCHAR 2033
ENCODING 8243
SWIDTH 1000 0
DWIDTH 12 0
BBX 3 3 1 7
BITMAP
A0
A0
C0
ENDCHAR
STARTCHAR 203B
ENCODING 8251
SWIDTH 1000 0
DWIDTH 12 0
BBX 10 10 1 0
BITMAP
0C00
8CC0
4100
2200
D4C0
C8C0
1400
2200
4D00
8CC0
ENDCHAR
STARTCHAR 203C
ENCODING 8252
SWIDTH 500 0
DWIDTH 6 0
BBX 4 11 1 -1
BITMAP
90
90
90
90
90
90
A0
A0
00
00
90
ENDCHAR
STARTCHAR 203E
ENCODING 8254
SWIDTH 1000 0
DWIDTH 12 0
BBX 12 1 0 10
BITMAP
FFF0
ENDCHAR
STARTCHAR 203F
ENCODING 8255
SWIDTH 500 0
DWIDTH 6 0
BBX 4 1 1 -1
BITMAP
F0
ENDCHAR
STARTCHAR 2042
ENCODING 8258
SWIDTH 500 0
DWIDTH 6 0
BBX 6 7 0 1
BITMAP
70
20
30
00
FC
C8
7C
ENDCHAR
STARTCHAR 2047
ENCODING 8263
SWIDTH 500 0
DWIDTH 6 0
BBX 6 11 0 -1
BITMAP
48
B4
B4
24
48
48
48
48
00
00
48
ENDCHAR
STARTCHAR 2048
ENCODING 8264
SWIDTH 500 0
DWIDTH 6 0
BBX 5 11 0 -1
BITMAP
68
A8
A8
28
28
48
48
48
00
00
48
ENDCHAR
STARTCHAR 2049
ENCODING 8265
SWIDTH 500 0
DWIDTH 6 0
BBX 4 11 1 -1
BITMAP
B0
D0
F0
90
90
A0
A0
A0
00
00
A0
ENDCHAR
STARTCHAR 2051
ENCODING 8273
SWIDTH 1000 0
DWIDTH 12 0
BBX 4 9 4 0
BITMAP
40
F0
D0
40
00
40
D0
60
D0
ENDCHAR
STARTCHAR 20AC
ENCODING 8364
SWIDTH 500 0
DWIDTH 6 0
BBX 5 9 0 0
BITMAP
38
28
40
F0
40
F0
48
28
38
ENDCHAR
STARTCHAR 2103
ENCODING 8451
SWIDTH 1000 0
DWIDTH 12 0
BBX 10 10 1 0
BITMAP
C000
CF80
1080
2080
2000
2000
2000
20C0
1080
0F00
ENDCHAR
STARTCHAR 210F
ENCODING 8463
SWIDTH 500 0
DWIDTH 6 0
BBX 5 9 1 0
BITMAP
C0
60
40
B0
D0
90
A0
B8
10
ENDCHAR
STARTCHAR 2113
ENCODING 8467
SWIDTH 500 0
DWIDTH 6 0
BBX 6 9 0 0
BITMAP
18
28
28
48
50
60
4C
C8
30
ENDCHAR
STARTCHAR 2116
ENCODING 8470
SWIDTH 1000 0
DWIDTH 12 0
BBX 10 8 1 1
BITMAP
9800
D000
D300
B480
B480
9480
9480
9340
ENDCHAR
STARTCHAR 2121
ENCODING 8481
SWIDTH 1000 0
DWIDTH 12 0
BBX 10 8 1 1
BITMAP
F000
D000
4F80
4900
4D00
4D00
4D00
FFC0
ENDCHAR
STARTCHAR 2127
ENCODING 8487
SWIDTH 500 0
DWIDTH 6 0
BBX 4 9 1 0
BITMAP
F0
F0
90
90
90
90
90
90
60
ENDCHAR
STARTCHAR 212B
ENCODING 8491
SWIDTH 1000 0
DWIDTH 12 0
BBX 8 9 2 1
BITMAP
38
18
10
28
28
44
3C
42
C7
ENDCHAR
STARTCHAR 2135
ENCODING 8501
SWIDTH 500 0
DWIDTH 6 0
BBX 6 9 0 0
BITMAP
D0
48
54
30
50
90
88
48
88
ENDCHAR
STARTCHAR 2153
ENCODING 8531
SWIDTH 500 0
DWIDTH 6 0
BBX 6 11 0 -1
BITMAP
C8
48
50
50
60
98
28
48
44
84
98
ENDCHAR
STARTCHAR 2154
ENCODING 8532
SWIDTH 500 0
DWIDTH 6 0
BBX 6 11 0 -1
BITMAP
48
A8
48
50
B0
E0
38
48
44
44
98
ENDCHAR
STARTCHAR 2155
ENCODING 8533
SWIDTH 500 0
DWIDTH 6 0
BBX 6 11 0 -1
BITMAP
C8
48
50
50
60
98
30
58
44
84
98
ENDCHAR
STARTCHAR 2160
ENCODING 8544
SWIDTH 1000 0
DWIDTH 12 0
BBX 4 8 4 1
BITMAP
F0
40
40
40
40
40
40
F0
ENDCHAR
STARTCHAR 2161
ENCODING 8545
SWIDTH 1000 0
DWIDTH 12 0
BBX 8 8 2 1
BITMAP
FF
44
44
44
44
44
44
FF
ENDCHAR
STARTCHAR 2162
ENCODING 8546
SWIDTH 1000 0
DWIDTH 12 0
BBX 10 8 1 1
BITMAP
FFC0
4880
4880
4880
4880
4880
4880
FFC0
ENDCHAR
STARTCHAR 2163
ENCODING 8547
SWIDTH 1000 0
DWIDTH 12 0
BBX 10 8 1 1
BITMAP
FCC0
4880
4880
4480
4500
4500
4200
E200
ENDCHAR
STARTCHAR 2164
ENCODING 8548
SWIDTH 1000 0
DWIDTH 12 0
BBX 8 9 2 0
BITMAP
E7
42
42
24
24
18
18
18
10
ENDCHAR
STARTCHAR 2165
ENCODING 8549
SWIDTH 1000 0
DWIDTH 12 0
BBX 10 8 1 1
BITMAP
E7C0
4480
4480
4880
2880
2880
3080
11C0
ENDCHAR
STARTCHAR 2166
ENCODING 8550
SWIDTH 1000 0
DWIDTH 12 0
BBX 11 8 0 1
BITMAP
E7E0
4540
2540
2940
2940
1940
1940
11E0
ENDCHAR
STARTCHAR 2167
ENCODING 8551
SWIDTH 1000 0
DWIDTH 12 0
BBX 11 8 0 1
BITMAP
EFE0
45A0
29A0
29A0
29A0
31A0
11A0
13E0
ENDCHAR
STARTCHAR 2168
ENCODING 8552
SWIDTH 1000 0
DWIDTH 12 0
BBX 10 8 1 1
BITMAP
FDC0
4900
4500
4200
4500
4500
4880
FDC0
ENDCHAR
STARTCHAR 2169
ENCODING 8553
SWIDTH 1000 0
DWIDTH 12 0
BBX 9 8 2 1
BITMAP
E700
2400
2800
1000
1800
2400
4200
E780
ENDCHAR
STARTCHAR 216A
ENCODING 8554
SWIDTH 1000 0
DWIDTH 12 0
BBX 10 8 1 1
BITMAP
EFC0
4880
2880
3080
1080
2880
4880
EFC0
ENDCHAR
STARTCHAR 216B
ENCODING 8555
SWIDTH 1000 0
DWIDTH 12 0
BBX 11 8 0 1
BITMAP
7FE0
2940
1940
1140
1940
2940
4540
E7E0
ENDCHAR
STARTCHAR 2170
ENCODING 8560
SWIDTH 1000 0
DWIDTH 12 0
BBX 2 8 5 1
BITMAP
C0
00
80
80
80
80
80
C0
ENDCHAR
STARTCHAR 2171
ENCODING 8561
SWIDTH 1000 0
DWIDTH 12 0
BBX 6 8 3 1
BITMAP
CC
00
48
C8
48
48
48
EC
ENDCHAR
STARTCHAR 2172
ENCODING 8562
SWIDTH 1000 0
DWIDTH 12 0
BBX 8 8 2 1
BITMAP
DB
00
92
92
92
92
92
FF
ENDCHAR
STARTCHAR 2173
ENCODING 8563
SWIDTH 1000 0
DWIDTH 12 0
BBX 9 8 2 1
BITMAP
4000
0000
0000
FB80
4900
4A00
4A00
E400
ENDCHAR
STARTCHAR 2174
ENCODING 8564
SWIDTH 1000 0
DWIDTH 12 0
BBX 6 6 3 0
BITMAP
CC
48
48
30
30
20
ENDCHAR
STARTCHAR 2175
ENCODING 8565
SWIDTH 1000 0
DWIDTH 12 0
BBX 9 8 1 1
BITMAP
0180
0000
0000
EF00
4900
2900
3100
1180
ENDCHAR
STARTCHAR 2176
ENCODING 8566
SWIDTH 1000 0
DWIDTH 12 0
BBX 10 8 1 1
BITMAP
02C0
0000
0000
CE80
4A80
5280
3280
27C0
ENDCHAR
STARTCHAR 2177
ENCODING 8567
SWIDTH 1000 0
DWIDTH 12 0
BBX 12 8 0 1
BITMAP
02A0
0000
0000
EFE0
4AA0
2AA0
32A0
13F0
ENDCHAR
STARTCHAR 2178
ENCODING 8568
SWIDTH 1000 0
DWIDTH 12 0
BBX 9 8 2 1
BITMAP
4000
0000
0000
DB00
4A00
4400
4A00
FB80
ENDCHAR
STARTCHAR 2179
ENCODING 8569
SWIDTH 1000 0
DWIDTH 12 0
BBX 8 5 2 1
BITMAP
6E
18
18
24
E7
ENDCHAR
STARTCHAR 217A
ENCODING 8570
SWIDTH 1000 0
DWIDTH 12 0
BBX 9 8 1 1
BITMAP
0180
0000
0000
6D00
3100
1100
2900
EF80
ENDCHAR
STARTCHAR 217B
ENCODING 8571
SWIDTH 1000 0
DWIDTH 12 0
BBX 10 8 1 1
BITMAP
02C0
0000
0000
FE80
3280
3280
5280
DFC0
ENDCHAR
STARTCHAR 2190
ENCODING 8592
SWIDTH 1000 0
DWIDTH 12 0
BBX 10 5 1 2
BITMAP
2000
C000
FFC0
8000
6000
ENDCHAR
STARTCHAR 2191
ENCODING 8593
SWIDTH 1000 0
DWIDTH 12 0
BBX 4 11 4 -1
BITMAP
40
60
D0
D0
40
40
40
40
40
40
40
ENDCHAR
STARTCHAR 2192
ENCODING 8594
SWIDTH 1000 0
DWIDTH 12 0
BBX 10 5 1 2
BITMAP
0100
0080
FFC0
0080
0100
ENDCHAR
STARTCHAR 2193
ENCODING 8595
SWIDTH 1000 0
DWIDTH 12 0
BBX 4 11 4 -1
BITMAP
40
40
40
40
40
40
40
D0
D0
60
40
ENDCHAR
STARTCHAR 2194
ENCODING 8596
SWIDTH 500 0
DWIDTH 6 0
BBX 6 5 0 2
BITMAP
48
48
FC
48
48
ENDCHAR
STARTCHAR 2196
ENCODING 8598
SWIDTH 500 0
DWIDTH 6 0
BBX 4 9 1 0
BITMAP
40
F0
C0
C0
20
20
10
10
10
ENDCHAR
STARTCHAR 2197
ENCODING 8599
SWIDTH 500 0
DWIDTH 6 0
BBX 4 9 1 0
BITMAP
20
F0
30
50
40
80
80
80
80
ENDCHAR
STARTCHAR 2198
ENCODING 8600
SWIDTH 500 0
DWIDTH 6 0
BBX 4 9 1 0
BITMAP
80
80
80
80
40
50
B0
70
20
ENDCHAR
STARTCHAR 2199
ENCODING 8601
SWIDTH 500 0
DWIDTH 6 0
BBX 4 9 1 0
BITMAP
10
10
20
20
20
C0
D0
E0
40
ENDCHAR
STARTCHAR 21C4
ENCODING 8644
SWIDTH 500 0
DWIDTH 6 0
BBX 4 9 1 0
BITMAP
20
10
F0
20
00
40
F0
80
40
ENDCHAR
STARTCHAR 21D2
ENCODING 8658
SWIDTH 1000 0
DWIDTH 12 0
BBX 10 8 1 0
BITMAP
0200
0100
FF80
0040
0040
FF80
0100
0200
ENDCHAR
STARTCHAR 21D4
ENCODING 8660
SWIDTH 1000 0
DWIDTH 12 0
BBX 10 8 1 0
BITMAP
2200
2100
7F80
8040
8040
7F80
2100
2200
ENDCHAR
STARTCHAR 21E6
ENCODING 8678
SWIDTH 500 0
DWIDTH 6 0
BBX 4 3 1 3
BITMAP
40
B0
60
ENDCHAR
STARTCHAR 21E7
ENCODING 8679
SWIDTH 500 0
DWIDTH 6 0
BBX 4 9 1 0
BITMAP
40
A0
90
60
60
60
60
60
60
ENDCHAR
STARTCHAR 21E8
ENCODING 8680
SWIDTH 500 0
DWIDTH 6 0
BBX 4 3 1 3
BITMAP
20
D0
60
ENDCHAR
STARTCHAR 21E9
ENCODING 8681
SWIDTH 500 0
DWIDTH 6 0
BBX 4 9 1 0
BITMAP
60
60
60
60
60
60
90
A0
60
ENDCHAR
STARTCHAR 2200
ENCODING 8704
SWIDTH 1000 0
DWIDTH 12 0
BBX 10 10 1 -1
BITMAP
8040
8080
4080
3F00
2100
2200
1200
1400
0C00
0800
ENDCHAR
STARTCHAR 2202
ENCODING 8706
SWIDTH 1000 0
DWIDTH 12 0
BBX 6 9 3 0
BITMAP
38
0C
04
74
4C
84
88
88
70
ENDCHAR
STARTCHAR 2203
ENCODING 8707
SWIDTH 1000 0
DWIDTH 12 0
BBX 8 9 2 0
BITMAP
FF
01
01
01
FF
01
01
01
FF
ENDCHAR
STARTCHAR 2205
ENCODING 8709
SWIDTH 500 0
DWIDTH 6 0
BBX 4 7 1 1
BITMAP
10
60
B0
D0
D0
E0
80
ENDCHAR
STARTCHAR 2207
ENCODING 8711
SWIDTH 1000 0
DWIDTH 12 0
BBX 10 9 1 0
BITMAP
FFC0
4080
4100
2100
2200
1200
1400
0C00
0800
ENDCHAR
STARTCHAR 2208
ENCODING 8712
SWIDTH 1000 0
DWIDTH 12 0
BBX 10 9 1 0
BITMAP
1FC0
6000
4000
8000
FFC0
8000
4000
6000
1FC0
ENDCHAR
STARTCHAR 2209
ENCODING 8713
SWIDTH 500 0
DWIDTH 6 0
BBX 4 8 1 1
BITMAP
20
70
A0
A0
F0
C0
C0
70
ENDCHAR
STARTCHAR 220B
ENCODING 8715
SWIDTH 1000 0
DWIDTH 12 0
BBX 10 9 1 0
BITMAP
FE00
0100
0080
0080
FFC0
0080
0080
0180
FE00
ENDCHAR
STARTCHAR 2212
ENCODING 8722
SWIDTH 500 0
DWIDTH 6 0
BBX 4 1 1 4
BITMAP
F0
ENDCHAR
STARTCHAR 2213
ENCODING 8723
SWIDTH 500 0
DWIDTH 6 0
BBX 4 8 1 0
BITMAP
F0
40
40
40
F0
40
40
40
ENDCHAR
STARTCHAR 221A
ENCODING 8730
SWIDTH 1000 0
DWIDTH 12 0
BBX 12 12 0 -1
BITMAP
03F0
0400
0400
0400
0800
0800
1000
5000
5000
E000
2000
2000
ENDCHAR
STARTCHAR 221D
ENCODING 8733
SWIDTH 1000 0
DWIDTH 12 0
BBX 10 3 1 3
BITMAP
F3C0
8C00
F7C0
ENDCHAR
STARTCHAR 221E
ENCODING 8734
SWIDTH 1000 0
DWIDTH 12 0
BBX 10 5 1 2
BITMAP
7380
8C40
8840
8C40
7380
ENDCHAR
STARTCHAR 221F
ENCODING 8735
SWIDTH 1000 0
DWIDTH 12 0
BBX 9 10 2 0
BITMAP
8000
8000
8000
8000
8000
8000
8000
8000
8000
FF80
ENDCHAR
STARTCHAR 2220
ENCODING 8736
SWIDTH 1000 0
DWIDTH 12 0
BBX 10 10 1 0
BITMAP
0040
0080
0100
0200
0400
0800
1000
2000
4000
FFC0
ENDCHAR
STARTCHAR 2225
ENCODING 8741
SWIDTH 1000 0
DWIDTH 12 0
BBX 6 11 3 -1
BITMAP
14
18
28
28
30
50
50
60
A0
A0
C0
ENDCHAR
STARTCHAR 2226
ENCODING 8742
SWIDTH 500 0
DWIDTH 6 0
BBX 6 11 0 -1
BITMAP
14
18
28
68
30
70
50
58
A0
A0
A0
ENDCHAR
STARTCHAR 2227
ENCODING 8743
SWIDTH 1000 0
DWIDTH 12 0
BBX 10 10 1 0
BITMAP
0800
0C00
1400
1200
2200
2100
4100
4080
8080
8040
ENDCHAR
STARTCHAR 2228
ENCODING 8744
SWIDTH 1000 0
DWIDTH 12 0
BBX 10 10 1 -1
BITMAP
8040
8080
4080
4100
2100
2200
1200
1400
0C00
0800
ENDCHAR
STARTCHAR 2229
ENCODING 8745
SWIDTH 1000 0
DWIDTH 12 0
BBX 8 9 2 0
BITMAP
3C
42
81
81
81
81
81
81
81
ENDCHAR
STARTCHAR 222A
ENCODING 8746
SWIDTH 1000 0
DWIDTH 12 0
BBX 8 9 2 0
BITMAP
81
81
81
81
81
81
81
42
3C
ENDCHAR
STARTCHAR 222B
ENCODING 8747
SWIDTH 1000 0
DWIDTH 12 0
BBX 6 11 3 -1
BITMAP
0C
14
10
10
20
20
20
20
20
A0
C0
ENDCHAR
STARTCHAR 222C
ENCODING 8748
SWIDTH 1000 0
DWIDTH 12 0
BBX 10 11 1 -1
BITMAP
0CC0
1540
1100
1200
1200
2200
2200
2200
2200
AA00
CC00
ENDCHAR
STARTCHAR 222E
ENCODING 8750
SWIDTH 1000 0
DWIDTH 12 0
BBX 6 11 3 -1
BITMAP
0C
14
10
20
70
68
70
20
20
A0
C0
ENDCHAR
STARTCHAR 2234
ENCODING 8756
SWIDTH 1000 0
DWIDTH 12 0
BBX 8 8 2 1
BITMAP
18
18
00
00
00
00
C3
C3
ENDCHAR
STARTCHAR 2235
ENCODING 8757
SWIDTH 1000 0
DWIDTH 12 0
BBX 8 8 2 1
BITMAP
C3
C3
00
00
00
00
18
18
ENDCHAR
STARTCHAR 223D
ENCODING 8765
SWIDTH 1000 0
DWIDTH 12 0
BBX 10 5 1 2
BITMAP
6380
8440
8840
8840
7180
ENDCHAR
STARTCHAR 2243
ENCODING 8771
SWIDTH 500 0
DWIDTH 6 0
BBX 4 4 1 2
BITMAP
F0
00
00
F0
ENDCHAR
STARTCHAR 2245
ENCODING 8773
SWIDTH 500 0
DWIDTH 6 0
BBX 4 5 1 2
BITMAP
C0
B0
00
F0
F0
ENDCHAR
STARTCHAR 2248
ENCODING 8776
SWIDTH 500 0
DWIDTH 6 0
BBX 4 4 1 2
BITMAP
F0
00
D0
30
ENDCHAR
STARTCHAR 2252
ENCODING 8786
SWIDTH 1000 0
DWIDTH 12 0
BBX 8 7 2 1
BITMAP
60
00
FF
00
FF
00
06
ENDCHAR
STARTCHAR 2260
ENCODING 8800
SWIDTH 1000 0
DWIDTH 12 0
BBX 8 9 2 0
BITMAP
04
04
08
FF
10
FF
20
20
40
ENDCHAR
STARTCHAR 2261
ENCODING 8801
SWIDTH 1000 0
DWIDTH 12 0
BBX 8 5 2 2
BITMAP
FF
00
FF
00
FF
ENDCHAR
STARTCHAR 2262
ENCODING 8802
SWIDTH 500 0
DWIDTH 6 0
BBX 4 7 1 1
BITMAP
30
F0
20
F0
40
F0
80
ENDCHAR
STARTCHAR 2266
ENCODING 8806
SWIDTH 1000 0
DWIDTH 12 0
BBX 8 10 2 0
BITMAP
01
0E
70
C0
38
07
00
FF
00
FF
ENDCHAR
STARTCHAR 2267
ENCODING 8807
SWIDTH 1000 0
DWIDTH 12 0
BBX 8 10 2 0
BITMAP
80
70
0E
03
1C
E0
00
FF
00
FF
ENDCHAR
STARTCHAR 226A
ENCODING 8810
SWIDTH 1000 0
DWIDTH 12 0
BBX 10 11 1 -1
BITMAP
02C0
0D00
1200
2400
4800
B000
5800
2400
1200
0900
06C0
ENDCHAR
STARTCHAR 226B
ENCODING 8811
SWIDTH 1000 0
DWIDTH 12 0
BBX 10 11 1 -1
BITMAP
D000
2800
1600
0900
0480
0240
0480
0900
1200
2C00
D000
ENDCHAR
STARTCHAR 2276
ENCODING 8822
SWIDTH 500 0
DWIDTH 6 0
BBX 4 9 1 0
BITMAP
10
20
C0
40
B0
60
10
60
80
ENDCHAR
STARTCHAR 2277
ENCODING 8823
SWIDTH 500 0
DWIDTH 6 0
BBX 4 9 1 0
BITMAP
80
40
30
20
D0
60
80
60
10
ENDCHAR
STARTCHAR 2282
ENCODING 8834
SWIDTH 1000 0
DWIDTH 12 0
BBX 10 9 1 0
BITMAP
1FC0
6000
4000
8000
8000
8000
4000
6000
1FC0
ENDCHAR
STARTCHAR 2283
ENCODING 8835
SWIDTH 1000 0
DWIDTH 12 0
BBX 10 9 1 0
BITMAP
FE00
0100
0080
0080
0040
0080
0080
0180
FE00
ENDCHAR
STARTCHAR 2284
ENCODING 8836
SWIDTH 500 0
DWIDTH 6 0
BBX 4 8 1 1
BITMAP
20
70
A0
A0
C0
C0
C0
70
ENDCHAR
STARTCHAR 2285
ENCODING 8837
SWIDTH 500 0
DWIDTH 6 0
BBX 4 9 1 0
BITMAP
20
E0
30
50
50
50
50
E0
80
ENDCHAR
STARTCHAR 2286
ENCODING 8838
SWIDTH 1000 0
DWIDTH 12 0
BBX 10 9 1 0
BITMAP
3FC0
4000
8000
8000
4000
3FC0
0000
0000
FFC0
ENDCHAR
STARTCHAR 2287
ENCODING 8839
SWIDTH 1000 0
DWIDTH 12 0
BBX 10 9 1 0
BITMAP
FF00
0080
0040
0040
0080
FF00
0000
0000
FFC0
ENDCHAR
STARTCHAR 228A
ENCODING 8842
SWIDTH 500 0
DWIDTH 6 0
BBX 4 8 1 0
BITMAP
70
80
80
80
80
70
F0
40
ENDCHAR
STARTCHAR 228B
ENCODING 8843
SWIDTH 500 0
DWIDTH 6 0
BBX 4 8 1 0
BITMAP
E0
10
10
10
10
E0
F0
40
ENDCHAR
STARTCHAR 2295
ENCODING 8853
SWIDTH 500 0
DWIDTH 6 0
BBX 6 5 0 2
BITMAP
78
A4
FC
A8
78
ENDCHAR
STARTCHAR 2296
ENCODING 8854
SWIDTH 500 0
DWIDTH 6 0
BBX 6 5 0 2
BITMAP
78
88
FC
84
78
ENDCHAR
STARTCHAR 2297
ENCODING 8855
SWIDTH 500 0
DWIDTH 6 0
BBX 6 5 0 2
BITMAP
78
D8
B4
B4
78
ENDCHAR
STARTCHAR 22A5
ENCODING 8869
SWIDTH 1000 0
DWIDTH 12 0
BBX 10 10 1 0
BITMAP
0800
0800
0800
0800
0800
0800
0800
0800
0800
FFC0
ENDCHAR
STARTCHAR 22BF
ENCODING 8895
SWIDTH 1000 0
DWIDTH 12 0
BBX 10 10 1 0
BITMAP
0040
00C0
0140
0240
0440
0840
1040
2040
4040
FFC0
ENDCHAR
STARTCHAR 22DA
ENCODING 8922
SWIDTH 500 0
DWIDTH 6 0
BBX 4 9 1 0
BITMAP
30
C0
60
10
F0
80
40
30
E0
ENDCHAR
STARTCHAR 22DB
ENCODING 8923
SWIDTH 500 0
DWIDTH 6 0
BBX 4 9 1 0
BITMAP
C0
30
60
80
F0
10
20
C0
70
ENDCHAR
STARTCHAR 2305
ENCODING 8965
SWIDTH 500 0
DWIDTH 6 0
BBX 4 6 1 1
BITMAP
F0
40
60
A0
90
90
ENDCHAR
STARTCHAR 2306
ENCODING 8966
SWIDTH 500 0
DWIDTH 6 0
BBX 4 7 1 1
BITMAP
F0
00
F0
40
60
A0
90
ENDCHAR
STARTCHAR 2312
ENCODING 8978
SWIDTH 1000 0
DWIDTH 12 0
BBX 12 3 0 7
BITMAP
1F80
6060
8010
ENDCHAR
STARTCHAR 2318
ENCODING 8984
SWIDTH 1000 0
DWIDTH 12 0
BBX 10 11 1 -1
BITMAP
C0C0
A140
A140
FFC0
2100
2100
2100
FFC0
A140
A140
C0C0
ENDCHAR
STARTCHAR 23BE
ENCODING 9150
SWIDTH 1000 0
DWIDTH 12 0
BBX 6 12 6 -1
BITMAP
FC
80
80
80
80
80
80
80
80
80
80
80
ENDCHAR
STARTCHAR 23BF
ENCODING 9151
SWIDTH 1000 0
DWIDTH 12 0
BBX 6 12 6 -1
BITMAP
80
80
80
80
80
80
80
80
80
80
80
FC
ENDCHAR
STARTCHAR 23C0
ENCODING 9152
SWIDTH 1000 0
DWIDTH 12 0
BBX 10 12 1 -1
BITMAP
0800
0C00
3B00
4880
8880
8840
8840
8880
4880
2900
1E00
0800
ENDCHAR
STARTCHAR 23C1
ENCODING 9153
SWIDTH 1000 0
DWIDTH 12 0
BBX 12 12 0 -1
BITMAP
FFF0
0400
0F00
34C0
4440
4440
4420
4440
2440
1480
0F00
0400
ENDCHAR
STARTCHAR 23C2
ENCODING 9154
SWIDTH 1000 0
DWIDTH 12 0
BBX 12 12 0 -1
BITMAP
0400
0600
1D80
2440
4440
4420
4440
4440
2440
1D80
0600
FFF0
ENDCHAR
STARTCHAR 23C3
ENCODING 9155
SWIDTH 1000 0
DWIDTH 12 0
BBX 10 12 1 -1
BITMAP
0800
0800
0C00
1C00
1A00
2A00
2900
4900
4880
8880
FFC0
0800
ENDCHAR
STARTCHAR 23C4
ENCODING 9156
SWIDTH 1000 0
DWIDTH 12 0
BBX 12 12 0 -1
BITMAP
FFF0
0400
0400
0600
0D00
1500
1480
2480
2440
4440
7FE0
0400
ENDCHAR
STARTCHAR 23C5
ENCODING 9157
SWIDTH 1000 0
DWIDTH 12 0
BBX 12 12 0 -1
BITMAP
0400
0400
0600
0E00
0D00
1500
1480
2480
2440
4440
7FE0
FFF0
ENDCHAR
STARTCHAR 23C6
ENCODING 9158
SWIDTH 1000 0
DWIDTH 12 0
BBX 10 12 1 -1
BITMAP
0800
0800
0800
0800
0800
F800
07C0
0800
0800
0800
0800
0800
ENDCHAR
STARTCHAR 23C7
ENCODING 9159
SWIDTH 1000 0
DWIDTH 12 0
BBX 12 12 0 -1
BITMAP
FFF0
0400
0400
0400
0400
7C00
0220
05C0
0400
0400
0400
0400
ENDCHAR
STARTCHAR 23C8
ENCODING 9160
SWIDTH 1000 0
DWIDTH 12 0
BBX 12 12 0 -1
BITMAP
0400
0400
0400
0400
3C00
C400
07E0
0400
0400
0400
0400
FFF0
ENDCHAR
STARTCHAR 23C9
ENCODING 9161
SWIDTH 1000 0
DWIDTH 12 0
BBX 12 12 0 -1
BITMAP
FFF0
0400
0400
0400
0400
0400
0400
0400
0400
0400
0400
0400
ENDCHAR
STARTCHAR 23CA
ENCODING 9162
SWIDTH 1000 0
DWIDTH 12 0
BBX 12 12 0 -1
BITMAP
0400
0400
0400
0400
0400
0400
0400
0400
0400
0400
0400
FFF0
ENDCHAR
STARTCHAR 23CB
ENCODING 9163
SWIDTH 1000 0
DWIDTH 12 0
BBX 6 12 0 -1
BITMAP
FC
04
04
04
04
04
04
04
04
04
04
04
ENDCHAR
STARTCHAR 23CC
ENCODING 9164
SWIDTH 1000 0
DWIDTH 12 0
BBX 6 12 0 -1
BITMAP
04
04
04
04
04
04
04
04
04
04
04
FC
ENDCHAR
STARTCHAR 23CE
ENCODING 9166
SWIDTH 1000 0
DWIDTH 12 0
BBX 10 10 1 -1
BITMAP
03C0
0240
0240
1240
3240
5E40
8040
5F80
3000
1000
ENDCHAR
STARTCHAR 2423
ENCODING 9251
SWIDTH 1000 0
DWIDTH 12 0
BBX 10 2 1 0
BITMAP
8040
FFC0
ENDCHAR
STARTCHAR 2460
ENCODING 9312
SWIDTH 1000 0
DWIDTH 12 0
BBX 10 11 1 -1
BITMAP
1E00
6180
8840
8840
8840
8840
8840
8840
8480
6A80
1F00
ENDCHAR
STARTCHAR 2461
ENCODING 9313
SWIDTH 1000 0
DWIDTH 12 0
BBX 10 11 1 -1
BITMAP
3F00
CF80
9240
9240
8240
8440
8A40
9240
9E80
6080
1F00
ENDCHAR
STARTCHAR 2462
ENCODING 9314
SWIDTH 1000 0
DWIDTH 12 0
BBX 10 11 1 -1
BITMAP
1E00
6180
9E40
9240
8240
8C40
8240
9140
A280
5E80
3F00
ENDCHAR
STARTCHAR 2463
ENCODING 9315
SWIDTH 1000 0
DWIDTH 12 0
BBX 10 11 1 -1
BITMAP
1E00
6100
8480
8C40
9440
A440
BF40
8440
8440
6A80
1F00
ENDCHAR
STARTCHAR 2464
ENCODING 9316
SWIDTH 1000 0
DWIDTH 12 0
BBX 10 11 1 -1
BITMAP
1E00
6180
9E80
9040
9040
AE40
9240
9140
A240
5E80
3F00
ENDCHAR
STARTCHAR 2465
ENCODING 9317
SWIDTH 1000 0
DWIDTH 12 0
BBX 10 11 1 -1
BITMAP
1E00
6180
8E40
9240
9040
9E40
A240
9240
8E80
6080
1F00
ENDCHAR
STARTCHAR 2466
ENCODING 9318
SWIDTH 1000 0
DWIDTH 12 0
BBX 10 11 1 -1
BITMAP
1E00
6180
9F80
A240
A240
8440
8440
8440
8840
4880
3F00
ENDCHAR
STARTCHAR 2467
ENCODING 9319
SWIDTH 1000 0
DWIDTH 12 0
BBX 10 11 1 -1
BITMAP
1E00
6180
9E40
9240
9240
8C40
B240
A340
9E80
6080
1F00
ENDCHAR
STARTCHAR 2468
ENCODING 9320
SWIDTH 1000 0
DWIDTH 12 0
BBX 10 11 1 -1
BITMAP
1E00
6180
9C40
9240
9240
9E40
8240
9240
9C80
6080
1F00
ENDCHAR
STARTCHAR 2469
ENCODING 9321
SWIDTH 1000 0
DWIDTH 12 0
BBX 10 11 1 -1
BITMAP
1E00
6180
A780
A540
A540
A940
A540
A540
A740
7080
1F00
ENDCHAR
STARTCHAR 246A
ENCODING 9322
SWIDTH 1000 0
DWIDTH 12 0
BBX 10 11 1 -1
BITMAP
1E00
6180
A280
A240
A240
A240
A240
A240
A140
7280
1F00
ENDCHAR
STARTCHAR 246B
ENCODING 9323
SWIDTH 1000 0
DWIDTH 12 0
BBX 10 11 1 -1
BITMAP
3F00
4180
A740
A540
A140
A240
A440
A540
B780
6080
1F00
ENDCHAR
STARTCHAR 246C
ENCODING 9324
SWIDTH 1000 0
DWIDTH 12 0
BBX 10 11 1 -1
BITMAP
1E00
6180
A740
A540
A140
A240
A140
A540
A780
5080
3F00
ENDCHAR
STARTCHAR 246D
ENCODING 9325
SWIDTH 1000 0
DWIDTH 12 0
BBX 10 11 1 -1
BITMAP
1E00
6180
A280
A640
A640
AA40
AFC0
A240
A140
7280
1F00
ENDCHAR
STARTCHAR 246E
ENCODING 9326
SWIDTH 1000 0
DWIDTH 12 0
BBX 10 11 1 -1
BITMAP
1E00
6180
A780
A840
A840
A740
A140
A540
A780
7080
1F00
ENDCHAR
STARTCHAR 246F
ENCODING 9327
SWIDTH 1000 0
DWIDTH 12 0
BBX 10 11 1 -1
BITMAP
1E00
6180
A380
A540
A840
A740
A940
A540
A740
7080
1F00
ENDCHAR
STARTCHAR 2470
ENCODING 9328
SWIDTH 1000 0
DWIDTH 12 0
BBX 10 11 1 -1
BITMAP
1E00
6180
A780
A940
A140
A240
A240
A240
A280
7080
1F00
ENDCHAR
STARTCHAR 2471
ENCODING 9329
SWIDTH 1000 0
DWIDTH 12 0
BBX 10 11 1 -1
BITMAP
1E00
6180
A780
A540
A540
A240
AD40
A940
A740
7080
1F00
ENDCHAR
STARTCHAR 2472
ENCODING 9330
SWIDTH 1000 0
DWIDTH 12 0
BBX 10 11 1 -1
BITMAP
1E00
6180
A780
A940
A940
A740
A140
A540
A640
7080
1F00
ENDCHAR
STARTCHAR 2473
ENCODING 9331
SWIDTH 1000 0
DWIDTH 12 0
BBX 10 11 1 -1
BITMAP
3F00
4180
B340
ED40
94C0
94C0
A4C0
CD40
7B80
6080
1F00
ENDCHAR
STARTCHAR 24D0
ENCODING 9424
SWIDTH 1000 0
DWIDTH 12 0
BBX 10 11 1 -1
BITMAP
1E00
6180
8040
9C40
9240
9E40
9240
9F40
8080
6080
1F00
ENDCHAR
STARTCHAR 24D1
ENCODING 9425
SWIDTH 1000 0
DWIDTH 12 0
BBX 10 11 1 -1
BITMAP
1E00
6180
9040
9040
9E40
9140
9140
9140
9E80
6080
1F00
ENDCHAR
STARTCHAR 24D2
ENCODING 9426
SWIDTH 1000 0
DWIDTH 12 0
BBX 10 11 1 -1
BITMAP
1E00
6180
8040
8C40
9240
9040
9240
8C40
8080
6080
1F00
ENDCHAR
STARTCHAR 24D3
ENCODING 9427
SWIDTH 1000 0
DWIDTH 12 0
BBX 10 11 1 -1
BITMAP
1E00
6180
8640
8240
9E40
9240
A240
A240
9E80
6080
1F00
ENDCHAR
STARTCHAR 24D4
ENCODING 9428
SWIDTH 1000 0
DWIDTH 12 0
BBX 10 11 1 -1
BITMAP
1E00
6180
8080
9E40
9240
AC40
9240
8C40
8080
6080
1F00
ENDCHAR
STARTCHAR 24D5
ENCODING 9429
SWIDTH 1000 0
DWIDTH 12 0
BBX 10 11 1 -1
BITMAP
1E00
6180
8E40
8840
9C40
8840
8840
8840
8880
6480
1F00
ENDCHAR
STARTCHAR 24D6
ENCODING 9430
SWIDTH 1000 0
DWIDTH 12 0
BBX 10 11 1 -1
BITMAP
1E00
6180
8F40
9240
9440
9840
9E40
A240
9E80
6080
1F00
ENDCHAR
STARTCHAR 24D7
ENCODING 9431
SWIDTH 1000 0
DWIDTH 12 0
BBX 10 11 1 -1
BITMAP
1E00
6100
9080
9040
9E40
9240
9240
9240
9240
4980
3F00
ENDCHAR
STARTCHAR 24D8
ENCODING 9432
SWIDTH 1000 0
DWIDTH 12 0
BBX 10 11 1 -1
BITMAP
1E00
6100
8C80
8040
8840
8840
8840
8840
8840
4480
3F00
ENDCHAR
STARTCHAR 24D9
ENCODING 9433
SWIDTH 1000 0
DWIDTH 12 0
BBX 10 11 1 -1
BITMAP
1E00
6580
8040
8440
8C40
8440
8440
8440
9480
7880
1F00
ENDCHAR
STARTCHAR 24DA
ENCODING 9434
SWIDTH 1000 0
DWIDTH 12 0
BBX 10 11 1 -1
BITMAP
1E00
6180
9040
9040
9740
9440
9C40
9440
9280
4980
3F00
ENDCHAR
STARTCHAR 24DB
ENCODING 9435
SWIDTH 1000 0
DWIDTH 12 0
BBX 10 11 1 -1
BITMAP
1E00
6100
8880
8840
8840
8840
8840
8840
8840
4480
3F00
ENDCHAR
STARTCHAR 24DC
ENCODING 9436
SWIDTH 1000 0
DWIDTH 12 0
BBX 10 11 1 -1
BITMAP
1E00
6100
8080
FB40
A540
A540
A540
A540
D8C0
4080
3F00
ENDCHAR
STARTCHAR 24DD
ENCODING 9437
SWIDTH 1000 0
DWIDTH 12 0
BBX 10 11 1 -1
BITMAP
1E00
6100
8080
9E40
9240
9240
9240
9240
8940
4080
3F00
ENDCHAR
STARTCHAR 24DE
ENCODING 9438
SWIDTH 1000 0
DWIDTH 12 0
BBX 10 11 1 -1
BITMAP
1E00
6180
8040
9C40
9240
9240
9240
8C40
8080
6080
1F00
ENDCHAR
STARTCHAR 24DF
ENCODING 9439
SWIDTH 1000 0
DWIDTH 12 0
BBX 10 11 1 -1
BITMAP
1E00
6100
8080
9E40
9140
9140
9E40
9040
9040
4880
3F00
ENDCHAR
STARTCHAR 24E0
ENCODING 9440
SWIDTH 1000 0
DWIDTH 12 0
BBX 10 11 1 -1
BITMAP
1E00
6100
8080
9E40
A240
A240
9E40
8240
8240
4480
3F00
ENDCHAR
STARTCHAR 24E1
ENCODING 9441
SWIDTH 1000 0
DWIDTH 12 0
BBX 10 11 1 -1
BITMAP
1E00
6100
8080
9E40
8840
8840
8840
8840
9440
4080
3F00
ENDCHAR
STARTCHAR 24E2
ENCODING 9442
SWIDTH 1000 0
DWIDTH 12 0
BBX 10 11 1 -1
BITMAP
1E00
6180
8040
9E40
9240
8C40
9240
B240
8C80
6080
1F00
ENDCHAR
STARTCHAR 24E3
ENCODING 9443
SWIDTH 1000 0
DWIDTH 12 0
BBX 10 11 1 -1
BITMAP
1E00
6100
8080
8840
9C40
8840
8840
8E40
8040
6080
1F00
ENDCHAR
STARTCHAR 24E4
ENCODING 9444
SWIDTH 1000 0
DWIDTH 12 0
BBX 10 11 1 -1
BITMAP
1E00
6180
8040
B240
9240
9240
9240
8F40
8080
6080
1F00
ENDCHAR
STARTCHAR 24E5
ENCODING 9445
SWIDTH 1000 0
DWIDTH 12 0
BBX 10 10 1 0
BITMAP
3F00
C180
8040
B340
9240
8C40
8C40
8840
4080
3F00
ENDCHAR
STARTCHAR 24E6
ENCODING 9446
SWIDTH 1000 0
DWIDTH 12 0
BBX 10 10 1 0
BITMAP
3F00
C180
8040
EDC0
A540
AE40
9240
9240
4080
3F00
ENDCHAR
STARTCHAR 24E7
ENCODING 9447
SWIDTH 1000 0
DWIDTH 12 0
BBX 10 11 1 -1
BITMAP
1E00
6180
8040
BB40
8C40
8440
9C40
9240
A180
4080
3F00
ENDCHAR
STARTCHAR 24E8
ENCODING 9448
SWIDTH 1000 0
DWIDTH 12 0
BBX 10 11 1 -1
BITMAP
1E00
6100
8080
BB40
9240
8C40
8440
8840
9840
4080
3F00
ENDCHAR
STARTCHAR 24E9
ENCODING 9449
SWIDTH 1000 0
DWIDTH 12 0
BBX 10 11 1 -1
BITMAP
1E00
6180
8040
9E40
8440
8840
9240
9E40
8080
4080
3F00
ENDCHAR
STARTCHAR 24EB
ENCODING 9451
SWIDTH 1000 0
DWIDTH 12 0
BBX 10 11 1 -1
BITMAP
1E00
7F80
DC80
FEC0
FEC0
FEC0
FEC0
FEC0
DEC0
7F80
1E00
ENDCHAR
STARTCHAR 24EC
ENCODING 9452
SWIDTH 1000 0
DWIDTH 12 0
BBX 10 11 1 -1
BITMAP
3F00
7F80
DAC0
DBC0
DEC0
DFC0
DDC0
DBC0
4C80
7F80
1E00
ENDCHAR
STARTCHAR 24ED
ENCODING 9453
SWIDTH 1000 0
DWIDTH 12 0
BBX 10 11 1 -1
BITMAP
1E00
7F80
DAC0
DBC0
DEC0
DFC0
DFC0
DBC0
DE80
7F80
1E00
ENDCHAR
STARTCHAR 24EE
ENCODING 9454
SWIDTH 1000 0
DWIDTH 12 0
BBX 10 11 1 -1
BITMAP
1E00
7F80
DE80
DEC0
DAC0
DEC0
D040
DEC0
DEC0
7F80
1E00
ENDCHAR
STARTCHAR 24EF
ENCODING 9455
SWIDTH 1000 0
DWIDTH 12 0
BBX 10 11 1 -1
BITMAP
1E00
7F80
D8C0
DBC0
DFC0
DAC0
DF40
DBC0
DE80
7F80
1E00
ENDCHAR
STARTCHAR 24F0
ENCODING 9456
SWIDTH 1000 0
DWIDTH 12 0
BBX 10 11 1 -1
BITMAP
1E00
7F80
DF80
DAC0
DBC0
DEC0
DFC0
DBC0
DAC0
7F80
1E00
ENDCHAR
STARTCHAR 24F1
ENCODING 9457
SWIDTH 1000 0
DWIDTH 12 0
BBX 10 11 1 -1
BITMAP
1E00
7F80
D8C0
DFC0
DEC0
DFC0
DDC0
DDC0
DD80
7F80
1E00
ENDCHAR
STARTCHAR 24F2
ENCODING 9458
SWIDTH 1000 0
DWIDTH 12 0
BBX 10 11 1 -1
BITMAP
1E00
7F80
DA80
DBC0
DAC0
DDC0
DEC0
DF40
DAC0
7F80
1E00
ENDCHAR
STARTCHAR 24F3
ENCODING 9459
SWIDTH 1000 0
DWIDTH 12 0
BBX 10 11 1 -1
BITMAP
1E00
7F80
DA80
DBC0
DFC0
DAC0
DFC0
DBC0
DAC0
7F80
1E00
ENDCHAR
STARTCHAR 24F4
ENCODING 9460
SWIDTH 1000 0
DWIDTH 12 0
BBX 10 11 1 -1
BITMAP
3F00
7F80
FDC0
B740
FF40
EF40
DF40
F740
8580
7F80
1E00
ENDCHAR
STARTCHAR 24F5
ENCODING 9461
SWIDTH 1000 0
DWIDTH 12 0
BBX 12 11 0 -1
BITMAP
1F00
7FC0
64E0
C460
C430
8410
C430
C460
6260
55C0
3F80
ENDCHAR
STARTCHAR 24F6
ENCODING 9462
SWIDTH 1000 0
DWIDTH 12 0
BBX 12 11 0 -1
BITMAP
0F00
70C0
6F60
4920
C130
8210
C420
C960
6FA0
5140
3F80
ENDCHAR
STARTCHAR 24F7
ENCODING 9463
SWIDTH 1000 0
DWIDTH 12 0
BBX 12 11 0 -1
BITMAP
0F00
70C0
6F60
4920
C130
8610
C130
C960
6FA0
5140
3F80
ENDCHAR
STARTCHAR 24F8
ENCODING 9464
SWIDTH 1000 0
DWIDTH 12 0
BBX 12 11 0 -1
BITMAP
1F00
7FC0
62E0
C660
CA30
9210
DFB0
C260
6260
55C0
3F80
ENDCHAR
STARTCHAR 24F9
ENCODING 9465
SWIDTH 1000 0
DWIDTH 12 0
BBX 12 11 0 -1
BITMAP
1F00
7FC0
6FE0
C860
C830
8F10
C130
C960
6F60
51C0
3F80
ENDCHAR
STARTCHAR 24FA
ENCODING 9466
SWIDTH 1000 0
DWIDTH 12 0
BBX 12 11 0 -1
BITMAP
1F00
7FC0
67E0
C960
C830
8F10
D130
C960
6760
51C0
3F80
ENDCHAR
STARTCHAR 24FB
ENCODING 9467
SWIDTH 1000 0
DWIDTH 12 0
BBX 12 11 0 -1
BITMAP
1F00
7FC0
6FE0
D160
D230
8210
C230
C460
6460
51C0
3F80
ENDCHAR
STARTCHAR 24FC
ENCODING 9468
SWIDTH 1000 0
DWIDTH 12 0
BBX 12 11 0 -1
BITMAP
1F00
7FC0
6FE0
C960
C930
8E10
D130
C960
6F60
51C0
3F80
ENDCHAR
STARTCHAR 24FD
ENCODING 9469
SWIDTH 1000 0
DWIDTH 12 0
BBX 12 11 0 -1
BITMAP
1F00
7FC0
6EE0
C960
C930
8F10
C130
C960
6E60
51C0
3F80
ENDCHAR
STARTCHAR 24FE
ENCODING 9470
SWIDTH 1000 0
DWIDTH 12 0
BBX 12 11 0 -1
BITMAP
1F00
7FC0
6BE0
DAE0
CAB0
8C90
CAB0
CAE0
6BE0
5140
3F80
ENDCHAR
STARTCHAR 2500
ENCODING 9472
SWIDTH 1000 0
DWIDTH 12 0
BBX 12 1 0 4
BITMAP
FFF0
ENDCHAR
STARTCHAR 2501
ENCODING 9473
SWIDTH 1000 0
DWIDTH 12 0
BBX 12 1 0 4
BITMAP
FFF0
ENDCHAR
STARTCHAR 2502
ENCODING 9474
SWIDTH 1000 0
DWIDTH 12 0
BBX 1 12 5 -1
BITMAP
80
80
80
80
80
80
80
80
80
80
80
80
ENDCHAR
STARTCHAR 2503
ENCODING 9475
SWIDTH 1000 0
DWIDTH 12 0
BBX 2 12 5 -1
BITMAP
C0
C0
C0
C0
C0
C0
C0
C0
C0
C0
C0
C0
ENDCHAR
STARTCHAR 250C
ENCODING 9484
SWIDTH 1000 0
DWIDTH 12 0
BBX 6 6 6 -1
BITMAP
FC
80
80
80
80
80
ENDCHAR
STARTCHAR 250F
ENCODING 9487
SWIDTH 1000 0
DWIDTH 12 0
BBX 7 6 5 -1
BITMAP
FE
C0
C0
C0
C0
C0
ENDCHAR
STARTCHAR 2510
ENCODING 9488
SWIDTH 1000 0
DWIDTH 12 0
BBX 6 6 0 -1
BITMAP
FC
04
04
04
04
04
ENDCHAR
STARTCHAR 2513
ENCODING 9491
SWIDTH 1000 0
DWIDTH 12 0
BBX 7 6 0 -1
BITMAP
FE
06
06
06
06
06
ENDCHAR
STARTCHAR 2514
ENCODING 9492
SWIDTH 1000 0
DWIDTH 12 0
BBX 6 7 6 4
BITMAP
80
80
80
80
80
80
FC
ENDCHAR
STARTCHAR 2517
ENCODING 9495
SWIDTH 1000 0
DWIDTH 12 0
BBX 7 7 5 4
BITMAP
C0
C0
C0
C0
C0
C0
FE
ENDCHAR
STARTCHAR 2518
ENCODING 9496
SWIDTH 1000 0
DWIDTH 12 0
BBX 6 7 0 4
BITMAP
04
04
04
04
04
04
FC
ENDCHAR
STARTCHAR 251B
ENCODING 9499
SWIDTH 1000 0
DWIDTH 12 0
BBX 7 7 0 4
BITMAP
06
06
06
06
06
06
FE
ENDCHAR
STARTCHAR 251C
ENCODING 9500
SWIDTH 1000 0
DWIDTH 12 0
BBX 6 12 6 -1
BITMAP
80
80
80
80
80
80
FC
80
80
80
80
80
ENDCHAR
STARTCHAR 251D
ENCODING 9501
SWIDTH 1000 0
DWIDTH 12 0
BBX 6 12 6 -1
BITMAP
80
80
80
80
80
80
FC
80
80
80
80
80
ENDCHAR
STARTCHAR 2520
ENCODING 9504
SWIDTH 1000 0
DWIDTH 12 0
BBX 7 12 5 -1
BITMAP
C0
C0
C0
C0
C0
C0
FE
C0
C0
C0
C0
C0
ENDCHAR
STARTCHAR 2523
ENCODING 9507
SWIDTH 1000 0
DWIDTH 12 0
BBX 7 12 5 -1
BITMAP
C0
C0
C0
C0
C0
C0
FE
C0
C0
C0
C0
C0
ENDCHAR
STARTCHAR 2524
ENCODING 9508
SWIDTH 1000 0
DWIDTH 12 0
BBX 6 12 0 -1
BITMAP
04
04
04
04
04
04
FC
04
04
04
04
04
ENDCHAR
STARTCHAR 2525
ENCODING 9509
SWIDTH 1000 0
DWIDTH 12 0
BBX 6 12 0 -1
BITMAP
04
04
04
04
04
04
FC
04
04
04
04
04
ENDCHAR
STARTCHAR 2528
ENCODING 9512
SWIDTH 1000 0
DWIDTH 12 0
BBX 7 12 0 -1
BITMAP
06
06
06
06
06
06
FE
06
06
06
06
06
ENDCHAR
STARTCHAR 252B
ENCODING 9515
SWIDTH 1000 0
DWIDTH 12 0
BBX 7 12 0 -1
BITMAP
06
06
06
06
06
06
FE
06
06
06
06
06
ENDCHAR
STARTCHAR 252C
ENCODING 9516
SWIDTH 1000 0
DWIDTH 12 0
BBX 12 6 0 -1
BITMAP
FFF0
0400
0400
0400
0400
0400
ENDCHAR
STARTCHAR 252F
ENCODING 9519
SWIDTH 1000 0
DWIDTH 12 0
BBX 12 6 0 -1
BITMAP
FFF0
0400
0400
0400
0400
0400
ENDCHAR
STARTCHAR 2530
ENCODING 9520
SWIDTH 1000 0
DWIDTH 12 0
BBX 12 6 0 -1
BITMAP
FFF0
0600
0600
0600
0600
0600
ENDCHAR
STARTCHAR 2533
ENCODING 9523
SWIDTH 1000 0
DWIDTH 12 0
BBX 12 6 0 -1
BITMAP
FFF0
0600
0600
0600
0600
0600
ENDCHAR
STARTCHAR 2534
ENCODING 9524
SWIDTH 1000 0
DWIDTH 12 0
BBX 12 7 0 4
BITMAP
0400
0400
0400
0400
0400
0400
FFF0
ENDCHAR
STARTCHAR 2537
ENCODING 9527
SWIDTH 1000 0
DWIDTH 12 0
BBX 12 7 0 4
BITMAP
0400
0400
0400
0400
0400
0400
FFF0
ENDCHAR
STARTCHAR 2538
ENCODING 9528
SWIDTH 1000 0
DWIDTH 12 0
BBX 12 7 0 4
BITMAP
0600
0600
0600
0600
0600
0600
FFF0
ENDCHAR
STARTCHAR 253B
ENCODING 9531
SWIDTH 1000 0
DWIDTH 12 0
BBX 12 7 0 4
BITMAP
0600
0600
0600
0600
0600
0600
FFF0
ENDCHAR
STARTCHAR 253C
ENCODING 9532
SWIDTH 1000 0
DWIDTH 12 0
BBX 12 12 0 -1
BITMAP
0400
0400
0400
0400
0400
0400
FFF0
0400
0400
0400
0400
0400
ENDCHAR
STARTCHAR 253F
ENCODING 9535
SWIDTH 1000 0
DWIDTH 12 0
BBX 12 12 0 -1
BITMAP
0400
0400
0400
0400
0400
0400
FFF0
0400
0400
0400
0400
0400
ENDCHAR
STARTCHAR 2542
ENCODING 9538
SWIDTH 1000 0
DWIDTH 12 0
BBX 12 12 0 -1
BITMAP
0600
0600
0600
0600
0600
0600
FFF0
0600
0600
0600
0600
0600
ENDCHAR
STARTCHAR 254B
ENCODING 9547
SWIDTH 1000 0
DWIDTH 12 0
BBX 12 12 0 -1
BITMAP
0600
0600
0600
0600
0600
0600
FFF0
0600
0600
0600
0600
0600
ENDCHAR
STARTCHAR 25A0
ENCODING 9632
SWIDTH 1000 0
DWIDTH 12 0
BBX 8 9 2 0
BITMAP
FF
FF
FF
FF
FF
FF
FF
FF
FF
ENDCHAR
STARTCHAR 25A1
ENCODING 9633
SWIDTH 1000 0
DWIDTH 12 0
BBX 8 9 2 0
BITMAP
FF
81
81
81
81
81
81
81
FF
ENDCHAR
STARTCHAR 25B1
ENCODING 9649
SWIDTH 500 0
DWIDTH 6 0
BBX 6 3 0 3
BITMAP
7C
48
F8
ENDCHAR
STARTCHAR 25B2
ENCODING 9650
SWIDTH 1000 0
DWIDTH 12 0
BBX 10 9 1 0
BITMAP
0800
0C00
0C00
1E00
3F00
3F00
7F80
7F80
FFC0
ENDCHAR
STARTCHAR 25B3
ENCODING 9651
SWIDTH 1000 0
DWIDTH 12 0
BBX 10 10 1 0
BITMAP
0800
0C00
1400
1200
2200
2100
4100
4080
8080
FFC0
ENDCHAR
STARTCHAR 25B6
ENCODING 9654
SWIDTH 500 0
DWIDTH 6 0
BBX 5 7 1 1
BITMAP
80
C0
E0
F8
E0
C0
80
ENDCHAR
STARTCHAR 25B7
ENCODING 9655
SWIDTH 500 0
DWIDTH 6 0
BBX 5 7 1 1
BITMAP
80
C0
A0
98
B0
C0
80
ENDCHAR
STARTCHAR 25BC
ENCODING 9660
SWIDTH 1000 0
DWIDTH 12 0
BBX 10 9 1 0
BITMAP
FFC0
7F80
7F80
3F00
3F00
1E00
0C00
0C00
0800
ENDCHAR
STARTCHAR 25BD
ENCODING 9661
SWIDTH 1000 0
DWIDTH 12 0
BBX 10 10 1 -1
BITMAP
FFC0
8080
4080
4100
2100
2200
1200
1400
0C00
0800
ENDCHAR
STARTCHAR 25C0
ENCODING 9664
SWIDTH 500 0
DWIDTH 6 0
BBX 5 7 0 1
BITMAP
08
18
38
F8
38
18
08
ENDCHAR
STARTCHAR 25C1
ENCODING 9665
SWIDTH 500 0
DWIDTH 6 0
BBX 5 7 0 1
BITMAP
08
18
28
C8
68
18
08
ENDCHAR
STARTCHAR 25C6
ENCODING 9670
SWIDTH 1000 0
DWIDTH 12 0
BBX 10 11 1 -1
BITMAP
0800
0C00
1E00
3F00
7F80
FFC0
7F80
3F00
1E00
0C00
0800
ENDCHAR
STARTCHAR 25C7
ENCODING 9671
SWIDTH 1000 0
DWIDTH 12 0
BBX 10 11 1 -1
BITMAP
0800
1400
2200
4100
8080
8040
8080
4100
2200
1400
0800
ENDCHAR
STARTCHAR 25C9
ENCODING 9673
SWIDTH 500 0
DWIDTH 6 0
BBX 6 5 0 2
BITMAP
78
B8
B4
B8
78
ENDCHAR
STARTCHAR 25CB
ENCODING 9675
SWIDTH 1000 0
DWIDTH 12 0
BBX 10 10 1 0
BITMAP
1E00
6180
4080
8040
8040
8040
8040
8080
4180
3E00
ENDCHAR
STARTCHAR 25CE
ENCODING 9678
SWIDTH 1000 0
DWIDTH 12 0
BBX 10 11 1 -1
BITMAP
1E00
6100
5E80
A140
A140
A140
A140
9E40
4080
2100
1E00
ENDCHAR
STARTCHAR 25CF
ENCODING 9679
SWIDTH 1000 0
DWIDTH 12 0
BBX 10 10 1 0
BITMAP
1E00
7F80
7F80
FFC0
FFC0
FFC0
FFC0
7F80
7F80
1E00
ENDCHAR
STARTCHAR 25D0
ENCODING 9680
SWIDTH 500 0
DWIDTH 6 0
BBX 6 5 0 2
BITMAP
78
68
E4
68
78
ENDCHAR
STARTCHAR 25D1
ENCODING 9681
SWIDTH 500 0
DWIDTH 6 0
BBX 6 5 0 2
BITMAP
78
98
9C
98
78
ENDCHAR
STARTCHAR 25D2
ENCODING 9682
SWIDTH 500 0
DWIDTH 6 0
BBX 6 6 0 2
BITMAP
30
C8
84
FC
78
78
ENDCHAR
STARTCHAR 25D3
ENCODING 9683
SWIDTH 500 0
DWIDTH 6 0
BBX 6 6 0 2
BITMAP
78
78
FC
84
88
70
ENDCHAR
STARTCHAR 25E6
ENCODING 9702
SWIDTH 500 0
DWIDTH 6 0
BBX 2 3 2 3
BITMAP
C0
C0
C0
ENDCHAR
STARTCHAR 25EF
ENCODING 9711
SWIDTH 1000 0
DWIDTH 12 0
BBX 10 11 1 -1
BITMAP
1E00
6180
8040
8040
8040
8040
8040
8040
8080
6080
1F00
ENDCHAR
STARTCHAR 2600
ENCODING 9728
SWIDTH 1000 0
DWIDTH 12 0
BBX 12 11 0 -1
BITMAP
0400
4440
2080
1F00
1F80
FFF0
1F80
1F80
2F80
4440
0400
ENDCHAR
STARTCHAR 2601
ENCODING 9729
SWIDTH 1000 0
DWIDTH 12 0
BBX 10 9 1 -1
BITMAP
1C00
3E00
3EC0
3FC0
FFC0
FFC0
FFC0
77C0
0380
ENDCHAR
STARTCHAR 2602
ENCODING 9730
SWIDTH 1000 0
DWIDTH 12 0
BBX 10 11 1 -1
BITMAP
0800
3F00
7F80
FFC0
A940
C940
0800
0800
0800
0800
1800
ENDCHAR
STARTCHAR 2603
ENCODING 9731
SWIDTH 1000 0
DWIDTH 12 0
BBX 12 11 0 -1
BITMAP
8520
1280
C440
3BA0
2680
6080
1690
E240
4040
4240
3FC0
ENDCHAR
STARTCHAR 2605
ENCODING 9733
SWIDTH 1000 0
DWIDTH 12 0
BBX 12 11 0 -1
BITMAP
0400
0600
0600
0600
FFF0
3FC0
0F00
1F80
1980
1080
2040
ENDCHAR
STARTCHAR 2606
ENCODING 9734
SWIDTH 1000 0
DWIDTH 12 0
BBX 12 12 0 -2
BITMAP
0400
0600
0600
0A00
F9F0
4040
3080
1100
1480
2B80
1080
6040
ENDCHAR
STARTCHAR 260E
ENCODING 9742
SWIDTH 1000 0
DWIDTH 12 0
BBX 10 9 1 0
BITMAP
7F80
D2C0
9240
3F00
3300
6180
E1C0
F3C0
FFC0
ENDCHAR
STARTCHAR 2616
ENCODING 9750
SWIDTH 1000 0
DWIDTH 12 0
BBX 10 10 1 0
BITMAP
0C00
3300
4080
8080
8080
8080
8080
8040
8040
FFC0
ENDCHAR
STARTCHAR 2617
ENCODING 9751
SWIDTH 1000 0
DWIDTH 12 0
BBX 10 10 1 0
BITMAP
0800
1E00
7F80
7F80
7F80
7F80
7F80
FFC0
FFC0
FFC0
ENDCHAR
STARTCHAR 261E
ENCODING 9758
SWIDTH 1000 0
DWIDTH 12 0
BBX 10 5 1 2
BITMAP
FFC0
CFC0
F700
CB00
FE00
ENDCHAR
STARTCHAR 2640
ENCODING 9792
SWIDTH 1000 0
DWIDTH 12 0
BBX 8 11 2 -1
BITMAP
3C
24
42
42
24
18
10
FF
10
10
10
ENDCHAR
STARTCHAR 2642
ENCODING 9794
SWIDTH 1000 0
DWIDTH 12 0
BBX 10 9 1 0
BITMAP
03C0
00C0
0140
0240
7C00
8800
8800
8800
7000
ENDCHAR
STARTCHAR 2660
ENCODING 9824
SWIDTH 500 0
DWIDTH 6 0
BBX 6 7 0 1
BITMAP
20
30
78
78
FC
78
30
ENDCHAR
STARTCHAR 2661
ENCODING 9825
SWIDTH 500 0
DWIDTH 6 0
BBX 6 7 0 1
BITMAP
78
A4
84
88
48
50
20
ENDCHAR
STARTCHAR 2662
ENCODING 9826
SWIDTH 500 0
DWIDTH 6 0
BBX 4 7 1 1
BITMAP
60
A0
90
90
90
A0
60
ENDCHAR
STARTCHAR 2663
ENCODING 9827
SWIDTH 500 0
DWIDTH 6 0
BBX 6 7 0 1
BITMAP
30
30
30
FC
FC
78
30
ENDCHAR
STARTCHAR 2664
ENCODING 9828
SWIDTH 500 0
DWIDTH 6 0
BBX 6 8 0 1
BITMAP
20
50
48
88
84
78
30
30
ENDCHAR
STARTCHAR 2665
ENCODING 9829
SWIDTH 500 0
DWIDTH 6 0
BBX 6 7 0 1
BITMAP
78
FC
FC
78
78
30
20
ENDCHAR
STARTCHAR 2666
ENCODING 9830
SWIDTH 500 0
DWIDTH 6 0
BBX 4 7 1 1
BITMAP
60
60
F0
F0
F0
60
60
ENDCHAR
STARTCHAR 2667
ENCODING 9831
SWIDTH 500 0
DWIDTH 6 0
BBX 6 7 0 1
BITMAP
30
50
68
84
FC
30
30
ENDCHAR
STARTCHAR 2668
ENCODING 9832
SWIDTH 1000 0
DWIDTH 12 0
BBX 10 10 1 0
BITMAP
0800
6A00
4A00
2A00
2500
A580
A540
CA40
C0C0
3F00
ENDCHAR
STARTCHAR 2669
ENCODING 9833
SWIDTH 500 0
DWIDTH 6 0
BBX 3 7 1 1
BITMAP
20
20
20
20
20
60
C0
ENDCHAR
STARTCHAR 266A
ENCODING 9834
SWIDTH 1000 0
DWIDTH 12 0
BBX 8 10 2 0
BITMAP
10
10
1C
16
11
11
11
16
70
E0
ENDCHAR
STARTCHAR 266B
ENCODING 9835
SWIDTH 500 0
DWIDTH 6 0
BBX 5 7 0 1
BITMAP
08
38
48
48
48
48
C0
ENDCHAR
STARTCHAR 266C
ENCODING 9836
SWIDTH 500 0
DWIDTH 6 0
BBX 5 7 0 1
BITMAP
08
38
38
48
48
48
C0
ENDCHAR
STARTCHAR 266D
ENCODING 9837
SWIDTH 1000 0
DWIDTH 12 0
BBX 4 10 4 0
BITMAP
80
80
80
80
F0
90
90
90
A0
C0
ENDCHAR
STARTCHAR 266E
ENCODING 9838
SWIDTH 500 0
DWIDTH 6 0
BBX 2 7 2 1
BITMAP
80
C0
C0
C0
C0
C0
40
ENDCHAR
STARTCHAR 266F
ENCODING 9839
SWIDTH 1000 0
DWIDTH 12 0
BBX 8 11 2 -1
BITMAP
04
24
24
3F
E4
24
27
7C
A4
24
20
ENDCHAR
STARTCHAR 2713
ENCODING 10003
SWIDTH 1000 0
DWIDTH 12 0
BBX 8 8 3 1
BITMAP
01
02
04
08
10
90
A0
40
ENDCHAR
STARTCHAR 2756
ENCODING 10070
SWIDTH 1000 0
DWIDTH 12 0
BBX 10 11 1 -1
BITMAP
0800
0C00
1E00
4D00
6980
F3C0
6980
4D00
1E00
0C00
0800
ENDCHAR
STARTCHAR 2776
ENCODING 10102
SWIDTH 1000 0
DWIDTH 12 0
BBX 10 11 1 -1
BITMAP
1E00
7F80
F7C0
FFC0
FFC0
FFC0
FFC0
FFC0
FB80
7F80
1E00
ENDCHAR
STARTCHAR 2777
ENCODING 10103
SWIDTH 1000 0
DWIDTH 12 0
BBX 10 11 1 -1
BITMAP
3F00
7180
EDC0
EDC0
FDC0
FBC0
F7C0
EFC0
7180
7F80
1E00
ENDCHAR
STARTCHAR 2778
ENCODING 10104
SWIDTH 1000 0
DWIDTH 12 0
BBX 10 11 1 -1
BITMAP
1E00
7F80
EDC0
EDC0
FDC0
F3C0
FDC0
EEC0
FD80
6180
1E00
ENDCHAR
STARTCHAR 2779
ENCODING 10105
SWIDTH 1000 0
DWIDTH 12 0
BBX 10 11 1 -1
BITMAP
1E00
3F00
7B80
FBC0
EBC0
DBC0
E0C0
FBC0
FBC0
7F80
1E00
ENDCHAR
STARTCHAR 277A
ENCODING 10106
SWIDTH 1000 0
DWIDTH 12 0
BBX 10 11 1 -1
BITMAP
1E00
7F80
6180
EFC0
EFC0
FDC0
FFC0
EEC0
FDC0
6380
1E00
ENDCHAR
STARTCHAR 277B
ENCODING 10107
SWIDTH 1000 0
DWIDTH 12 0
BBX 10 11 1 -1
BITMAP
1E00
7F80
FDC0
EDC0
FFC0
EDC0
FFC0
EDC0
FD80
7F80
1E00
ENDCHAR
STARTCHAR 277C
ENCODING 10108
SWIDTH 1000 0
DWIDTH 12 0
BBX 10 11 1 -1
BITMAP
1E00
7F80
E180
FFC0
FDC0
FBC0
FBC0
FBC0
FFC0
7F80
1E00
ENDCHAR
STARTCHAR 277D
ENCODING 10109
SWIDTH 1000 0
DWIDTH 12 0
BBX 10 11 1 -1
BITMAP
1E00
7F80
EDC0
EDC0
EDC0
FBC0
FDC0
DFC0
ED80
7F80
1E00
ENDCHAR
STARTCHAR 277E
ENCODING 10110
SWIDTH 1000 0
DWIDTH 12 0
BBX 10 11 1 -1
BITMAP
1E00
7F80
EFC0
EDC0
FFC0
EDC0
FFC0
EDC0
EF80
7F80
1E00
ENDCHAR
STARTCHAR 277F
ENCODING 10111
SWIDTH 1000 0
DWIDTH 12 0
BBX 10 11 1 -1
BITMAP
1E00
7F80
9A80
DAC0
DBC0
DFC0
DBC0
DAC0
DAC0
7F80
1E00
ENDCHAR
STARTCHAR 2934
ENCODING 10548
SWIDTH 500 0
DWIDTH 6 0
BBX 4 10 1 0
BITMAP
20
70
B0
20
20
20
20
20
20
C0
ENDCHAR
STARTCHAR 2935
ENCODING 10549
SWIDTH 500 0
DWIDTH 6 0
BBX 4 10 1 -1
BITMAP
C0
20
20
20
20
20
20
B0
70
20
ENDCHAR
STARTCHAR 29BF
ENCODING 10687
SWIDTH 1000 0
DWIDTH 12 0
BBX 10 11 1 -1
BITMAP
1E00
6100
4080
8040
8C40
9E40
8C40
8040
4080
2100
1E00
ENDCHAR
STARTCHAR 29FA
ENCODING 10746
SWIDTH 500 0
DWIDTH 6 0
BBX 4 7 1 1
BITMAP
A0
A0
A0
F0
A0
A0
A0
ENDCHAR
STARTCHAR 29FB
ENCODING 10747
SWIDTH 500 0
DWIDTH 6 0
BBX 4 7 1 1
BITMAP
D0
D0
D0
F0
D0
D0
D0
ENDCHAR
STARTCHAR 3000
ENCODING 12288
SWIDTH 1000 0
DWIDTH 12 0
BBX 0 0 0 0
BITMAP
ENDCHAR
STARTCHAR 3001
ENCODING 12289
SWIDTH 1000 0
DWIDTH 12 0
BBX 2 3 1 -1
BITMAP
80
C0
40
ENDCHAR
STARTCHAR 3002
ENCODING 12290
SWIDTH 1000 0
DWIDTH 12 0
BBX 3 3 1 -1
BITMAP
C0
60
C0
ENDCHAR
STARTCHAR 3003
ENCODING 12291
SWIDTH 1000 0
DWIDTH 12 0
BBX 5 5 3 3
BITMAP
28
48
50
90
A0
ENDCHAR
STARTCHAR 3005
ENCODING 12293
SWIDTH 1000 0
DWIDTH 12 0
BBX 7 8 2 1
BITMAP
20
10
22
3E
44
A8
18
04
ENDCHAR
STARTCHAR 3006
ENCODING 12294
SWIDTH 1000 0
DWIDTH 12 0
BBX 8 9 2 0
BITMAP
03
02
04
38
58
A4
A0
C0
80
ENDCHAR
STARTCHAR 3007
ENCODING 12295
SWIDTH 1000 0
DWIDTH 12 0
BBX 10 9 1 0
BITMAP
3E00
4180
8080
8040
8040
8040
4080
6180
1E00
ENDCHAR
STARTCHAR 3008
ENCODING 12296
SWIDTH 1000 0
DWIDTH 12 0
BBX 4 11 7 -1
BITMAP
10
20
40
40
80
80
80
40
40
20
10
ENDCHAR
STARTCHAR 3009
ENCODING 12297
SWIDTH 1000 0
DWIDTH 12 0
BBX 4 11 1 -1
BITMAP
80
80
40
20
10
10
10
20
40
80
80
ENDCHAR
STARTCHAR 300A
ENCODING 12298
SWIDTH 1000 0
DWIDTH 12 0
BBX 6 11 6 -1
BITMAP
1C
28
30
50
60
C0
60
50
30
28
1C
ENDCHAR
STARTCHAR 300B
ENCODING 12299
SWIDTH 1000 0
DWIDTH 12 0
BBX 6 11 0 -1
BITMAP
A0
60
50
30
18
14
18
30
50
60
A0
ENDCHAR
STARTCHAR 300C
ENCODING 12300
SWIDTH 1000 0
DWIDTH 12 0
BBX 3 9 8 1
BITMAP
E0
80
80
80
80
80
80
80
80
ENDCHAR
STARTCHAR 300D
ENCODING 12301
SWIDTH 1000 0
DWIDTH 12 0
BBX 3 9 1 -1
BITMAP
20
20
20
20
20
20
20
20
E0
ENDCHAR
STARTCHAR 300E
ENCODING 12302
SWIDTH 1000 0
DWIDTH 12 0
BBX 4 9 7 1
BITMAP
F0
F0
C0
C0
C0
C0
C0
C0
C0
ENDCHAR
STARTCHAR 300F
ENCODING 12303
SWIDTH 1000 0
DWIDTH 12 0
BBX 4 9 1 -1
BITMAP
30
30
30
30
30
30
F0
90
F0
ENDCHAR
STARTCHAR 3010
ENCODING 12304
SWIDTH 1000 0
DWIDTH 12 0
BBX 3 11 8 -1
BITMAP
E0
C0
80
80
80
80
80
80
80
C0
E0
ENDCHAR
STARTCHAR 3011
ENCODING 12305
SWIDTH 1000 0
DWIDTH 12 0
BBX 3 11 1 -1
BITMAP
E0
60
20
20
20
20
20
20
20
60
E0
ENDCHAR
STARTCHAR 3012
ENCODING 12306
SWIDTH 1000 0
DWIDTH 12 0
BBX 8 10 2 -1
BITMAP
FF
00
00
FF
18
18
18
18
18
18
ENDCHAR
STARTCHAR 3013
ENCODING 12307
SWIDTH 1000 0
DWIDTH 12 0
BBX 8 5 2 2
BITMAP
FF
00
00
FF
FF
ENDCHAR
STARTCHAR 3014
ENCODING 12308
SWIDTH 1000 0
DWIDTH 12 0
BBX 2 11 9 -1
BITMAP
40
80
00
00
00
00
00
00
00
00
C0
ENDCHAR
STARTCHAR 3015
ENCODING 12309
SWIDTH 1000 0
DWIDTH 12 0
BBX 3 11 1 -1
BITMAP
80
60
20
20
20
20
20
20
20
20
C0
ENDCHAR
STARTCHAR 3016
ENCODING 12310
SWIDTH 1000 0
DWIDTH 12 0
BBX 3 11 8 -1
BITMAP
E0
C0
80
80
80
80
80
80
80
C0
E0
ENDCHAR
STARTCHAR 3017
ENCODING 12311
SWIDTH 1000 0
DWIDTH 12 0
BBX 3 11 1 -1
BITMAP
E0
A0
60
60
60
60
60
60
60
A0
E0
ENDCHAR
STARTCHAR 3018
ENCODING 12312
SWIDTH 1000 0
DWIDTH 12 0
BBX 3 11 8 -1
BITMAP
20
E0
C0
80
80
80
80
80
C0
A0
60
ENDCHAR
STARTCHAR 3019
ENCODING 12313
SWIDTH 1000 0
DWIDTH 12 0
BBX 3 11 1 -1
BITMAP
80
E0
60
60
60
60
60
60
60
A0
C0
ENDCHAR
STARTCHAR 301C
ENCODING 12316
SWIDTH 1000 0
DWIDTH 12 0
BBX 10 3 1 3
BITMAP
7000
8CC0
0300
ENDCHAR
STARTCHAR 301D
ENCODING 12317
SWIDTH 1000 0
DWIDTH 12 0
BBX 3 5 8 5
BITMAP
80
40
A0
40
20
ENDCHAR
STARTCHAR 301F
ENCODING 12319
SWIDTH 1000 0
DWIDTH 12 0
BBX 3 5 1 -1
BITMAP
80
40
A0
40
20
ENDCHAR
STARTCHAR 3020
ENCODING 12320
SWIDTH 1000 0
DWIDTH 12 0
BBX 10 7 1 1
BITMAP
7F80
0000
7F80
EF40
ADC0
A280
7F00
ENDCHAR
STARTCHAR 3033
ENCODING 12339
SWIDTH 1000 0
DWIDTH 12 0
BBX 4 10 3 -1
BITMAP
10
10
10
20
20
40
40
40
80
80
ENDCHAR
STARTCHAR 3034
ENCODING 12340
SWIDTH 1000 0
DWIDTH 12 0
BBX 7 10 3 -1
BITMAP
10
10
10
20
20
44
4A
44
80
80
ENDCHAR
STARTCHAR 3035
ENCODING 12341
SWIDTH 1000 0
DWIDTH 12 0
BBX 5 11 3 0
BITMAP
80
80
40
40
20
20
10
10
08
08
08
ENDCHAR
STARTCHAR 303B
ENCODING 12347
SWIDTH 1000 0
DWIDTH 12 0
BBX 5 7 3 1
BITMAP
20
10
20
40
20
18
E0
ENDCHAR
STARTCHAR 303C
ENCODING 12348
SWIDTH 1000 0
DWIDTH 12 0
BBX 10 11 1 -1
BITMAP
FFC0
80C0
8140
8240
8440
8840
9040
A040
C040
8040
FFC0
ENDCHAR
STARTCHAR 303D
ENCODING 12349
SWIDTH 1000 0
DWIDTH 12 0
BBX 9 11 2 -1
BITMAP
4000
A800
3400
0400
0400
0200
0200
0200
0100
0100
0180
ENDCHAR
STARTCHAR 3041
ENCODING 12353
SWIDTH 1000 0
DWIDTH 12 0
BBX 8 9 2 -1
BITMAP
10
14
78
2C
7B
B1
91
F2
0C
ENDCHAR
STARTCHAR 3042
ENCODING 12354
SWIDTH 1000 0
DWIDTH 12 0
BBX 10 10 1 0
BITMAP
1000
0800
7E00
1400
0F00
3480
5440
8840
9080
7F00
ENDCHAR
STARTCHAR 3043
ENCODING 12355
SWIDTH 1000 0
DWIDTH 12 0
BBX 8 7 2 0
BITMAP
80
82
81
A1
A1
A0
60
ENDCHAR
STARTCHAR 3044
ENCODING 12356
SWIDTH 1000 0
DWIDTH 12 0
BBX 10 8 1 0
BITMAP
8200
8100
8080
9040
9040
6000
6000
2000
ENDCHAR
STARTCHAR 3045
ENCODING 12357
SWIDTH 1000 0
DWIDTH 12 0
BBX 6 9 3 -1
BITMAP
40
70
00
F8
04
04
08
08
70
ENDCHAR
STARTCHAR 3046
ENCODING 12358
SWIDTH 1000 0
DWIDTH 12 0
BBX 7 10 2 0
BITMAP
20
1C
20
3C
C2
02
02
02
04
38
ENDCHAR
STARTCHAR 3047
ENCODING 12359
SWIDTH 1000 0
DWIDTH 12 0
BBX 8 9 2 -1
BITMAP
20
3C
0C
74
18
18
28
44
87
ENDCHAR
STARTCHAR 3048
ENCODING 12360
SWIDTH 1000 0
DWIDTH 12 0
BBX 9 10 2 0
BITMAP
2000
1C00
2000
0C00
7600
1800
1800
2400
C400
8780
ENDCHAR
STARTCHAR 3049
ENCODING 12361
SWIDTH 1000 0
DWIDTH 12 0
BBX 8 8 2 0
BITMAP
40
22
F9
20
3E
61
A1
6E
ENDCHAR
STARTCHAR 304A
ENCODING 12362
SWIDTH 1000 0
DWIDTH 12 0
BBX 10 9 1 0
BITMAP
3100
2080
FC40
2000
2F00
3080
6080
A080
6700
ENDCHAR
STARTCHAR 304B
ENCODING 12363
SWIDTH 1000 0
DWIDTH 12 0
BBX 10 9 1 0
BITMAP
1000
1200
9D80
E440
2440
25C0
4400
5800
8800
ENDCHAR
STARTCHAR 304C
ENCODING 12364
SWIDTH 1000 0
DWIDTH 12 0
BBX 11 10 1 0
BITMAP
0060
10C0
1200
9D80
E440
2440
25C0
4400
5800
8800
ENDCHAR
STARTCHAR 304D
ENCODING 12365
SWIDTH 1000 0
DWIDTH 12 0
BBX 8 10 2 0
BITMAP
30
16
78
0B
FC
04
0E
40
40
3E
ENDCHAR
STARTCHAR 304E
ENCODING 12366
SWIDTH 1000 0
DWIDTH 12 0
BBX 10 11 2 0
BITMAP
0080
3140
1680
7800
0B00
FC00
0400
0E00
4000
4000
3E00
ENDCHAR
STARTCHAR 304F
ENCODING 12367
SWIDTH 1000 0
DWIDTH 12 0
BBX 6 11 3 -1
BITMAP
08
08
30
40
80
80
40
20
10
08
04
ENDCHAR
STARTCHAR 3050
ENCODING 12368
SWIDTH 1000 0
DWIDTH 12 0
BBX 7 11 3 -1
BITMAP
08
08
30
4A
84
80
40
20
10
08
04
ENDCHAR
STARTCHAR 3051
ENCODING 12369
SWIDTH 1000 0
DWIDTH 12 0
BBX 9 11 2 -1
BITMAP
0600
8200
8200
BF80
8200
8200
C200
8200
8400
8400
1800
ENDCHAR
STARTCHAR 3052
ENCODING 12370
SWIDTH 1000 0
DWIDTH 12 0
BBX 10 11 2 -1
BITMAP
06C0
8380
8200
BF80
8200
8200
C200
8200
8400
8400
1800
ENDCHAR
STARTCHAR 3053
ENCODING 12371
SWIDTH 1000 0
DWIDTH 12 0
BBX 8 9 2 0
BITMAP
78
0E
10
00
00
00
80
83
7E
ENDCHAR
STARTCHAR 3054
ENCODING 12372
SWIDTH 1000 0
DWIDTH 12 0
BBX 10 10 2 0
BITMAP
00C0
7900
0E00
1000
0000
0000
0000
8000
8300
7E00
ENDCHAR
STARTCHAR 3055
ENCODING 12373
SWIDTH 1000 0
DWIDTH 12 0
BBX 8 10 2 0
BITMAP
10
30
13
FC
04
04
0E
80
40
3C
ENDCHAR
STARTCHAR 3056
ENCODING 12374
SWIDTH 1000 0
DWIDTH 12 0
BBX 10 10 2 0
BITMAP
12C0
3180
1300
FC00
0400
0400
0E00
8000
4000
3C00
ENDCHAR
STARTCHAR 3057
ENCODING 12375
SWIDTH 1000 0
DWIDTH 12 0
BBX 7 9 3 0
BITMAP
80
80
80
80
80
82
82
84
78
ENDCHAR
STARTCHAR 3058
ENCODING 12376
SWIDTH 1000 0
DWIDTH 12 0
BBX 7 9 3 0
BITMAP
80
94
88
80
80
82
82
84
78
ENDCHAR
STARTCHAR 3059
ENCODING 12377
SWIDTH 1000 0
DWIDTH 12 0
BBX 10 11 1 -1
BITMAP
0400
0400
87C0
FC00
1C00
1400
1600
1C00
0400
0400
0800
ENDCHAR
STARTCHAR 305A
ENCODING 12378
SWIDTH 1000 0
DWIDTH 12 0
BBX 11 11 1 -1
BITMAP
04E0
0480
87C0
FC00
1C00
1400
1600
1C00
0400
0400
0800
ENDCHAR
STARTCHAR 305B
ENCODING 12379
SWIDTH 1000 0
DWIDTH 12 0
BBX 11 9 0 0
BITMAP
1180
1080
10E0
FF00
1100
1300
1100
0800
0FC0
ENDCHAR
STARTCHAR 305C
ENCODING 12380
SWIDTH 1000 0
DWIDTH 12 0
BBX 12 10 0 0
BITMAP
00B0
11E0
1080
10E0
FF00
1100
1300
1100
0800
0FC0
ENDCHAR
STARTCHAR 305D
ENCODING 12381
SWIDTH 1000 0
DWIDTH 12 0
BBX 10 9 1 0
BITMAP
3F00
0600
0800
3FC0
F400
0800
1000
0800
0700
ENDCHAR
STARTCHAR 305E
ENCODING 12382
SWIDTH 1000 0
DWIDTH 12 0
BBX 11 10 1 0
BITMAP
0160
3F80
0640
0800
3FC0
F400
0800
1000
0800
0700
ENDCHAR
STARTCHAR 305F
ENCODING 12383
SWIDTH 1000 0
DWIDTH 12 0
BBX 10 10 1 0
BITMAP
1000
0800
1400
7800
2380
2600
2000
4000
4800
87C0
ENDCHAR
STARTCHAR 3060
ENCODING 12384
SWIDTH 1000 0
DWIDTH 12 0
BBX 10 10 1 0
BITMAP
1080
0940
1480
7800
2380
2600
2000
4000
4800
87C0
ENDCHAR
STARTCHAR 3061
ENCODING 12385
SWIDTH 1000 0
DWIDTH 12 0
BBX 9 10 1 0
BITMAP
2000
1000
9400
6800
2000
2700
3880
2080
0100
0E00
ENDCHAR
STARTCHAR 3062
ENCODING 12386
SWIDTH 1000 0
DWIDTH 12 0
BBX 9 10 1 0
BITMAP
2080
1100
9400
6800
2000
2700
3880
2080
0100
0E00
ENDCHAR
STARTCHAR 3063
ENCODING 12387
SWIDTH 1000 0
DWIDTH 12 0
BBX 8 6 2 0
BITMAP
3E
E1
01
01
02
1C
ENDCHAR
STARTCHAR 3064
ENCODING 12388
SWIDTH 1000 0
DWIDTH 12 0
BBX 10 7 1 1
BITMAP
0F00
3080
C040
0040
0080
0100
1E00
ENDCHAR
STARTCHAR 3065
ENCODING 12389
SWIDTH 1000 0
DWIDTH 12 0
BBX 11 9 1 1
BITMAP
0160
00C0
0F00
3080
C040
0040
0080
0100
1E00
ENDCHAR
STARTCHAR 3066
ENCODING 12390
SWIDTH 1000 0
DWIDTH 12 0
BBX 9 9 1 0
BITMAP
0780
FC00
0800
1000
1000
1000
1000
0800
0780
ENDCHAR
STARTCHAR 3067
ENCODING 12391
SWIDTH 1000 0
DWIDTH 12 0
BBX 10 9 1 0
BITMAP
0780
FC00
0880
11C0
1080
1000
1000
0800
0780
ENDCHAR
STARTCHAR 3068
ENCODING 12392
SWIDTH 1000 0
DWIDTH 12 0
BBX 7 9 3 0
BITMAP
C0
48
44
58
60
80
80
80
7E
ENDCHAR
STARTCHAR 3069
ENCODING 12393
SWIDTH 1000 0
DWIDTH 12 0
BBX 8 10 3 0
BITMAP
01
C3
48
44
58
60
80
80
80
7E
ENDCHAR
STARTCHAR 306A
ENCODING 12394
SWIDTH 1000 0
DWIDTH 12 0
BBX 10 10 1 0
BITMAP
1000
1000
7D80
2180
2200
4200
4200
9E00
2380
1E40
ENDCHAR
STARTCHAR 306B
ENCODING 12395
SWIDTH 1000 0
DWIDTH 12 0
BBX 9 9 2 0
BITMAP
8000
9F00
8800
8000
8000
C000
9000
8F80
8000
ENDCHAR
STARTCHAR 306C
ENCODING 12396
SWIDTH 1000 0
DWIDTH 12 0
BBX 10 10 1 0
BITMAP
0800
4400
4600
3980
6880
A880
B0C0
9380
B4C0
C300
ENDCHAR
STARTCHAR 306D
ENCODING 12397
SWIDTH 1000 0
DWIDTH 12 0
BBX 10 10 1 0
BITMAP
2000
1000
1000
F780
2880
3080
6080
A380
A4C0
2340
ENDCHAR
STARTCHAR 306E
ENCODING 12398
SWIDTH 1000 0
DWIDTH 12 0
BBX 10 9 1 0
BITMAP
1F00
2980
4880
8840
8840
9040
B080
6080
0700
ENDCHAR
STARTCHAR 306F
ENCODING 12399
SWIDTH 1000 0
DWIDTH 12 0
BBX 9 9 2 0
BITMAP
8600
8400
BF80
8400
8400
C400
9E00
A380
9C00
ENDCHAR
STARTCHAR 3070
ENCODING 12400
SWIDTH 1000 0
DWIDTH 12 0
BBX 10 10 2 0
BITMAP
02C0
8700
8400
BF80
8400
8400
C400
9E00
A380
9C00
ENDCHAR
STARTCHAR 3071
ENCODING 12401
SWIDTH 1000 0
DWIDTH 12 0
BBX 10 10 2 0
BITMAP
0180
87C0
8400
BF80
8400
8400
C400
9E00
A380
9C00
ENDCHAR
STARTCHAR 3072
ENCODING 12402
SWIDTH 1000 0
DWIDTH 12 0
BBX 10 9 1 0
BITMAP
1A00
F300
2280
4140
4100
4100
4200
4200
3C00
ENDCHAR
STARTCHAR 3073
ENCODING 12403
SWIDTH 1000 0
DWIDTH 12 0
BBX 11 10 1 0
BITMAP
0060
1AC0
F300
2280
4140
4100
4100
4200
4200
3C00
ENDCHAR
STARTCHAR 3074
ENCODING 12404
SWIDTH 1000 0
DWIDTH 12 0
BBX 11 10 1 0
BITMAP
00C0
1AE0
F300
2280
4140
4100
4100
4200
4200
3C00
ENDCHAR
STARTCHAR 3075
ENCODING 12405
SWIDTH 1000 0
DWIDTH 12 0
BBX 10 9 1 0
BITMAP
1E00
0800
0000
0800
0980
2440
C240
8200
1C00
ENDCHAR
STARTCHAR 3076
ENCODING 12406
SWIDTH 1000 0
DWIDTH 12 0
BBX 10 9 1 0
BITMAP
1E40
08C0
0000
0800
0980
2440
C240
8200
1C00
ENDCHAR
STARTCHAR 3077
ENCODING 12407
SWIDTH 1000 0
DWIDTH 12 0
BBX 10 9 1 0
BITMAP
1EC0
08C0
0000
0800
0980
2440
C240
8200
1C00
ENDCHAR
STARTCHAR 3078
ENCODING 12408
SWIDTH 1000 0
DWIDTH 12 0
BBX 10 6 1 2
BITMAP
1800
1400
2200
4100
8080
0040
ENDCHAR
STARTCHAR 3079
ENCODING 12409
SWIDTH 1000 0
DWIDTH 12 0
BBX 10 7 1 2
BITMAP
0100
1B80
1400
2200
4100
8080
0040
ENDCHAR
STARTCHAR 307A
ENCODING 12410
SWIDTH 1000 0
DWIDTH 12 0
BBX 10 7 1 2
BITMAP
0180
1980
1400
2200
4100
8080
0040
ENDCHAR
STARTCHAR 307B
ENCODING 12411
SWIDTH 1000 0
DWIDTH 12 0
BBX 9 9 2 0
BITMAP
9F00
8400
8400
BF80
8400
C400
9E00
A380
9C00
ENDCHAR
STARTCHAR 307C
ENCODING 12412
SWIDTH 1000 0
DWIDTH 12 0
BBX 10 10 2 0
BITMAP
01C0
9E80
8400
8400
BF80
8400
C400
9E00
A380
9C00
ENDCHAR
STARTCHAR 307D
ENCODING 12413
SWIDTH 1000 0
DWIDTH 12 0
BBX 10 10 2 0
BITMAP
00C0
9FC0
8400
8400
BF80
8400
C400
9E00
A380
9C00
ENDCHAR
STARTCHAR 307E
ENCODING 12414
SWIDTH 1000 0
DWIDTH 12 0
BBX 8 10 2 0
BITMAP
10
08
FB
0C
08
7E
08
78
8E
79
ENDCHAR
STARTCHAR 307F
ENCODING 12415
SWIDTH 1000 0
DWIDTH 12 0
BBX 10 9 1 0
BITMAP
3C00
0400
0800
0880
3C80
D380
A0C0
C140
0600
ENDCHAR
STARTCHAR 3080
ENCODING 12416
SWIDTH 1000 0
DWIDTH 12 0
BBX 10 10 1 0
BITMAP
3000
1C00
F080
2040
60C0
A040
E100
2100
2100
3F80
ENDCHAR
STARTCHAR 3081
ENCODING 12417
SWIDTH 1000 0
DWIDTH 12 0
BBX 10 10 1 0
BITMAP
0800
4400
2600
3980
6840
A840
B040
9040
F080
0F00
ENDCHAR
STARTCHAR 3082
ENCODING 12418
SWIDTH 1000 0
DWIDTH 12 0
BBX 8 10 2 0
BITMAP
20
20
20
FC
20
C8
71
41
22
1C
ENDCHAR
STARTCHAR 3083
ENCODING 12419
SWIDTH 1000 0
DWIDTH 12 0
BBX 8 9 2 -1
BITMAP
10
C8
4F
31
E1
1F
10
10
08
ENDCHAR
STARTCHAR 3084
ENCODING 12420
SWIDTH 1000 0
DWIDTH 12 0
BBX 10 11 1 -1
BITMAP
1000
6C00
2000
2780
3840
D040
1780
0800
0800
0400
0400
ENDCHAR
STARTCHAR 3085
ENCODING 12421
SWIDTH 1000 0
DWIDTH 12 0
BBX 8 9 2 -1
BITMAP
08
88
9E
A9
C9
C9
9A
94
10
ENDCHAR
STARTCHAR 3086
ENCODING 12422
SWIDTH 1000 0
DWIDTH 12 0
BBX 10 11 1 -1
BITMAP
0400
8400
4700
9C80
A440
A640
C440
4C80
4700
0800
1000
ENDCHAR
STARTCHAR 3087
ENCODING 12423
SWIDTH 1000 0
DWIDTH 12 0
BBX 6 9 3 -1
BITMAP
20
20
24
38
20
20
F8
A4
E0
ENDCHAR
STARTCHAR 3088
ENCODING 12424
SWIDTH 1000 0
DWIDTH 12 0
BBX 8 10 2 0
BITMAP
10
18
10
17
18
10
10
78
8F
F0
ENDCHAR
STARTCHAR 3089
ENCODING 12425
SWIDTH 1000 0
DWIDTH 12 0
BBX 7 10 3 0
BITMAP
80
70
40
80
80
9C
E2
82
02
3C
ENDCHAR
STARTCHAR 308A
ENCODING 12426
SWIDTH 1000 0
DWIDTH 12 0
BBX 6 10 3 -1
BITMAP
88
84
84
C4
84
84
08
08
10
60
ENDCHAR
STARTCHAR 308B
ENCODING 12427
SWIDTH 1000 0
DWIDTH 12 0
BBX 8 9 2 0
BITMAP
7C
08
10
20
7E
C3
F1
4A
3C
ENDCHAR
STARTCHAR 308C
ENCODING 12428
SWIDTH 1000 0
DWIDTH 12 0
BBX 11 10 1 0
BITMAP
2000
1000
2300
D480
3900
2100
6120
A140
E0C0
2000
ENDCHAR
STARTCHAR 308D
ENCODING 12429
SWIDTH 1000 0
DWIDTH 12 0
BBX 8 9 2 0
BITMAP
7C
08
10
20
7E
C1
81
03
3C
ENDCHAR
STARTCHAR 308E
ENCODING 12430
SWIDTH 1000 0
DWIDTH 12 0
BBX 8 9 2 -1
BITMAP
20
20
EE
31
21
E1
E1
2E
20
ENDCHAR
STARTCHAR 308F
ENCODING 12431
SWIDTH 1000 0
DWIDTH 12 0
BBX 10 10 1 0
BITMAP
2000
1000
1000
F780
2840
3040
6040
A040
A080
2300
ENDCHAR
STARTCHAR 3090
ENCODING 12432
SWIDTH 1000 0
DWIDTH 12 0
BBX 10 9 1 0
BITMAP
3C00
0400
0800
1F00
7080
9040
9E40
A980
C700
ENDCHAR
STARTCHAR 3091
ENCODING 12433
SWIDTH 1000 0
DWIDTH 12 0
BBX 10 10 1 0
BITMAP
0600
3C00
0800
3F00
7900
2500
1E00
3000
7380
8C40
ENDCHAR
STARTCHAR 3092
ENCODING 12434
SWIDTH 1000 0
DWIDTH 12 0
BBX 8 10 2 0
BITMAP
10
10
FC
20
71
56
98
68
40
3F
ENDCHAR
STARTCHAR 3093
ENCODING 12435
SWIDTH 1000 0
DWIDTH 12 0
BBX 10 9 1 0
BITMAP
0800
0800
1000
1000
3800
2440
4480
4480
8300
ENDCHAR
STARTCHAR 3094
ENCODING 12436
SWIDTH 1000 0
DWIDTH 12 0
BBX 9 10 2 0
BITMAP
2380
1D00
2000
3C00
C200
0200
0200
0200
0400
3800
ENDCHAR
STARTCHAR 3095
ENCODING 12437
SWIDTH 1000 0
DWIDTH 12 0
BBX 9 8 2 0
BITMAP
2000
2000
BA00
E900
4880
4B80
A800
9000
ENDCHAR
STARTCHAR 3096
ENCODING 12438
SWIDTH 1000 0
DWIDTH 12 0
BBX 7 9 3 -1
BITMAP
8C
84
BE
84
84
84
88
88
90
ENDCHAR
STARTCHAR 3099
ENCODING 12441
SWIDTH 1000 0
DWIDTH 12 0
BBX 2 3 9 7
BITMAP
40
C0
80
ENDCHAR
STARTCHAR 309A
ENCODING 12442
SWIDTH 1000 0
DWIDTH 12 0
BBX 2 2 9 8
BITMAP
C0
C0
ENDCHAR
STARTCHAR 309B
ENCODING 12443
SWIDTH 1000 0
DWIDTH 12 0
BBX 2 3 1 7
BITMAP
40
C0
80
ENDCHAR
STARTCHAR 309C
ENCODING 12444
SWIDTH 1000 0
DWIDTH 12 0
BBX 2 2 1 8
BITMAP
C0
C0
ENDCHAR
STARTCHAR 309D
ENCODING 12445
SWIDTH 1000 0
DWIDTH 12 0
BBX 4 7 4 1
BITMAP
80
80
40
20
10
30
C0
ENDCHAR
STARTCHAR 309E
ENCODING 12446
SWIDTH 1000 0
DWIDTH 12 0
BBX 6 8 4 1
BITMAP
10
9C
90
40
20
10
30
C0
ENDCHAR
STARTCHAR 309F
ENCODING 12447
SWIDTH 1000 0
DWIDTH 12 0
BBX 8 11 2 -1
BITMAP
10
18
1F
20
20
5C
64
84
44
48
30
ENDCHAR
STARTCHAR 30A0
ENCODING 12448
SWIDTH 1000 0
DWIDTH 12 0
BBX 6 3 3 3
BITMAP
FC
00
FC
ENDCHAR
STARTCHAR 30A1
ENCODING 12449
SWIDTH 1000 0
DWIDTH 12 0
BBX 8 8 2 -1
BITMAP
FF
02
1C
10
10
10
20
40
ENDCHAR
STARTCHAR 30A2
ENCODING 12450
SWIDTH 1000 0
DWIDTH 12 0
BBX 8 10 2 -1
BITMAP
81
FF
06
18
10
10
10
20
20
C0
ENDCHAR
STARTCHAR 30A3
ENCODING 12451
SWIDTH 1000 0
DWIDTH 12 0
BBX 7 9 2 -1
BITMAP
02
04
08
18
68
88
08
08
08
ENDCHAR
STARTCHAR 30A4
ENCODING 12452
SWIDTH 1000 0
DWIDTH 12 0
BBX 8 11 1 -1
BITMAP
02
01
02
04
1C
64
84
04
04
04
04
ENDCHAR
STARTCHAR 30A5
ENCODING 12453
SWIDTH 1000 0
DWIDTH 12 0
BBX 6 9 3 -1
BITMAP
20
24
DC
84
84
08
08
30
40
ENDCHAR
STARTCHAR 30A6
ENCODING 12454
SWIDTH 1000 0
DWIDTH 12 0
BBX 8 10 2 0
BITMAP
10
18
93
ED
81
82
82
04
08
30
ENDCHAR
STARTCHAR 30A7
ENCODING 12455
SWIDTH 1000 0
DWIDTH 12 0
BBX 8 5 2 1
BITMAP
7E
10
10
10
FF
ENDCHAR
STARTCHAR 30A8
ENCODING 12456
SWIDTH 1000 0
DWIDTH 12 0
BBX 10 7 1 1
BITMAP
7F80
0800
0800
0800
0800
88C0
F700
ENDCHAR
STARTCHAR 30A9
ENCODING 12457
SWIDTH 1000 0
DWIDTH 12 0
BBX 8 9 2 -1
BITMAP
08
04
FF
14
14
24
44
8C
04
ENDCHAR
STARTCHAR 30AA
ENCODING 12458
SWIDTH 1000 0
DWIDTH 12 0
BBX 10 10 1 0
BITMAP
0600
0200
0200
7FC0
0600
0A00
1200
2200
4A00
8600
ENDCHAR
STARTCHAR 30AB
ENCODING 12459
SWIDTH 1000 0
DWIDTH 12 0
BBX 9 10 1 0
BITMAP
0800
0400
0400
7F80
0880
0880
1080
1100
2500
C200
ENDCHAR
STARTCHAR 30AC
ENCODING 12460
SWIDTH 1000 0
DWIDTH 12 0
BBX 10 10 1 0
BITMAP
0840
0480
0400
7F80
0880
0880
1080
1100
2500
C200
ENDCHAR
STARTCHAR 30AD
ENCODING 12461
SWIDTH 1000 0
DWIDTH 12 0
BBX 10 11 1 -1
BITMAP
1800
0800
0900
0E80
7800
08C0
7F00
8400
0400
0400
0200
ENDCHAR
STARTCHAR 30AE
ENCODING 12462
SWIDTH 1000 0
DWIDTH 12 0
BBX 10 11 1 -1
BITMAP
1840
08C0
0900
0E80
7800
08C0
7F00
8400
0400
0400
0200
ENDCHAR
STARTCHAR 30AF
ENCODING 12463
SWIDTH 1000 0
DWIDTH 12 0
BBX 8 9 2 0
BITMAP
10
1F
22
42
84
04
08
10
E0
ENDCHAR
STARTCHAR 30B0
ENCODING 12464
SWIDTH 1000 0
DWIDTH 12 0
BBX 10 10 2 0
BITMAP
01C0
1080
1F00
2200
4200
8400
0400
0800
1000
E000
ENDCHAR
STARTCHAR 30B1
ENCODING 12465
SWIDTH 1000 0
DWIDTH 12 0
BBX 10 9 1 0
BITMAP
3000
1000
3FC0
4400
8400
0400
0400
0800
3000
ENDCHAR
STARTCHAR 30B2
ENCODING 12466
SWIDTH 1000 0
DWIDTH 12 0
BBX 11 10 1 0
BITMAP
00E0
3040
1000
3FC0
4400
8400
0400
0400
0800
3000
ENDCHAR
STARTCHAR 30B3
ENCODING 12467
SWIDTH 1000 0
DWIDTH 12 0
BBX 8 7 2 1
BITMAP
82
7F
02
02
02
02
FE
ENDCHAR
STARTCHAR 30B4
ENCODING 12468
SWIDTH 1000 0
DWIDTH 12 0
BBX 10 9 2 1
BITMAP
0080
0140
8200
7F00
0200
0200
0200
0200
FE00
ENDCHAR
STARTCHAR 30B5
ENCODING 12469
SWIDTH 1000 0
DWIDTH 12 0
BBX 10 10 1 0
BITMAP
0200
2200
3200
E3C0
3E00
2200
3200
0200
0400
1800
ENDCHAR
STARTCHAR 30B6
ENCODING 12470
SWIDTH 1000 0
DWIDTH 12 0
BBX 11 10 1 0
BITMAP
0360
2280
3200
E3C0
3E00
2200
3200
0200
0400
1800
ENDCHAR
STARTCHAR 30B7
ENCODING 12471
SWIDTH 1000 0
DWIDTH 12 0
BBX 10 9 1 0
BITMAP
3000
0840
C080
2080
0100
0200
0400
4800
3000
ENDCHAR
STARTCHAR 30B8
ENCODING 12472
SWIDTH 1000 0
DWIDTH 12 0
BBX 10 10 1 0
BITMAP
01C0
3080
0840
C080
2080
0100
0200
0400
4800
3000
ENDCHAR
STARTCHAR 30B9
ENCODING 12473
SWIDTH 1000 0
DWIDTH 12 0
BBX 10 9 1 0
BITMAP
0300
3E00
0200
0400
0400
0A00
1180
2040
C000
ENDCHAR
STARTCHAR 30BA
ENCODING 12474
SWIDTH 1000 0
DWIDTH 12 0
BBX 10 10 1 0
BITMAP
0140
0380
3E00
0200
0400
0400
0A00
1180
2040
C000
ENDCHAR
STARTCHAR 30BB
ENCODING 12475
SWIDTH 1000 0
DWIDTH 12 0
BBX 9 9 1 0
BITMAP
3000
1000
1180
FF00
1200
1000
1000
1000
0F80
ENDCHAR
STARTCHAR 30BC
ENCODING 12476
SWIDTH 1000 0
DWIDTH 12 0
BBX 11 10 1 0
BITMAP
0060
30C0
1000
1180
FF00
1200
1000
1000
1000
0F80
ENDCHAR
STARTCHAR 30BD
ENCODING 12477
SWIDTH 1000 0
DWIDTH 12 0
BBX 8 9 2 0
BITMAP
03
81
41
42
02
04
08
10
60
ENDCHAR
STARTCHAR 30BE
ENCODING 12478
SWIDTH 1000 0
DWIDTH 12 0
BBX 10 10 2 0
BITMAP
01C0
0280
8100
4100
4200
0200
0400
0800
1000
6000
ENDCHAR
STARTCHAR 30BF
ENCODING 12479
SWIDTH 1000 0
DWIDTH 12 0
BBX 8 9 2 0
BITMAP
10
1F
22
62
9C
04
0A
10
E0
ENDCHAR
STARTCHAR 30C0
ENCODING 12480
SWIDTH 1000 0
DWIDTH 12 0
BBX 10 10 2 0
BITMAP
01C0
1080
1F00
2200
6200
9C00
0400
0A00
1000
E000
ENDCHAR
STARTCHAR 30C1
ENCODING 12481
SWIDTH 1000 0
DWIDTH 12 0
BBX 10 10 1 0
BITMAP
0200
0300
3C00
4400
85C0
7E00
0800
0800
0800
3000
ENDCHAR
STARTCHAR 30C2
ENCODING 12482
SWIDTH 1000 0
DWIDTH 12 0
BBX 11 10 1 0
BITMAP
02E0
0340
3C00
4400
85C0
7E00
0800
0800
0800
3000
ENDCHAR
STARTCHAR 30C3
ENCODING 12483
SWIDTH 1000 0
DWIDTH 12 0
BBX 8 7 2 0
BITMAP
A3
92
52
04
04
08
70
ENDCHAR
STARTCHAR 30C4
ENCODING 12484
SWIDTH 1000 0
DWIDTH 12 0
BBX 9 9 1 0
BITMAP
1080
8880
4880
4100
0100
0200
0400
0800
3000
ENDCHAR
STARTCHAR 30C5
ENCODING 12485
SWIDTH 1000 0
DWIDTH 12 0
BBX 11 10 1 0
BITMAP
00E0
1140
8880
4880
4100
0100
0200
0400
0800
3000
ENDCHAR
STARTCHAR 30C6
ENCODING 12486
SWIDTH 1000 0
DWIDTH 12 0
BBX 10 10 1 -1
BITMAP
3F00
0000
0000
FFC0
0400
0400
0800
0800
1000
6000
ENDCHAR
STARTCHAR 30C7
ENCODING 12487
SWIDTH 1000 0
DWIDTH 12 0
BBX 11 11 1 -1
BITMAP
00E0
3F40
0000
0000
FFC0
0400
0400
0800
0800
1000
6000
ENDCHAR
STARTCHAR 30C8
ENCODING 12488
SWIDTH 1000 0
DWIDTH 12 0
BBX 6 11 4 -1
BITMAP
80
80
80
80
60
98
84
80
80
80
80
ENDCHAR
STARTCHAR 30C9
ENCODING 12489
SWIDTH 1000 0
DWIDTH 12 0
BBX 6 11 4 -1
BITMAP
80
88
94
88
60
98
84
80
80
80
80
ENDCHAR
STARTCHAR 30CA
ENCODING 12490
SWIDTH 1000 0
DWIDTH 12 0
BBX 10 10 1 0
BITMAP
0C00
0400
0400
FFC0
0400
0400
0800
0800
1000
2000
ENDCHAR
STARTCHAR 30CB
ENCODING 12491
SWIDTH 1000 0
DWIDTH 12 0
BBX 10 6 1 2
BITMAP
0100
7E80
0000
0000
0000
FFC0
ENDCHAR
STARTCHAR 30CC
ENCODING 12492
SWIDTH 1000 0
DWIDTH 12 0
BBX 8 9 2 0
BITMAP
82
7E
04
64
18
0E
11
20
C0
ENDCHAR
STARTCHAR 30CD
ENCODING 12493
SWIDTH 1000 0
DWIDTH 12 0
BBX 9 11 1 -1
BITMAP
1800
0400
0200
3F00
0400
0C00
1780
2480
C400
0400
0800
ENDCHAR
STARTCHAR 30CE
ENCODING 12494
SWIDTH 1000 0
DWIDTH 12 0
BBX 7 9 2 0
BITMAP
06
02
04
04
08
08
10
20
C0
ENDCHAR
STARTCHAR 30CF
ENCODING 12495
SWIDTH 1000 0
DWIDTH 12 0
BBX 10 7 1 1
BITMAP
1200
1100
1080
20C0
4040
4040
8000
ENDCHAR
STARTCHAR 30D0
ENCODING 12496
SWIDTH 1000 0
DWIDTH 12 0
BBX 10 9 1 1
BITMAP
02C0
0180
1200
1100
1080
20C0
4040
4040
8000
ENDCHAR
STARTCHAR 30D1
ENCODING 12497
SWIDTH 1000 0
DWIDTH 12 0
BBX 10 9 1 1
BITMAP
00C0
00C0
1200
1100
1080
20C0
4040
4040
8000
ENDCHAR
STARTCHAR 30D2
ENCODING 12498
SWIDTH 1000 0
DWIDTH 12 0
BBX 8 9 2 0
BITMAP
C0
42
42
4C
70
40
40
40
3F
ENDCHAR
STARTCHAR 30D3
ENCODING 12499
SWIDTH 1000 0
DWIDTH 12 0
BBX 9 10 2 0
BITMAP
0080
C180
4200
4200
4C00
7000
4000
4000
4000
3F00
ENDCHAR
STARTCHAR 30D4
ENCODING 12500
SWIDTH 1000 0
DWIDTH 12 0
BBX 9 10 2 0
BITMAP
0180
C180
4200
4200
4C00
7000
4000
4000
4000
3F00
ENDCHAR
STARTCHAR 30D5
ENCODING 12501
SWIDTH 1000 0
DWIDTH 12 0
BBX 8 8 2 0
BITMAP
FF
01
02
02
04
08
10
60
ENDCHAR
STARTCHAR 30D6
ENCODING 12502
SWIDTH 1000 0
DWIDTH 12 0
BBX 10 10 2 0
BITMAP
01C0
0080
FF00
0100
0200
0200
0400
0800
1000
6000
ENDCHAR
STARTCHAR 30D7
ENCODING 12503
SWIDTH 1000 0
DWIDTH 12 0
BBX 10 10 2 0
BITMAP
00C0
00C0
FF00
0100
0200
0200
0400
0800
1000
6000
ENDCHAR
STARTCHAR 30D8
ENCODING 12504
SWIDTH 1000 0
DWIDTH 12 0
BBX 10 6 1 2
BITMAP
1800
1400
2200
4100
8080
0040
ENDCHAR
STARTCHAR 30D9
ENCODING 12505
SWIDTH 1000 0
DWIDTH 12 0
BBX 10 7 1 2
BITMAP
0080
1980
1400
2200
4100
8080
0040
ENDCHAR
STARTCHAR 30DA
ENCODING 12506
SWIDTH 1000 0
DWIDTH 12 0
BBX 10 7 1 2
BITMAP
0180
1A80
1580
2200
4100
8080
0040
ENDCHAR
STARTCHAR 30DB
ENCODING 12507
SWIDTH 1000 0
DWIDTH 12 0
BBX 10 10 1 0
BITMAP
0800
0C00
0800
FFC0
0800
6900
4880
4840
A440
1800
ENDCHAR
STARTCHAR 30DC
ENCODING 12508
SWIDTH 1000 0
DWIDTH 12 0
BBX 11 10 1 0
BITMAP
0840
0CA0
0800
FFC0
0800
6900
4880
4840
A440
1800
ENDCHAR
STARTCHAR 30DD
ENCODING 12509
SWIDTH 1000 0
DWIDTH 12 0
BBX 10 10 1 0
BITMAP
08C0
0D40
08C0
FFC0
0800
6900
4880
4840
A440
1800
ENDCHAR
STARTCHAR 30DE
ENCODING 12510
SWIDTH 1000 0
DWIDTH 12 0
BBX 9 8 1 0
BITMAP
FF80
0080
0100
2200
1C00
0C00
0400
0400
ENDCHAR
STARTCHAR 30DF
ENCODING 12511
SWIDTH 1000 0
DWIDTH 12 0
BBX 6 9 3 0
BITMAP
F0
08
00
F0
08
00
E0
18
04
ENDCHAR
STARTCHAR 30E0
ENCODING 12512
SWIDTH 1000 0
DWIDTH 12 0
BBX 9 9 1 0
BITMAP
0800
0800
0800
1000
1200
2100
2080
DF80
6080
ENDCHAR
STARTCHAR 30E1
ENCODING 12513
SWIDTH 1000 0
DWIDTH 12 0
BBX 7 9 2 0
BITMAP
06
02
44
34
0C
12
22
40
80
ENDCHAR
STARTCHAR 30E2
ENCODING 12514
SWIDTH 1000 0
DWIDTH 12 0
BBX 9 9 1 0
BITMAP
0300
7C00
1000
1180
FE00
1000
1000
1000
0F80
ENDCHAR
STARTCHAR 30E3
ENCODING 12515
SWIDTH 1000 0
DWIDTH 12 0
BBX 8 9 2 -1
BITMAP
20
20
27
FA
14
10
10
10
08
ENDCHAR
STARTCHAR 30E4
ENCODING 12516
SWIDTH 1000 0
DWIDTH 12 0
BBX 10 10 1 -1
BITMAP
3000
1080
17C0
F900
0A00
0800
0800
0800
0400
0400
ENDCHAR
STARTCHAR 30E5
ENCODING 12517
SWIDTH 1000 0
DWIDTH 12 0
BBX 8 6 2 1
BITMAP
04
7E
04
04
04
FF
ENDCHAR
STARTCHAR 30E6
ENCODING 12518
SWIDTH 1000 0
DWIDTH 12 0
BBX 10 7 1 1
BITMAP
4100
3F00
0100
0200
0200
82C0
FD00
ENDCHAR
STARTCHAR 30E7
ENCODING 12519
SWIDTH 1000 0
DWIDTH 12 0
BBX 6 6 3 1
BITMAP
FC
04
04
7C
04
FC
ENDCHAR
STARTCHAR 30E8
ENCODING 12520
SWIDTH 1000 0
DWIDTH 12 0
BBX 8 7 2 1
BITMAP
FE
03
02
7E
02
02
FE
ENDCHAR
STARTCHAR 30E9
ENCODING 12521
SWIDTH 1000 0
DWIDTH 12 0
BBX 8 9 2 0
BITMAP
7E
00
03
FD
02
04
04
08
70
ENDCHAR
STARTCHAR 30EA
ENCODING 12522
SWIDTH 1000 0
DWIDTH 12 0
BBX 6 10 3 0
BITMAP
10
8C
84
84
84
88
88
08
10
60
ENDCHAR
STARTCHAR 30EB
ENCODING 12523
SWIDTH 1000 0
DWIDTH 12 0
BBX 11 9 1 0
BITMAP
0400
3400
1400
1460
2440
2480
2500
4600
8400
ENDCHAR
STARTCHAR 30EC
ENCODING 12524
SWIDTH 1000 0
DWIDTH 12 0
BBX 8 9 3 0
BITMAP
80
80
82
83
84
88
90
E0
80
ENDCHAR
STARTCHAR 30ED
ENCODING 12525
SWIDTH 1000 0
DWIDTH 12 0
BBX 8 8 2 1
BITMAP
83
FD
81
82
82
82
8F
F0
ENDCHAR
STARTCHAR 30EE
ENCODING 12526
SWIDTH 1000 0
DWIDTH 12 0
BBX 7 7 3 0
BITMAP
FC
86
84
84
08
10
60
ENDCHAR
STARTCHAR 30EF
ENCODING 12527
SWIDTH 1000 0
DWIDTH 12 0
BBX 8 9 2 0
BITMAP
81
FF
82
82
C2
04
04
08
30
ENDCHAR
STARTCHAR 30F0
ENCODING 12528
SWIDTH 1000 0
DWIDTH 12 0
BBX 10 11 1 -1
BITMAP
0400
0400
0400
7F80
2400
2400
A5C0
5E00
0400
0400
0400
ENDCHAR
STARTCHAR 30F1
ENCODING 12529
SWIDTH 1000 0
DWIDTH 12 0
BBX 10 7 1 1
BITMAP
7F80
0200
0C00
0800
0800
0800
FFC0
ENDCHAR
STARTCHAR 30F2
ENCODING 12530
SWIDTH 1000 0
DWIDTH 12 0
BBX 8 9 2 0
BITMAP
81
7F
02
FE
02
04
08
10
20
ENDCHAR
STARTCHAR 30F3
ENCODING 12531
SWIDTH 1000 0
DWIDTH 12 0
BBX 9 9 2 0
BITMAP
8000
6000
2180
0100
0200
0400
0800
9000
6000
ENDCHAR
STARTCHAR 30F4
ENCODING 12532
SWIDTH 1000 0
DWIDTH 12 0
BBX 10 10 2 0
BITMAP
12C0
1980
9300
ED00
8100
8200
8200
0400
0800
3000
ENDCHAR
STARTCHAR 30F5
ENCODING 12533
SWIDTH 1000 0
DWIDTH 12 0
BBX 8 9 2 -1
BITMAP
18
08
77
1A
12
22
2A
44
80
ENDCHAR
STARTCHAR 30F6
ENCODING 12534
SWIDTH 1000 0
DWIDTH 12 0
BBX 8 8 2 0
BITMAP
20
20
3F
48
88
08
10
20
ENDCHAR
STARTCHAR 30F7
ENCODING 12535
SWIDTH 1000 0
DWIDTH 12 0
BBX 10 10 2 0
BITMAP
01C0
8380
FD00
8200
8200
C200
0400
0400
0800
3000
ENDCHAR
STARTCHAR 30F8
ENCODING 12536
SWIDTH 1000 0
DWIDTH 12 0
BBX 11 11 1 -1
BITMAP
0460
04C0
0400
7F80
2400
2400
A5C0
5E00
0400
0400
0400
ENDCHAR
STARTCHAR 30F9
ENCODING 12537
SWIDTH 1000 0
DWIDTH 12 0
BBX 11 9 1 1
BITMAP
00E0
0040
7F80
0200
0C00
0800
0800
0800
FFC0
ENDCHAR
STARTCHAR 30FA
ENCODING 12538
SWIDTH 1000 0
DWIDTH 12 0
BBX 10 10 2 0
BITMAP
01C0
8180
7F00
0200
FE00
0200
0400
0800
0800
3000
ENDCHAR
STARTCHAR 30FB
ENCODING 12539
SWIDTH 1000 0
DWIDTH 12 0
BBX 2 2 5 4
BITMAP
C0
C0
ENDCHAR
STARTCHAR 30FC
ENCODING 12540
SWIDTH 1000 0
DWIDTH 12 0
BBX 10 2 1 4
BITMAP
80C0
FF00
ENDCHAR
STARTCHAR 30FD
ENCODING 12541
SWIDTH 1000 0
DWIDTH 12 0
BBX 5 6 3 2
BITMAP
80
40
20
10
08
08
ENDCHAR
STARTCHAR 30FE
ENCODING 12542
SWIDTH 1000 0
DWIDTH 12 0
BBX 7 7 3 2
BITMAP
04
8A
44
20
10
08
08
ENDCHAR
STARTCHAR 30FF
ENCODING 12543
SWIDTH 1000 0
DWIDTH 12 0
BBX 8 9 2 0
BITMAP
82
FF
02
02
02
02
02
02
02
ENDCHAR
STARTCHAR 31F0
ENCODING 12784
SWIDTH 1000 0
DWIDTH 12 0
BBX 7 8 2 0
BITMAP
20
12
1E
24
44
88
10
60
ENDCHAR
STARTCHAR 31F1
ENCODING 12785
SWIDTH 1000 0
DWIDTH 12 0
BBX 8 7 2 0
BITMAP
30
11
E2
02
04
18
60
ENDCHAR
STARTCHAR 31F2
ENCODING 12786
SWIDTH 1000 0
DWIDTH 12 0
BBX 8 7 2 0
BITMAP
7C
04
08
08
14
22
C1
ENDCHAR
STARTCHAR 31F3
ENCODING 12787
SWIDTH 1000 0
DWIDTH 12 0
BBX 5 8 4 0
BITMAP
C0
40
40
60
50
48
40
40
ENDCHAR
STARTCHAR 31F4
ENCODING 12788
SWIDTH 1000 0
DWIDTH 12 0
BBX 7 7 2 0
BITMAP
7E
04
44
38
14
22
C0
ENDCHAR
STARTCHAR 31F5
ENCODING 12789
SWIDTH 1000 0
DWIDTH 12 0
BBX 8 6 2 0
BITMAP
28
24
22
41
81
80
ENDCHAR
STARTCHAR 31F6
ENCODING 12790
SWIDTH 1000 0
DWIDTH 12 0
BBX 6 7 3 0
BITMAP
80
84
98
E0
80
80
7C
ENDCHAR
STARTCHAR 31F7
ENCODING 12791
SWIDTH 1000 0
DWIDTH 12 0
BBX 6 7 3 0
BITMAP
04
FC
04
08
08
10
E0
ENDCHAR
STARTCHAR 31F8
ENCODING 12792
SWIDTH 1000 0
DWIDTH 12 0
BBX 8 5 2 1
BITMAP
10
28
44
82
01
ENDCHAR
STARTCHAR 31F9
ENCODING 12793
SWIDTH 1000 0
DWIDTH 12 0
BBX 8 8 2 0
BITMAP
10
10
F7
18
52
51
91
B0
ENDCHAR
STARTCHAR 31FA
ENCODING 12794
SWIDTH 1000 0
DWIDTH 12 0
BBX 8 7 2 0
BITMAP
10
10
20
24
42
5E
E1
ENDCHAR
STARTCHAR 31FB
ENCODING 12795
SWIDTH 1000 0
DWIDTH 12 0
BBX 6 7 3 0
BITMAP
F8
00
FC
08
08
10
60
ENDCHAR
STARTCHAR 31FC
ENCODING 12796
SWIDTH 1000 0
DWIDTH 12 0
BBX 5 8 3 0
BITMAP
08
C8
48
48
48
48
10
60
ENDCHAR
STARTCHAR 31FD
ENCODING 12797
SWIDTH 1000 0
DWIDTH 12 0
BBX 9 7 2 0
BITMAP
0800
2800
2900
2980
4A00
4C00
8800
ENDCHAR
STARTCHAR 31FE
ENCODING 12798
SWIDTH 1000 0
DWIDTH 12 0
BBX 7 7 3 0
BITMAP
C0
40
82
84
88
B0
40
ENDCHAR
STARTCHAR 31FF
ENCODING 12799
SWIDTH 1000 0
DWIDTH 12 0
BBX 6 6 3 0
BITMAP
FC
84
84
84
84
F8
ENDCHAR
STARTCHAR 3231
ENCODING 12849
SWIDTH 1000 0
DWIDTH 12 0
BBX 10 11 1 -1
BITMAP
8080
A640
BB40
FFC0
AA40
BFC0
F240
A740
AAC0
A240
8080
ENDCHAR
STARTCHAR 3232
ENCODING 12850
SWIDTH 1000 0
DWIDTH 12 0
BBX 10 11 1 -1
BITMAP
8080
8840
90C0
FFC0
9F40
9140
FF40
DF40
9140
9740
8080
ENDCHAR
STARTCHAR 3239
ENCODING 12857
SWIDTH 1000 0
DWIDTH 12 0
BBX 10 11 1 -1
BITMAP
8080
9640
A540
A4C0
BF40
E440
A240
A2C0
A2C0
A1C0
8080
ENDCHAR
STARTCHAR 3251
ENCODING 12881
SWIDTH 1000 0
DWIDTH 12 0
BBX 10 11 1 -1
BITMAP
3F00
4180
B240
EA40
9240
9240
A240
CA40
7B80
6080
1F00
ENDCHAR
STARTCHAR 3252
ENCODING 12882
SWIDTH 1000 0
DWIDTH 12 0
BBX 10 11 1 -1
BITMAP
3F00
4180
B340
CCC0
9140
9140
A240
CCC0
7F80
6080
1F00
ENDCHAR
STARTCHAR 3253
ENCODING 12883
SWIDTH 1000 0
DWIDTH 12 0
BBX 10 11 1 -1
BITMAP
1E00
6180
B340
EEC0
90C0
9340
A0C0
CCC0
FB80
6080
1F00
ENDCHAR
STARTCHAR 3254
ENCODING 12884
SWIDTH 1000 0
DWIDTH 12 0
BBX 10 11 1 -1
BITMAP
1E00
6180
B180
C940
9340
9540
A540
C7C0
F940
6280
1F00
ENDCHAR
STARTCHAR 3255
ENCODING 12885
SWIDTH 1000 0
DWIDTH 12 0
BBX 10 11 1 -1
BITMAP
1E00
6180
B380
CC40
B440
9340
A0C0
CCC0
FB80
6080
1F00
ENDCHAR
STARTCHAR 3256
ENCODING 12886
SWIDTH 1000 0
DWIDTH 12 0
BBX 10 11 1 -1
BITMAP
3F00
4180
B340
CC40
9740
94C0
A4C0
CD40
7B80
6080
1F00
ENDCHAR
STARTCHAR 3257
ENCODING 12887
SWIDTH 1000 0
DWIDTH 12 0
BBX 10 11 1 -1
BITMAP
1E00
6180
B780
CD40
9140
9240
A240
CA40
FA80
6080
1F00
ENDCHAR
STARTCHAR 3258
ENCODING 12888
SWIDTH 1000 0
DWIDTH 12 0
BBX 10 11 1 -1
BITMAP
3F00
4180
B340
CCC0
9340
9540
A4C0
CCC0
7B80
6080
1F00
ENDCHAR
STARTCHAR 3259
ENCODING 12889
SWIDTH 1000 0
DWIDTH 12 0
BBX 10 11 1 -1
BITMAP
3F00
4180
B340
CCC0
94C0
93C0
A0C0
CD40
7B80
6080
1F00
ENDCHAR
STARTCHAR 325A
ENCODING 12890
SWIDTH 1000 0
DWIDTH 12 0
BBX 10 11 1 -1
BITMAP
1E00
6180
B340
CD40
94C0
A4C0
94C0
8CC0
CD80
7380
1E00
ENDCHAR
STARTCHAR 325B
ENCODING 12891
SWIDTH 1000 0
DWIDTH 12 0
BBX 10 11 1 -1
BITMAP
1E00
6180
B240
EA40
8A40
B240
8A40
CA40
B280
4180
3F00
ENDCHAR
STARTCHAR 325C
ENCODING 12892
SWIDTH 1000 0
DWIDTH 12 0
BBX 10 11 1 -1
BITMAP
1E00
6180
B340
CD40
91C0
A140
9A40
CCC0
B780
6080
1F00
ENDCHAR
STARTCHAR 325D
ENCODING 12893
SWIDTH 1000 0
DWIDTH 12 0
BBX 10 11 1 -1
BITMAP
1E00
6180
B340
CCC0
9140
A240
91C0
88C0
CC80
7380
1E00
ENDCHAR
STARTCHAR 325E
ENCODING 12894
SWIDTH 1000 0
DWIDTH 12 0
BBX 10 11 1 -1
BITMAP
1E00
6180
B180
C940
9340
A540
9D40
8FC0
F140
4280
3F00
ENDCHAR
STARTCHAR 325F
ENCODING 12895
SWIDTH 1000 0
DWIDTH 12 0
BBX 10 11 1 -1
BITMAP
1E00
6180
B380
CC40
9340
A4C0
90C0
88C0
CD80
7380
1E00
ENDCHAR
STARTCHAR 32A4
ENCODING 12964
SWIDTH 1000 0
DWIDTH 12 0
BBX 10 10 1 0
BITMAP
3F00
C980
8840
8940
8F40
8840
8840
FFC0
6080
1F00
ENDCHAR
STARTCHAR 32A5
ENCODING 12965
SWIDTH 1000 0
DWIDTH 12 0
BBX 10 10 1 0
BITMAP
1E00
2100
CC80
8940
BFC0
C940
BF40
8840
4880
3F00
ENDCHAR
STARTCHAR 32A6
ENCODING 12966
SWIDTH 1000 0
DWIDTH 12 0
BBX 10 11 1 -1
BITMAP
1E00
6100
8180
FFC0
8840
8C40
8B40
8840
8840
4880
3F00
ENDCHAR
STARTCHAR 32A7
ENCODING 12967
SWIDTH 1000 0
DWIDTH 12 0
BBX 10 11 1 -1
BITMAP
1E00
6980
9140
FFC0
9040
9F40
A440
C540
BF80
6080
1F00
ENDCHAR
STARTCHAR 32A8
ENCODING 12968
SWIDTH 1000 0
DWIDTH 12 0
BBX 10 11 1 -1
BITMAP
1E00
6980
9140
FFC0
9040
BF40
D140
9F40
D180
6080
1F00
ENDCHAR
STARTCHAR 32B1
ENCODING 12977
SWIDTH 1000 0
DWIDTH 12 0
BBX 10 11 1 -1
BITMAP
1E00
6180
B340
CD40
9440
A740
94C0
8CC0
CD80
7380
1E00
ENDCHAR
STARTCHAR 32B2
ENCODING 12978
SWIDTH 1000 0
DWIDTH 12 0
BBX 10 11 1 -1
BITMAP
1E00
6180
B780
CD40
9140
A140
9A40
8A40
CA80
7280
1F00
ENDCHAR
STARTCHAR 32B3
ENCODING 12979
SWIDTH 1000 0
DWIDTH 12 0
BBX 10 11 1 -1
BITMAP
1E00
6180
B340
CCC0
9340
A140
9F40
8CC0
CC80
7380
1E00
ENDCHAR
STARTCHAR 32B4
ENCODING 12980
SWIDTH 1000 0
DWIDTH 12 0
BBX 10 11 1 -1
BITMAP
1E00
6180
B340
CCC0
8CC0
B4C0
9BC0
88C0
CD80
7380
1E00
ENDCHAR
STARTCHAR 32B5
ENCODING 12981
SWIDTH 1000 0
DWIDTH 12 0
BBX 10 11 1 -1
BITMAP
1E00
6180
9380
9540
F4C0
D4C0
D4C0
FD40
9340
6080
3F00
ENDCHAR
STARTCHAR 32B6
ENCODING 12982
SWIDTH 1000 0
DWIDTH 12 0
BBX 10 11 1 -1
BITMAP
1E00
6180
9280
9240
B240
D240
D240
FA40
9240
6980
3F00
ENDCHAR
STARTCHAR 32B7
ENCODING 12983
SWIDTH 1000 0
DWIDTH 12 0
BBX 10 11 1 -1
BITMAP
1E00
6180
9380
B540
D1C0
D140
D240
FC40
97C0
6080
1F00
ENDCHAR
STARTCHAR 32B8
ENCODING 12984
SWIDTH 1000 0
DWIDTH 12 0
BBX 10 11 1 -1
BITMAP
1E00
6180
9380
B4C0
D140
D240
D1C0
F8C0
9740
6080
3F00
ENDCHAR
STARTCHAR 32B9
ENCODING 12985
SWIDTH 1000 0
DWIDTH 12 0
BBX 10 11 1 -1
BITMAP
1E00
6180
9180
B140
D340
D540
9540
FFC0
9140
6280
3F00
ENDCHAR
STARTCHAR 32BA
ENCODING 12986
SWIDTH 1000 0
DWIDTH 12 0
BBX 10 11 1 -1
BITMAP
1E00
6180
9380
B440
D440
D740
D0C0
F8C0
9740
6080
3F00
ENDCHAR
STARTCHAR 32BB
ENCODING 12987
SWIDTH 1000 0
DWIDTH 12 0
BBX 10 11 1 -1
BITMAP
1E00
6180
9380
B340
D440
D740
D4C0
FCC0
9340
6080
3F00
ENDCHAR
STARTCHAR 32BC
ENCODING 12988
SWIDTH 1000 0
DWIDTH 12 0
BBX 10 11 1 -1
BITMAP
1E00
6180
9780
9540
B540
D240
D240
FA40
9240
6080
3F00
ENDCHAR
STARTCHAR 32BD
ENCODING 12989
SWIDTH 1000 0
DWIDTH 12 0
BBX 10 11 1 -1
BITMAP
1E00
6180
9380
B540
D5C0
D240
D540
FCC0
9740
6080
3F00
ENDCHAR
STARTCHAR 32BE
ENCODING 12990
SWIDTH 1000 0
DWIDTH 12 0
BBX 10 11 1 -1
BITMAP
1E00
6180
9380
94C0
B4C0
D4C0
D3C0
F8C0
9740
6080
3F00
ENDCHAR
STARTCHAR 32BF
ENCODING 12991
SWIDTH 1000 0
DWIDTH 12 0
BBX 10 11 1 -1
BITMAP
1E00
6180
BB80
C540
C4C0
B4C0
8CC0
CD40
B380
4080
3F00
ENDCHAR
STARTCHAR 32D0
ENCODING 13008
SWIDTH 1000 0
DWIDTH 12 0
BBX 10 11 1 -1
BITMAP
1E00
6180
BF40
81C0
8E40
8440
8840
8840
9080
6080
1F00
ENDCHAR
STARTCHAR 32D1
ENCODING 13009
SWIDTH 1000 0
DWIDTH 12 0
BBX 10 11 1 -1
BITMAP
1E00
6180
8340
8240
8C40
9840
E840
8440
8480
6480
1F00
ENDCHAR
STARTCHAR 32D2
ENCODING 13010
SWIDTH 1000 0
DWIDTH 12 0
BBX 10 11 1 -1
BITMAP
1E00
6980
8440
A740
B9C0
A140
A240
8240
8480
7880
1F00
ENDCHAR
STARTCHAR 32D3
ENCODING 13011
SWIDTH 1000 0
DWIDTH 12 0
BBX 10 11 1 -1
BITMAP
1E00
6180
8040
BF40
8840
8840
8840
FBC0
8480
6080
1F00
ENDCHAR
STARTCHAR 32D4
ENCODING 13012
SWIDTH 1000 0
DWIDTH 12 0
BBX 10 11 1 -1
BITMAP
1E00
6580
8440
BFC0
8C40
8C40
9440
A240
CE80
6080
1F00
ENDCHAR
STARTCHAR 32D5
ENCODING 13013
SWIDTH 1000 0
DWIDTH 12 0
BBX 10 11 1 -1
BITMAP
1E00
6580
8440
BF40
89C0
8940
8940
9540
A280
6080
1F00
ENDCHAR
STARTCHAR 32D6
ENCODING 13014
SWIDTH 1000 0
DWIDTH 12 0
BBX 10 11 1 -1
BITMAP
1E00
7980
8840
8B40
BC40
89C0
FE40
8440
8480
6480
1F00
ENDCHAR
STARTCHAR 32D7
ENCODING 13015
SWIDTH 1000 0
DWIDTH 12 0
BBX 10 11 1 -1
BITMAP
1E00
7180
8D40
8F40
9140
A240
8440
8840
9080
6080
1F00
ENDCHAR
STARTCHAR 32D8
ENCODING 13016
SWIDTH 1000 0
DWIDTH 12 0
BBX 10 11 1 -1
BITMAP
1E00
6180
9040
93C0
AC40
C440
8440
8440
8880
7080
1F00
ENDCHAR
STARTCHAR 32D9
ENCODING 13017
SWIDTH 1000 0
DWIDTH 12 0
BBX 10 11 1 -1
BITMAP
1E00
6180
8040
BF40
8140
8140
8140
BE40
8180
6080
1F00
ENDCHAR
STARTCHAR 32DA
ENCODING 13018
SWIDTH 1000 0
DWIDTH 12 0
BBX 10 11 1 -1
BITMAP
1E00
6180
9240
9240
FFC0
9240
9240
8240
8480
7880
1F00
ENDCHAR
STARTCHAR 32DB
ENCODING 13019
SWIDTH 1000 0
DWIDTH 12 0
BBX 10 11 1 -1
BITMAP
1E00
6180
9840
8840
B0C0
9140
8240
8C40
B080
6080
1F00
ENDCHAR
STARTCHAR 32DC
ENCODING 13020
SWIDTH 1000 0
DWIDTH 12 0
BBX 10 11 1 -1
BITMAP
1E00
6180
9E40
8240
8440
8440
8B40
90C0
E080
6080
1F00
ENDCHAR
STARTCHAR 32DD
ENCODING 13021
SWIDTH 1000 0
DWIDTH 12 0
BBX 10 11 1 -1
BITMAP
1E00
6180
9040
9140
FF40
9240
9440
9040
8F80
6080
1F00
ENDCHAR
STARTCHAR 32DE
ENCODING 13022
SWIDTH 1000 0
DWIDTH 12 0
BBX 10 11 1 -1
BITMAP
1E00
6180
8140
A140
9140
8240
8240
8440
8880
7080
1F00
ENDCHAR
STARTCHAR 32DF
ENCODING 13023
SWIDTH 1000 0
DWIDTH 12 0
BBX 10 11 1 -1
BITMAP
1E00
6980
8940
8F40
9240
AA40
8640
8640
9880
6080
1F00
ENDCHAR
STARTCHAR 32E0
ENCODING 13024
SWIDTH 1000 0
DWIDTH 12 0
BBX 10 11 1 -1
BITMAP
1E00
6180
8240
BC40
8440
FFC0
8440
8840
9080
6080
1F00
ENDCHAR
STARTCHAR 32E1
ENCODING 13025
SWIDTH 1000 0
DWIDTH 12 0
BBX 10 11 1 -1
BITMAP
1E00
6180
9140
C8C0
A940
A140
8240
8440
8880
7080
1F00
ENDCHAR
STARTCHAR 32E2
ENCODING 13026
SWIDTH 1000 0
DWIDTH 12 0
BBX 10 11 1 -1
BITMAP
1E00
6180
9F40
8040
FFC0
8440
8440
8840
8880
7080
1F00
ENDCHAR
STARTCHAR 32E3
ENCODING 13027
SWIDTH 1000 0
DWIDTH 12 0
BBX 10 11 1 -1
BITMAP
1E00
6180
9840
8840
8840
8E40
8940
8840
8880
6080
1F00
ENDCHAR
STARTCHAR 32E5
ENCODING 13029
SWIDTH 1000 0
DWIDTH 12 0
BBX 10 11 1 -1
BITMAP
1E00
6180
8040
BF40
8040
8040
FFC0
8040
8080
6080
1F00
ENDCHAR
STARTCHAR 32E9
ENCODING 13033
SWIDTH 1000 0
DWIDTH 12 0
BBX 10 11 1 -1
BITMAP
1E00
6180
8040
9240
9140
A0C0
A0C0
C040
8080
6080
1F00
ENDCHAR
STARTCHAR 32EC
ENCODING 13036
SWIDTH 1000 0
DWIDTH 12 0
BBX 10 11 1 -1
BITMAP
1E00
6180
8040
9840
9440
A240
C140
80C0
8080
6080
1F00
ENDCHAR
STARTCHAR 32ED
ENCODING 13037
SWIDTH 1000 0
DWIDTH 12 0
BBX 10 11 1 -1
BITMAP
1E00
6980
8440
F9C0
8E40
A940
A8C0
C4C0
9880
6080
1F00
ENDCHAR
STARTCHAR 32FA
ENCODING 13050
SWIDTH 1000 0
DWIDTH 12 0
BBX 10 11 1 -1
BITMAP
1E00
6180
8040
BF40
A140
A140
A140
A140
BE80
6080
1F00
ENDCHAR
STARTCHAR 3303
ENCODING 13059
SWIDTH 1000 0
DWIDTH 12 0
BBX 10 11 1 -1
BITMAP
F800
1000
27C0
2000
4000
8000
6000
6400
6800
9000
A000
ENDCHAR
STARTCHAR 330D
ENCODING 13069
SWIDTH 1000 0
DWIDTH 12 0
BBX 10 11 1 -1
BITMAP
2000
FBC0
5240
5240
B3C0
8000
9000
9000
97C0
2000
4000
ENDCHAR
STARTCHAR 3314
ENCODING 13076
SWIDTH 1000 0
DWIDTH 12 0
BBX 10 11 1 -1
BITMAP
6000
2800
F000
1C00
E000
2000
17C0
0440
0440
0440
0780
ENDCHAR
STARTCHAR 3318
ENCODING 13080
SWIDTH 1000 0
DWIDTH 12 0
BBX 10 11 1 -1
BITMAP
4F80
3000
D3C0
A040
2080
C300
2000
4000
5000
9800
E800
ENDCHAR
STARTCHAR 3322
ENCODING 13090
SWIDTH 1000 0
DWIDTH 12 0
BBX 11 11 0 -1
BITMAP
2200
2D20
F820
2040
3980
0800
1800
7000
1C00
1000
2000
ENDCHAR
STARTCHAR 3323
ENCODING 13091
SWIDTH 1000 0
DWIDTH 12 0
BBX 10 11 1 -1
BITMAP
4400
5A40
F040
4080
7300
8000
4000
6000
5000
4000
4000
ENDCHAR
STARTCHAR 3326
ENCODING 13094
SWIDTH 1000 0
DWIDTH 12 0
BBX 9 11 2 -1
BITMAP
8000
B000
8000
E000
8000
8200
8A00
0A80
0A80
1300
2200
ENDCHAR
STARTCHAR 3327
ENCODING 13095
SWIDTH 1000 0
DWIDTH 12 0
BBX 10 11 1 -1
BITMAP
8000
C000
4000
B000
8000
4400
4240
0040
0080
0100
0600
ENDCHAR
STARTCHAR 332B
ENCODING 13099
SWIDTH 1000 0
DWIDTH 12 0
BBX 11 11 0 -1
BITMAP
0C00
2800
27E0
4400
8000
0080
45C0
FD40
51A0
4280
3440
ENDCHAR
STARTCHAR 3336
ENCODING 13110
SWIDTH 1000 0
DWIDTH 12 0
BBX 11 11 1 -1
BITMAP
0140
62C0
9480
0880
0100
4200
6180
ADA0
D3C0
62C0
8480
ENDCHAR
STARTCHAR 333B
ENCODING 13115
SWIDTH 1000 0
DWIDTH 12 0
BBX 10 11 1 -1
BITMAP
1800
7800
97C0
8800
0000
1800
6800
C800
1000
2000
4000
ENDCHAR
STARTCHAR 3349
ENCODING 13129
SWIDTH 1000 0
DWIDTH 12 0
BBX 9 11 1 -1
BITMAP
4000
3000
6000
1000
E080
1280
0280
0280
0080
0080
0300
ENDCHAR
STARTCHAR 334A
ENCODING 13130
SWIDTH 1000 0
DWIDTH 12 0
BBX 12 11 0 -1
BITMAP
3140
0140
3140
6040
1840
0080
08C0
50D0
4FE0
4960
8240
ENDCHAR
STARTCHAR 334D
ENCODING 13133
SWIDTH 1000 0
DWIDTH 12 0
BBX 10 11 1 -1
BITMAP
1000
9000
67C0
5000
8000
8000
4300
6340
5340
4480
4900
ENDCHAR
STARTCHAR 3351
ENCODING 13137
SWIDTH 1000 0
DWIDTH 12 0
BBX 10 11 1 -1
BITMAP
9000
9640
9580
1080
2100
4200
4300
6340
5340
4480
4900
ENDCHAR
STARTCHAR 3357
ENCODING 13143
SWIDTH 1000 0
DWIDTH 12 0
BBX 10 11 1 -1
BITMAP
8800
F640
9580
2080
2100
4200
4000
4000
7000
4000
4000
ENDCHAR
STARTCHAR 337B
ENCODING 13179
SWIDTH 1000 0
DWIDTH 12 0
BBX 12 11 0 -1
BITMAP
08C0
7CA0
ABE0
6A80
6AA0
73A0
FF40
2340
2360
24A0
2530
ENDCHAR
STARTCHAR 337C
ENCODING 13180
SWIDTH 1000 0
DWIDTH 12 0
BBX 11 10 1 -1
BITMAP
FB40
EEE0
EAC0
EFC0
DAC0
FBC0
EEC0
EAC0
BAC0
2A00
ENDCHAR
STARTCHAR 337D
ENCODING 13181
SWIDTH 1000 0
DWIDTH 12 0
BBX 11 10 0 0
BITMAP
3020
23E0
2880
7C80
2380
12E0
3280
2A80
4AA0
C7E0
ENDCHAR
STARTCHAR 337E
ENCODING 13182
SWIDTH 1000 0
DWIDTH 12 0
BBX 11 10 1 -1
BITMAP
FE80
EA80
FF40
EB40
EAA0
FDC0
ED40
2D40
4DC0
9540
ENDCHAR
STARTCHAR 338E
ENCODING 13198
SWIDTH 1000 0
DWIDTH 12 0
BBX 11 8 1 -1
BITMAP
FBE0
AA80
AA80
A980
AA00
ADC0
0440
03C0
ENDCHAR
STARTCHAR 338F
ENCODING 13199
SWIDTH 1000 0
DWIDTH 12 0
BBX 10 10 1 -1
BITMAP
8000
8000
8000
BBC0
A480
E380
A400
97C0
4C40
03C0
ENDCHAR
STARTCHAR 339C
ENCODING 13212
SWIDTH 1000 0
DWIDTH 12 0
BBX 12 6 0 1
BITMAP
EBE0
5AA0
5AA0
5AA0
5AA0
FFF0
ENDCHAR
STARTCHAR 339D
ENCODING 13213
SWIDTH 1000 0
DWIDTH 12 0
BBX 11 6 1 1
BITMAP
6FC0
9540
8540
8540
9540
6D60
ENDCHAR
STARTCHAR 339E
ENCODING 13214
SWIDTH 1000 0
DWIDTH 12 0
BBX 11 8 1 1
BITMAP
8000
8000
8000
BFC0
C540
A540
A540
BD60
ENDCHAR
STARTCHAR 33A1
ENCODING 13217
SWIDTH 1000 0
DWIDTH 12 0
BBX 10 9 1 1
BITMAP
00C0
00C0
00C0
00C0
5B00
E480
4480
4480
EDC0
ENDCHAR
STARTCHAR 33C4
ENCODING 13252
SWIDTH 1000 0
DWIDTH 12 0
BBX 10 7 1 0
BITMAP
7380
5280
8400
8400
8400
5AC0
7380
ENDCHAR
STARTCHAR 33CB
ENCODING 13259
SWIDTH 1000 0
DWIDTH 12 0
BBX 10 8 1 1
BITMAP
EF80
4440
4440
4440
7F80
4400
4400
EE00
ENDCHAR
STARTCHAR 33CD
ENCODING 13261
SWIDTH 1000 0
DWIDTH 12 0
BBX 11 8 1 1
BITMAP
B680
A500
C500
C500
C300
A500
A480
BEE0
ENDCHAR
STARTCHAR 3402
ENCODING 13314
SWIDTH 1000 0
DWIDTH 12 0
BBX 10 11 1 -1
BITMAP
1000
2080
3F00
E100
1F00
0000
6B40
7380
CE40
4A40
79C0
ENDCHAR
STARTCHAR 3406
ENCODING 13318
SWIDTH 1000 0
DWIDTH 12 0
BBX 7 11 2 -1
BITMAP
0E
74
7E
42
7E
7E
42
7E
42
42
9C
ENDCHAR
STARTCHAR 342C
ENCODING 13356
SWIDTH 1000 0
DWIDTH 12 0
BBX 10 11 1 -1
BITMAP
0400
0840
FFC0
0C00
1300
7E80
2140
4D00
4940
49C0
8000
ENDCHAR
STARTCHAR 342E
ENCODING 13358
SWIDTH 1000 0
DWIDTH 12 0
BBX 12 12 0 -2
BITMAP
0640
7FE0
0900
79E0
3FE0
3FC0
0920
7FE0
0A40
39A0
CAC0
3430
ENDCHAR
STARTCHAR 3468
ENCODING 13416
SWIDTH 1000 0
DWIDTH 12 0
BBX 12 11 0 -1
BITMAP
1040
27C0
2860
27C0
2440
E7E0
A900
2FE0
2300
2280
3C70
ENDCHAR
STARTCHAR 346A
ENCODING 13418
SWIDTH 1000 0
DWIDTH 12 0
BBX 12 11 0 -1
BITMAP
2100
1120
2FE0
2480
2300
6EF0
B7C0
27C0
2440
2840
3040
ENDCHAR
STARTCHAR 3492
ENCODING 13458
SWIDTH 1000 0
DWIDTH 12 0
BBX 12 11 0 -1
BITMAP
1280
1AE0
26E0
2FE0
2280
6FE0
AFE0
2FE0
2380
2540
3930
ENDCHAR
STARTCHAR 34B5
ENCODING 13493
SWIDTH 1000 0
DWIDTH 12 0
BBX 10 11 1 -1
BITMAP
0C00
0900
7F80
4080
7F80
4080
7F80
6000
3200
2180
C040
ENDCHAR
STARTCHAR 34BC
ENCODING 13500
SWIDTH 1000 0
DWIDTH 12 0
BBX 10 11 1 -1
BITMAP
1340
FFC0
1200
1E00
7FC0
8880
BB80
AA80
BB80
8880
8B80
ENDCHAR
STARTCHAR 34C1
ENCODING 13505
SWIDTH 1000 0
DWIDTH 12 0
BBX 10 7 1 1
BITMAP
8080
7FC0
9440
9C80
2440
43C0
8000
ENDCHAR
STARTCHAR 34C7
ENCODING 13511
SWIDTH 1000 0
DWIDTH 12 0
BBX 10 11 1 -2
BITMAP
8380
5E00
2200
4240
5FC0
4200
8600
8500
8880
9040
2040
ENDCHAR
STARTCHAR 34DB
ENCODING 13531
SWIDTH 1000 0
DWIDTH 12 0
BBX 10 11 1 -1
BITMAP
0080
1FC0
F240
4240
4240
4440
4440
5440
6480
8880
1380
ENDCHAR
STARTCHAR 351F
ENCODING 13599
SWIDTH 1000 0
DWIDTH 12 0
BBX 10 11 1 -1
BITMAP
2200
6380
FF80
A680
FAC0
23C0
DC40
FF80
08C0
1080
E700
ENDCHAR
STARTCHAR 355D
ENCODING 13661
SWIDTH 1000 0
DWIDTH 12 0
BBX 10 12 1 -2
BITMAP
0800
0C40
FFC0
7F80
4080
7F80
0100
7F80
2100
1E00
1A00
E1C0
ENDCHAR
STARTCHAR 355E
ENCODING 13662
SWIDTH 1000 0
DWIDTH 12 0
BBX 12 11 0 -1
BITMAP
0400
7FE0
4520
7D20
4940
7F40
6CC0
6C80
6CC0
AD20
8A30
ENDCHAR
STARTCHAR 3563
ENCODING 13667
SWIDTH 1000 0
DWIDTH 12 0
BBX 11 11 1 -1
BITMAP
0200
0E00
1200
2100
4080
8060
BF80
4100
4100
3F00
4100
ENDCHAR
STARTCHAR 356E
ENCODING 13678
SWIDTH 1000 0
DWIDTH 12 0
BBX 11 10 1 -1
BITMAP
2500
E880
A840
B8C0
A500
E200
A200
8500
0880
1060
ENDCHAR
STARTCHAR 35A6
ENCODING 13734
SWIDTH 1000 0
DWIDTH 12 0
BBX 11 11 1 -1
BITMAP
0200
2240
FFC0
AFC0
AA80
AF80
EF80
A300
8E80
1260
2200
ENDCHAR
STARTCHAR 35A8
ENCODING 13736
SWIDTH 1000 0
DWIDTH 12 0
BBX 11 11 1 -1
BITMAP
0500
2780
F480
A700
9FC0
AB40
E780
A680
8A40
1260
0600
ENDCHAR
STARTCHAR 35C5
ENCODING 13765
SWIDTH 1000 0
DWIDTH 12 0
BBX 10 11 1 -1
BITMAP
0440
09C0
E940
BF40
A9C0
A940
BFC0
F540
9E40
1240
04C0
ENDCHAR
STARTCHAR 35DA
ENCODING 13786
SWIDTH 1000 0
DWIDTH 12 0
BBX 11 11 1 -1
BITMAP
0040
1FC0
E500
AFC0
B540
AFC0
A240
FFE0
8300
0EC0
3220
ENDCHAR
STARTCHAR 35F4
ENCODING 13812
SWIDTH 1000 0
DWIDTH 12 0
BBX 10 11 1 -1
BITMAP
0440
0FC0
EDC0
B540
ADC0
B740
B5C0
F740
9740
1040
10C0
ENDCHAR
STARTCHAR 3605
ENCODING 13829
SWIDTH 1000 0
DWIDTH 12 0
BBX 11 11 1 -1
BITMAP
0A40
D5C0
E500
DF40
DCE0
D740
BD40
DE40
9E40
1340
1D80
ENDCHAR
STARTCHAR 364A
ENCODING 13898
SWIDTH 1000 0
DWIDTH 12 0
BBX 11 12 1 -2
BITMAP
4080
4FC0
4F80
F880
4F80
4840
5FC0
4A80
5AC0
E900
8A80
1460
ENDCHAR
STARTCHAR 3691
ENCODING 13969
SWIDTH 1000 0
DWIDTH 12 0
BBX 10 12 1 -2
BITMAP
0100
7F80
0140
FFC0
0100
7F00
0840
FFC0
0C00
0A00
1180
E040
ENDCHAR
STARTCHAR 3696
ENCODING 13974
SWIDTH 1000 0
DWIDTH 12 0
BBX 10 11 1 -1
BITMAP
0800
0D00
7F80
7F80
4080
7F80
0840
FFC0
0C00
1200
E1C0
ENDCHAR
STARTCHAR 3699
ENCODING 13977
SWIDTH 1000 0
DWIDTH 12 0
BBX 10 12 1 -2
BITMAP
2080
2BC0
FA40
4A40
4BC0
B400
0840
FFC0
0C00
0A00
1180
E040
ENDCHAR
STARTCHAR 36CF
ENCODING 14031
SWIDTH 1000 0
DWIDTH 12 0
BBX 12 11 0 -1
BITMAP
0200
21C0
2160
F7E0
5900
55A0
53C0
5340
3D20
3130
C300
ENDCHAR
STARTCHAR 3761
ENCODING 14177
SWIDTH 1000 0
DWIDTH 12 0
BBX 10 11 1 -1
BITMAP
0800
0C40
FFC0
8080
FFC0
7C80
4A80
7A80
4900
FA80
0C40
ENDCHAR
STARTCHAR 3762
ENCODING 14178
SWIDTH 1000 0
DWIDTH 12 0
BBX 10 11 1 -1
BITMAP
0C40
7FC0
8140
7E80
3F80
4900
BF80
7FC0
8A80
B580
8280
ENDCHAR
STARTCHAR 376B
ENCODING 14187
SWIDTH 1000 0
DWIDTH 12 0
BBX 10 11 1 -1
BITMAP
0C40
7FC0
8480
F780
AD00
D6C0
BF80
AFC0
EF80
9240
9FC0
ENDCHAR
STARTCHAR 376C
ENCODING 14188
SWIDTH 1000 0
DWIDTH 12 0
BBX 11 11 1 -1
BITMAP
2100
2900
F900
B7C0
E900
F940
FFC0
F100
9A80
F260
9440
ENDCHAR
STARTCHAR 3775
ENCODING 14197
SWIDTH 1000 0
DWIDTH 12 0
BBX 10 11 1 -1
BITMAP
0100
3F80
3F80
4080
3F80
7FC0
0280
FFC0
2200
1200
0E00
ENDCHAR
STARTCHAR 378D
ENCODING 14221
SWIDTH 1000 0
DWIDTH 12 0
BBX 11 12 0 -2
BITMAP
0040
3FC0
2040
3FC0
2400
2500
3F80
4480
5C80
44A0
4AA0
B0E0
ENDCHAR
STARTCHAR 37C1
ENCODING 14273
SWIDTH 1000 0
DWIDTH 12 0
BBX 11 11 1 -1
BITMAP
4040
4FE0
E800
FFC0
E900
E940
EFC0
E900
A900
9100
1100
ENDCHAR
STARTCHAR 37E2
ENCODING 14306
SWIDTH 1000 0
DWIDTH 12 0
BBX 10 11 1 -1
BITMAP
4480
4880
7F80
FFC0
0C00
7340
FFC0
7D00
7900
4900
0300
ENDCHAR
STARTCHAR 37E8
ENCODING 14312
SWIDTH 1000 0
DWIDTH 12 0
BBX 11 11 1 -1
BITMAP
8100
4A40
DA40
EFC0
EFE0
E200
EFC0
ED40
AD40
8D40
0DC0
ENDCHAR
STARTCHAR 37F4
ENCODING 14324
SWIDTH 1000 0
DWIDTH 12 0
BBX 11 11 1 -1
BITMAP
0200
4280
4FC0
FA40
EFC0
EA40
E780
E5C0
A540
8540
19E0
ENDCHAR
STARTCHAR 37FD
ENCODING 14333
SWIDTH 1000 0
DWIDTH 12 0
BBX 10 11 1 -1
BITMAP
0040
4FC0
4500
DFC0
ED40
E780
EFC0
EFC0
AA40
8A40
1600
ENDCHAR
STARTCHAR 3800
ENCODING 14336
SWIDTH 1000 0
DWIDTH 12 0
BBX 10 11 1 -1
BITMAP
1800
3F80
3F00
3F00
3FC0
3DC0
A280
4C80
4880
7F80
4080
ENDCHAR
STARTCHAR 382F
ENCODING 14383
SWIDTH 1000 0
DWIDTH 12 0
BBX 8 11 2 -1
BITMAP
02
FF
82
82
FE
80
FF
81
81
FF
81
ENDCHAR
STARTCHAR 3836
ENCODING 14390
SWIDTH 1000 0
DWIDTH 12 0
BBX 11 11 1 -1
BITMAP
6200
4300
F780
D900
D900
D900
D900
D900
F940
5140
50E0
ENDCHAR
STARTCHAR 3840
ENCODING 14400
SWIDTH 1000 0
DWIDTH 12 0
BBX 10 11 1 -1
BITMAP
0400
2A00
3900
48C0
7FC0
C880
5A80
6A80
6980
4880
4380
ENDCHAR
STARTCHAR 385C
ENCODING 14428
SWIDTH 1000 0
DWIDTH 12 0
BBX 11 11 1 -1
BITMAP
4D40
4FC0
EF40
FC80
F580
EFC0
D020
EFC0
EB00
4EC0
7600
ENDCHAR
STARTCHAR 3861
ENCODING 14433
SWIDTH 1000 0
DWIDTH 12 0
BBX 11 11 1 -1
BITMAP
4040
4FC0
F240
EF40
F7E0
FA40
F740
FAC0
F640
6740
68C0
ENDCHAR
STARTCHAR 38FA
ENCODING 14586
SWIDTH 1000 0
DWIDTH 12 0
BBX 10 10 1 -1
BITMAP
1000
1000
1000
9480
9240
9240
9240
1000
9000
6000
ENDCHAR
STARTCHAR 3917
ENCODING 14615
SWIDTH 1000 0
DWIDTH 12 0
BBX 11 10 1 -1
BITMAP
0C80
FFC0
7F80
FFC0
2100
4880
AD60
2A80
4A40
3800
ENDCHAR
STARTCHAR 391A
ENCODING 14618
SWIDTH 1000 0
DWIDTH 12 0
BBX 10 11 1 -1
BITMAP
6440
4BC0
7000
E440
EBC0
C880
5880
4880
4880
4880
4B80
ENDCHAR
STARTCHAR 396F
ENCODING 14703
SWIDTH 1000 0
DWIDTH 12 0
BBX 10 11 1 -1
BITMAP
0100
3F80
4E80
BF40
7F80
7F80
FFC0
7F00
5480
A140
1F00
ENDCHAR
STARTCHAR 3A6E
ENCODING 14958
SWIDTH 1000 0
DWIDTH 12 0
BBX 12 11 0 -1
BITMAP
2540
2DE0
3DC0
7940
2F40
3FF0
E7C0
3FF0
2FE0
2100
6700
ENDCHAR
STARTCHAR 3A73
ENCODING 14963
SWIDTH 1000 0
DWIDTH 12 0
BBX 11 11 0 -1
BITMAP
2AC0
2EE0
2FE0
7FE0
2EE0
3EE0
6FE0
A440
2280
2180
4E60
ENDCHAR
STARTCHAR 3AD6
ENCODING 15062
SWIDTH 1000 0
DWIDTH 12 0
BBX 10 11 1 -1
BITMAP
0C00
0880
0780
0800
0840
FFC0
7F80
7F00
4100
7F00
4100
ENDCHAR
STARTCHAR 3AD7
ENCODING 15063
SWIDTH 1000 0
DWIDTH 12 0
BBX 10 11 1 -1
BITMAP
0100
7F80
7F80
4080
7F80
7F80
0C00
FFC0
0800
0800
1800
ENDCHAR
STARTCHAR 3AEA
ENCODING 15082
SWIDTH 1000 0
DWIDTH 12 0
BBX 11 11 1 -1
BITMAP
0C80
FFC0
0880
7F80
FFC0
2100
EF80
2F60
2900
2F00
2900
ENDCHAR
STARTCHAR 3B0E
ENCODING 15118
SWIDTH 1000 0
DWIDTH 12 0
BBX 10 11 1 -1
BITMAP
0100
7F80
7F80
7F80
2100
D680
6380
FFC0
2500
52C0
9240
ENDCHAR
STARTCHAR 3B1A
ENCODING 15130
SWIDTH 1000 0
DWIDTH 12 0
BBX 11 11 1 -1
BITMAP
4D80
EB00
BF40
ADE0
B340
EF80
B780
FD80
B580
9540
1E60
ENDCHAR
STARTCHAR 3B1C
ENCODING 15132
SWIDTH 1000 0
DWIDTH 12 0
BBX 10 11 1 -1
BITMAP
1040
FFC0
D640
3980
F7C0
2140
FFC0
3F80
3F80
3F80
4080
ENDCHAR
STARTCHAR 3B22
ENCODING 15138
SWIDTH 1000 0
DWIDTH 12 0
BBX 10 11 1 -1
BITMAP
2580
E540
AFC0
AFC0
FFC0
A380
BD40
FFC0
BDC0
05C0
0A40
ENDCHAR
STARTCHAR 3B6D
ENCODING 15213
SWIDTH 1000 0
DWIDTH 12 0
BBX 11 11 0 -1
BITMAP
2240
2F20
2AE0
FAA0
2EA0
24A0
77A0
A5A0
2A20
2A20
36E0
ENDCHAR
STARTCHAR 3B77
ENCODING 15223
SWIDTH 1000 0
DWIDTH 12 0
BBX 11 11 0 -1
BITMAP
3040
27E0
3520
7FE0
2520
37E0
2900
67E0
A120
2220
2CC0
ENDCHAR
STARTCHAR 3B87
ENCODING 15239
SWIDTH 1000 0
DWIDTH 12 0
BBX 12 11 0 -1
BITMAP
2000
21C0
3E00
7FE0
2280
3440
7930
B5E0
A5A0
29C0
2600
ENDCHAR
STARTCHAR 3B88
ENCODING 15240
SWIDTH 1000 0
DWIDTH 12 0
BBX 12 11 0 -1
BITMAP
2100
2120
2FE0
7280
2440
37A0
6830
67E0
A580
2960
2300
ENDCHAR
STARTCHAR 3B8D
ENCODING 15245
SWIDTH 1000 0
DWIDTH 12 0
BBX 10 11 1 -1
BITMAP
0200
3340
FFC0
7A80
6A80
5880
5980
FFC0
0C00
3B80
C840
ENDCHAR
STARTCHAR 3BA4
ENCODING 15268
SWIDTH 1000 0
DWIDTH 12 0
BBX 12 11 0 -1
BITMAP
0620
3FE0
4A60
15E0
6B00
3FC0
DFB0
7FE0
0600
1DC0
6420
ENDCHAR
STARTCHAR 3BB6
ENCODING 15286
SWIDTH 1000 0
DWIDTH 12 0
BBX 11 11 0 -1
BITMAP
3220
2BE0
2AA0
FFE0
2DA0
3DA0
FDE0
AFA0
A4A0
2520
2A60
ENDCHAR
STARTCHAR 3BC3
ENCODING 15299
SWIDTH 1000 0
DWIDTH 12 0
BBX 12 11 0 -1
BITMAP
2120
2FE0
3100
7FE0
2900
3280
6D70
B340
A3C0
2D20
2300
ENDCHAR
STARTCHAR 3BCD
ENCODING 15309
SWIDTH 1000 0
DWIDTH 12 0
BBX 12 11 0 -1
BITMAP
2AC0
2AE0
3AA0
FB40
2EC0
32E0
7FF0
AB40
AAC0
2A40
32C0
ENDCHAR
STARTCHAR 3BF0
ENCODING 15344
SWIDTH 1000 0
DWIDTH 12 0
BBX 11 11 0 -1
BITMAP
2000
27E0
37E0
7880
2FE0
33C0
7FC0
ABC0
2BC0
27E0
2800
ENDCHAR
STARTCHAR 3C0F
ENCODING 15375
SWIDTH 1000 0
DWIDTH 12 0
BBX 12 11 0 -1
BITMAP
26A0
27F0
2B40
FFE0
27C0
3440
6BA0
AFE0
2BA0
2AA0
2860
ENDCHAR
STARTCHAR 3C26
ENCODING 15398
SWIDTH 1000 0
DWIDTH 12 0
BBX 11 11 1 -1
BITMAP
2200
3440
2BC0
FD40
2980
FB00
2300
5300
5C80
AC40
0860
ENDCHAR
STARTCHAR 3CC3
ENCODING 15555
SWIDTH 1000 0
DWIDTH 12 0
BBX 10 11 1 -1
BITMAP
8400
4500
1F80
A500
A540
6AC0
5240
DFC0
4200
4200
4200
ENDCHAR
STARTCHAR 3CD2
ENCODING 15570
SWIDTH 1000 0
DWIDTH 12 0
BBX 11 11 1 -1
BITMAP
4200
4440
1FC0
A500
A880
5240
6460
4500
8880
4FC0
5040
ENDCHAR
STARTCHAR 3D11
ENCODING 15633
SWIDTH 1000 0
DWIDTH 12 0
BBX 10 11 1 -1
BITMAP
0200
C340
5FC0
9480
BFC0
5100
5D40
D7C0
9A00
A200
A400
ENDCHAR
STARTCHAR 3D1E
ENCODING 15646
SWIDTH 1000 0
DWIDTH 12 0
BBX 10 11 1 -1
BITMAP
8080
4F40
32C0
AA80
6180
5BC0
5440
53C0
9440
53C0
5440
ENDCHAR
STARTCHAR 3D64
ENCODING 15716
SWIDTH 1000 0
DWIDTH 12 0
BBX 10 10 1 -1
BITMAP
5FC0
4CC0
BDC0
3340
5FC0
4A80
4A80
9740
4480
5840
ENDCHAR
STARTCHAR 3D9A
ENCODING 15770
SWIDTH 1000 0
DWIDTH 12 0
BBX 10 11 1 -1
BITMAP
0040
FFC0
1FC0
DFC0
D440
7FC0
49C0
9FC0
BD40
8A40
8AC0
ENDCHAR
STARTCHAR 3DC0
ENCODING 15808
SWIDTH 1000 0
DWIDTH 12 0
BBX 11 11 1 -1
BITMAP
2100
7EC0
A700
5380
8D00
7F80
1100
FEC0
10C0
10C0
1060
ENDCHAR
STARTCHAR 3DD4
ENCODING 15828
SWIDTH 1000 0
DWIDTH 12 0
BBX 10 11 1 -1
BITMAP
4080
4F40
5AC0
E680
C180
CBC0
4A40
6BC0
9A40
8BC0
8A40
ENDCHAR
STARTCHAR 3E05
ENCODING 15877
SWIDTH 1000 0
DWIDTH 12 0
BBX 12 11 0 -1
BITMAP
0100
26A0
3FF0
BB40
AFE0
AEA0
2EA0
6AA0
5CA0
4AE0
8F80
ENDCHAR
STARTCHAR 3E3F
ENCODING 15935
SWIDTH 1000 0
DWIDTH 12 0
BBX 11 11 1 -1
BITMAP
2200
C340
DFC0
F280
CFC0
CFC0
3040
D500
4500
4540
59E0
ENDCHAR
STARTCHAR 3E60
ENCODING 15968
SWIDTH 1000 0
DWIDTH 12 0
BBX 10 11 1 -1
BITMAP
8200
A240
4780
DA80
CAC0
6A80
AA80
AF80
2240
2240
C3C0
ENDCHAR
STARTCHAR 3E66
ENCODING 15974
SWIDTH 1000 0
DWIDTH 12 0
BBX 10 11 1 -1
BITMAP
A080
AFC0
C240
C440
4480
7900
AFC0
A880
2880
AF80
4880
ENDCHAR
STARTCHAR 3E68
ENCODING 15976
SWIDTH 1000 0
DWIDTH 12 0
BBX 11 11 0 -1
BITMAP
0100
5180
2120
27E0
6920
2920
57E0
9920
1920
27E0
6820
ENDCHAR
STARTCHAR 3E83
ENCODING 16003
SWIDTH 1000 0
DWIDTH 12 0
BBX 12 11 0 -1
BITMAP
52E0
6FF0
2480
6640
A7E0
3820
5FA0
9720
1520
2040
61C0
ENDCHAR
STARTCHAR 3E94
ENCODING 16020
SWIDTH 1000 0
DWIDTH 12 0
BBX 10 11 1 -1
BITMAP
B380
DC80
5240
DF80
E900
6F80
6880
AFC0
B6C0
3B40
E080
ENDCHAR
STARTCHAR 3F57
ENCODING 16215
SWIDTH 1000 0
DWIDTH 12 0
BBX 10 10 1 0
BITMAP
1300
F200
DA00
D200
D200
F200
D300
F500
9480
1840
ENDCHAR
STARTCHAR 3F72
ENCODING 16242
SWIDTH 1000 0
DWIDTH 12 0
BBX 11 11 0 -1
BITMAP
0200
0220
1FE0
A040
6FE0
2400
27C0
E840
2040
4080
8380
ENDCHAR
STARTCHAR 3F75
ENCODING 16245
SWIDTH 1000 0
DWIDTH 12 0
BBX 11 11 0 -1
BITMAP
0200
0220
1FE0
A000
6300
2240
6FC0
A200
2200
5FE0
8000
ENDCHAR
STARTCHAR 3F77
ENCODING 16247
SWIDTH 1000 0
DWIDTH 12 0
BBX 11 11 0 -1
BITMAP
0200
0220
1FE0
A200
6340
1D60
2780
EA80
2A40
7220
8600
ENDCHAR
STARTCHAR 3FAE
ENCODING 16302
SWIDTH 1000 0
DWIDTH 12 0
BBX 11 10 0 0
BITMAP
0200
0220
3FE0
AFC0
6840
6FC0
BFE0
2240
2FC0
5FE0
ENDCHAR
STARTCHAR 3FC9
ENCODING 16329
SWIDTH 1000 0
DWIDTH 12 0
BBX 11 10 0 -1
BITMAP
0220
3FE0
AFC0
6FC0
3FE0
2FC0
EFC0
2FC0
44C0
9A20
ENDCHAR
STARTCHAR 3FD7
ENCODING 16343
SWIDTH 1000 0
DWIDTH 12 0
BBX 11 11 0 -1
BITMAP
0200
0220
3FE0
A5E0
7FA0
69E0
6FE0
BD20
2DE0
56A0
AB20
ENDCHAR
STARTCHAR 4039
ENCODING 16441
SWIDTH 1000 0
DWIDTH 12 0
BBX 11 11 1 -1
BITMAP
2300
F200
AFC0
EA80
AEC0
AA80
F740
9340
E500
8880
1060
ENDCHAR
STARTCHAR 4058
ENCODING 16472
SWIDTH 1000 0
DWIDTH 12 0
BBX 10 11 1 -1
BITMAP
2300
E7C0
AA80
F500
A600
BFC0
FFC0
A200
EA40
8F80
0880
ENDCHAR
STARTCHAR 4093
ENCODING 16531
SWIDTH 1000 0
DWIDTH 12 0
BBX 11 11 1 -1
BITMAP
4080
87C0
F440
C7C0
D7C0
F440
47C0
6300
5540
9540
98E0
ENDCHAR
STARTCHAR 4105
ENCODING 16645
SWIDTH 1000 0
DWIDTH 12 0
BBX 10 11 1 -1
BITMAP
0800
6D00
2A80
7F80
FFC0
2500
5E80
FFC0
2A00
49C0
9800
ENDCHAR
STARTCHAR 4148
ENCODING 16712
SWIDTH 1000 0
DWIDTH 12 0
BBX 10 11 1 -1
BITMAP
0800
6D00
2A80
7F80
FFC0
2100
5EC0
FF80
0C00
3B80
C840
ENDCHAR
STARTCHAR 414F
ENCODING 16719
SWIDTH 1000 0
DWIDTH 12 0
BBX 12 11 0 -1
BITMAP
1040
37E0
6420
37E0
FC40
2580
3720
77E0
A9C0
2B20
30F0
ENDCHAR
STARTCHAR 4163
ENCODING 16739
SWIDTH 1000 0
DWIDTH 12 0
BBX 11 11 0 -1
BITMAP
0200
3940
E7E0
2FC0
FC40
27C0
37E0
EFE0
2100
2FE0
2000
ENDCHAR
STARTCHAR 41B4
ENCODING 16820
SWIDTH 1000 0
DWIDTH 12 0
BBX 11 11 1 -1
BITMAP
0C00
7FC0
A3C0
7C00
7F80
FF80
7F80
7F80
7FC0
4840
07E0
ENDCHAR
STARTCHAR 41BF
ENCODING 16831
SWIDTH 1000 0
DWIDTH 12 0
BBX 10 11 1 -1
BITMAP
0C00
7FC0
93C0
7B00
E7C0
A780
6780
EFC0
6300
A680
BA40
ENDCHAR
STARTCHAR 41E6
ENCODING 16870
SWIDTH 1000 0
DWIDTH 12 0
BBX 11 9 1 0
BITMAP
6E40
7FC0
A500
7F80
4900
FFE0
0C00
1200
E1E0
ENDCHAR
STARTCHAR 41EE
ENCODING 16878
SWIDTH 1000 0
DWIDTH 12 0
BBX 10 11 1 -1
BITMAP
7640
7FC0
A500
A880
5F00
4240
FFC0
C200
4280
5FC0
4000
ENDCHAR
STARTCHAR 41F3
ENCODING 16883
SWIDTH 1000 0
DWIDTH 12 0
BBX 10 11 1 -1
BITMAP
6E40
7FC0
A500
8A00
1080
EF80
7F40
FF80
0780
0640
F9C0
ENDCHAR
STARTCHAR 4207
ENCODING 16903
SWIDTH 1000 0
DWIDTH 12 0
BBX 11 11 1 -1
BITMAP
6E40
7FC0
A900
07C0
0900
7F80
7F80
4880
FFE0
0800
0800
ENDCHAR
STARTCHAR 420E
ENCODING 16910
SWIDTH 1000 0
DWIDTH 12 0
BBX 12 11 0 -1
BITMAP
3520
3FE0
5280
94A0
7FE0
2780
1FE0
7FE0
0600
1DC0
E430
ENDCHAR
STARTCHAR 4264
ENCODING 16996
SWIDTH 1000 0
DWIDTH 12 0
BBX 11 11 1 -1
BITMAP
4A40
7FC0
9900
7240
FFE0
3280
EE80
FD80
5100
B280
EC40
ENDCHAR
STARTCHAR 42C6
ENCODING 17094
SWIDTH 1000 0
DWIDTH 12 0
BBX 10 11 1 -1
BITMAP
6040
6FC0
B000
47C0
6880
D880
4780
E800
D800
C800
5000
ENDCHAR
STARTCHAR 42D6
ENCODING 17110
SWIDTH 1000 0
DWIDTH 12 0
BBX 11 11 1 -1
BITMAP
4200
6380
9780
6FE0
6280
7F80
C240
DFC0
DFC0
C200
4200
ENDCHAR
STARTCHAR 42DD
ENCODING 17117
SWIDTH 1000 0
DWIDTH 12 0
BBX 11 12 1 -1
BITMAP
4000
7240
9A40
6680
6300
B240
DFE0
4480
D500
DB00
C280
5C40
ENDCHAR
STARTCHAR 4302
ENCODING 17154
SWIDTH 1000 0
DWIDTH 12 0
BBX 10 11 1 -1
BITMAP
4080
6FC0
9840
6FC0
5FC0
FA80
ED40
DFC0
D900
D7C0
5000
ENDCHAR
STARTCHAR 432B
ENCODING 17195
SWIDTH 1000 0
DWIDTH 12 0
BBX 11 11 0 -1
BITMAP
2280
2FC0
DFE0
6FE0
3F00
77C0
37E0
77C0
B6E0
A2A0
2CE0
ENDCHAR
STARTCHAR 4343
ENCODING 17219
SWIDTH 1000 0
DWIDTH 12 0
BBX 10 11 1 -1
BITMAP
0C00
1F80
3980
E600
1C00
6080
FF80
FFC0
4880
7F80
4080
ENDCHAR
STARTCHAR 43EE
ENCODING 17390
SWIDTH 1000 0
DWIDTH 12 0
BBX 11 11 0 -1
BITMAP
1100
7900
57E0
7120
52C0
5420
7640
5280
5280
9460
B820
ENDCHAR
STARTCHAR 43F0
ENCODING 17392
SWIDTH 1000 0
DWIDTH 12 0
BBX 11 11 0 -1
BITMAP
1040
7FE0
5520
72A0
5240
56C0
7180
55C0
5620
9660
B9C0
ENDCHAR
STARTCHAR 4408
ENCODING 17416
SWIDTH 1000 0
DWIDTH 12 0
BBX 12 11 0 -1
BITMAP
1080
78A0
57E0
71E0
5220
55E0
75E0
55E0
5620
D7F0
B400
ENDCHAR
STARTCHAR 4417
ENCODING 17431
SWIDTH 1000 0
DWIDTH 12 0
BBX 11 11 0 -1
BITMAP
1100
7120
57C0
71A0
5FE0
5180
77E0
5BC0
5240
D3C0
B240
ENDCHAR
STARTCHAR 441C
ENCODING 17436
SWIDTH 1000 0
DWIDTH 12 0
BBX 11 11 0 -1
BITMAP
1240
74A0
53E0
7640
55E0
55C0
75C0
57E0
5400
93E0
BC20
ENDCHAR
STARTCHAR 4422
ENCODING 17442
SWIDTH 1000 0
DWIDTH 12 0
BBX 11 11 0 -1
BITMAP
1200
77E0
5560
7FA0
5320
5EE0
77E0
5DA0
57A0
9220
B4C0
ENDCHAR
STARTCHAR 4453
ENCODING 17491
SWIDTH 1000 0
DWIDTH 12 0
BBX 10 10 1 0
BITMAP
2180
FFC0
2100
3F00
3F00
FFC0
FFC0
7E80
FF80
FFC0
ENDCHAR
STARTCHAR 445B
ENCODING 17499
SWIDTH 1000 0
DWIDTH 12 0
BBX 10 11 1 -1
BITMAP
1080
6B40
C500
5500
FFC0
4500
5500
F480
97C0
FF40
9040
ENDCHAR
STARTCHAR 4476
ENCODING 17526
SWIDTH 1000 0
DWIDTH 12 0
BBX 12 10 0 -1
BITMAP
31A0
7FE0
6BE0
6FF0
FBE0
7B40
6BC0
6A40
8A40
B2C0
ENDCHAR
STARTCHAR 447A
ENCODING 17530
SWIDTH 1000 0
DWIDTH 12 0
BBX 12 11 0 -1
BITMAP
3040
23E0
7C20
77A0
75E0
FFA0
75A0
7730
75A0
97E0
B810
ENDCHAR
STARTCHAR 4491
ENCODING 17553
SWIDTH 1000 0
DWIDTH 12 0
BBX 10 4 1 4
BITMAP
2100
1200
1280
FFC0
ENDCHAR
STARTCHAR 44B3
ENCODING 17587
SWIDTH 1000 0
DWIDTH 12 0
BBX 10 11 1 -1
BITMAP
1240
FFC0
1000
7E00
13C0
2080
C700
FFC0
0C00
3B80
C840
ENDCHAR
STARTCHAR 44BE
ENCODING 17598
SWIDTH 1000 0
DWIDTH 12 0
BBX 11 10 0 -1
BITMAP
09A0
7FE0
0420
7FE0
0640
0A60
3180
D080
1340
3C20
ENDCHAR
STARTCHAR 44D4
ENCODING 17620
SWIDTH 1000 0
DWIDTH 12 0
BBX 11 11 0 -1
BITMAP
0920
7FE0
0900
3FC0
0520
7FE0
1F80
FFE0
0200
0200
0E00
ENDCHAR
STARTCHAR 4508
ENCODING 17672
SWIDTH 1000 0
DWIDTH 12 0
BBX 10 11 1 -1
BITMAP
1240
FFC0
0080
7F80
FFC0
3F80
3F00
3F00
3F00
3180
C040
ENDCHAR
STARTCHAR 450D
ENCODING 17677
SWIDTH 1000 0
DWIDTH 12 0
BBX 10 11 1 -1
BITMAP
1240
FFC0
1200
7F80
7F80
4900
7F80
7FC0
AA40
A540
A380
ENDCHAR
STARTCHAR 4525
ENCODING 17701
SWIDTH 1000 0
DWIDTH 12 0
BBX 11 11 0 -1
BITMAP
0920
7FE0
0480
3FC0
7FE0
3F80
2D60
3FC0
2640
4DC0
F440
ENDCHAR
STARTCHAR 4543
ENCODING 17731
SWIDTH 1000 0
DWIDTH 12 0
BBX 11 11 1 -1
BITMAP
1240
FFC0
A200
F600
A980
DFE0
A780
9FC0
E500
8880
9F40
ENDCHAR
STARTCHAR 459D
ENCODING 17821
SWIDTH 1000 0
DWIDTH 12 0
BBX 10 10 1 -1
BITMAP
0780
F800
0900
7F80
4880
4880
7F80
0900
0880
F740
ENDCHAR
STARTCHAR 45B8
ENCODING 17848
SWIDTH 1000 0
DWIDTH 12 0
BBX 10 11 1 -1
BITMAP
0B00
F2C0
FFC0
1680
FBC0
6C00
7F80
7F80
4880
0980
F740
ENDCHAR
STARTCHAR 45E5
ENCODING 17893
SWIDTH 1000 0
DWIDTH 12 0
BBX 12 10 0 -1
BITMAP
27E0
3540
7BE0
B5A0
B440
7D80
3560
2580
3680
D670
ENDCHAR
STARTCHAR 45EA
ENCODING 17898
SWIDTH 1000 0
DWIDTH 12 0
BBX 11 10 0 -1
BITMAP
0620
3FE0
3FE0
4700
5540
4220
5FC0
5FC0
4240
BDA0
ENDCHAR
STARTCHAR 460F
ENCODING 17935
SWIDTH 1000 0
DWIDTH 12 0
BBX 10 11 1 -1
BITMAP
3080
23C0
FA80
DA80
DB00
DA80
DA40
DA40
DFC0
E200
8200
ENDCHAR
STARTCHAR 4641
ENCODING 17985
SWIDTH 1000 0
DWIDTH 12 0
BBX 11 11 0 -1
BITMAP
2280
3260
7DC0
1140
21A0
3E60
73E0
AB80
2540
20A0
2F60
ENDCHAR
STARTCHAR 4665
ENCODING 18021
SWIDTH 1000 0
DWIDTH 12 0
BBX 12 11 0 -1
BITMAP
2040
27E0
77E0
1FE0
37E0
3B00
74C0
BFF0
2140
2140
2180
ENDCHAR
STARTCHAR 46A1
ENCODING 18081
SWIDTH 1000 0
DWIDTH 12 0
BBX 12 11 0 -1
BITMAP
2020
3BE0
52A0
7BE0
EAA0
7BE0
7DC0
4DA0
4D60
8D50
99C0
ENDCHAR
STARTCHAR 46AF
ENCODING 18095
SWIDTH 1000 0
DWIDTH 12 0
BBX 10 11 1 -1
BITMAP
1080
78C0
0A80
FA80
7A80
1280
7A80
9280
9080
7280
9180
ENDCHAR
STARTCHAR 470C
ENCODING 18188
SWIDTH 1000 0
DWIDTH 12 0
BBX 12 11 0 -1
BITMAP
2240
4740
5FA0
62C0
57A0
77E0
2040
76E0
BBD0
A740
2A40
ENDCHAR
STARTCHAR 4764
ENCODING 18276
SWIDTH 1000 0
DWIDTH 12 0
BBX 12 11 0 -1
BITMAP
2100
31A0
5FE0
CEA0
33E0
EFF0
7440
9380
3560
D520
3B00
ENDCHAR
STARTCHAR 47FD
ENCODING 18429
SWIDTH 1000 0
DWIDTH 12 0
BBX 12 11 0 -1
BITMAP
1180
7900
4FE0
4980
7A60
35C0
5F40
6540
6560
7D60
9810
ENDCHAR
STARTCHAR 4816
ENCODING 18454
SWIDTH 1000 0
DWIDTH 12 0
BBX 12 11 0 -1
BITMAP
1080
7D00
57E0
52C0
72C0
2D20
5A30
67E0
6440
FFC0
8440
ENDCHAR
STARTCHAR 4844
ENCODING 18500
SWIDTH 1000 0
DWIDTH 12 0
BBX 11 11 1 -1
BITMAP
2100
5780
FD00
F500
D500
F500
D500
7540
F940
4940
50E0
ENDCHAR
STARTCHAR 484E
ENCODING 18510
SWIDTH 1000 0
DWIDTH 12 0
BBX 11 11 0 -1
BITMAP
3020
2FE0
7800
7BE0
6A20
7A20
6BE0
3A00
FE00
2400
2400
ENDCHAR
STARTCHAR 48B5
ENCODING 18613
SWIDTH 1000 0
DWIDTH 12 0
BBX 10 11 1 -1
BITMAP
0080
0BC0
FA80
0280
0B00
FE80
2240
5240
4A40
FB80
0200
ENDCHAR
STARTCHAR 49B0
ENCODING 18864
SWIDTH 1000 0
DWIDTH 12 0
BBX 10 11 1 -1
BITMAP
0080
FBC0
F3C0
FFC0
9C40
BF40
9E40
BF40
BF40
A940
87C0
ENDCHAR
STARTCHAR 49E7
ENCODING 18919
SWIDTH 1000 0
DWIDTH 12 0
BBX 10 11 1 -1
BITMAP
2880
E500
BFC0
CFC0
DFC0
A300
BDC0
BFC0
E540
9EC0
8F40
ENDCHAR
STARTCHAR 49FA
ENCODING 18938
SWIDTH 1000 0
DWIDTH 12 0
BBX 12 11 0 -1
BITMAP
3140
2A80
7EA0
23E0
2680
3BE0
6A80
ABE0
AA80
3BF0
2200
ENDCHAR
STARTCHAR 4A04
ENCODING 18948
SWIDTH 1000 0
DWIDTH 12 0
BBX 12 11 0 -1
BITMAP
2000
31E0
2980
FDE0
7A80
7DE0
7E80
69E0
7AA0
79F0
4A00
ENDCHAR
STARTCHAR 4A29
ENCODING 18985
SWIDTH 1000 0
DWIDTH 12 0
BBX 10 11 1 -1
BITMAP
0100
7F80
FFC0
FB80
7380
F100
FFC0
B7C0
B7C0
B100
2100
ENDCHAR
STARTCHAR 4ABC
ENCODING 19132
SWIDTH 1000 0
DWIDTH 12 0
BBX 11 10 1 0
BITMAP
2040
47E0
D900
D7C0
F7C0
4440
CFC0
D7C0
D440
FEE0
ENDCHAR
STARTCHAR 4B3B
ENCODING 19259
SWIDTH 1000 0
DWIDTH 12 0
BBX 11 11 0 -1
BITMAP
2100
39C0
3520
53C0
B960
3FA0
4FC0
3960
48A0
5560
A620
ENDCHAR
STARTCHAR 4BC2
ENCODING 19394
SWIDTH 1000 0
DWIDTH 12 0
BBX 12 11 0 -1
BITMAP
1FC0
1F80
1FC0
2D40
7FE0
7BE0
7FE0
FFF0
0600
1DC0
6430
ENDCHAR
STARTCHAR 4BCA
ENCODING 19402
SWIDTH 1000 0
DWIDTH 12 0
BBX 11 11 0 -1
BITMAP
1000
3FE0
5840
EFC0
7EC0
BAC0
4AC0
3BC0
4840
4840
58C0
ENDCHAR
STARTCHAR 4BD2
ENCODING 19410
SWIDTH 1000 0
DWIDTH 12 0
BBX 11 11 0 -1
BITMAP
1200
7BE0
5A00
6D00
79E0
FA40
5240
7E40
5240
5240
52C0
ENDCHAR
STARTCHAR 4BE8
ENCODING 19432
SWIDTH 1000 0
DWIDTH 12 0
BBX 10 11 1 -1
BITMAP
0480
FFC0
3F00
9E00
7FC0
9E40
9FC0
FFC0
0C00
1200
E1C0
ENDCHAR
STARTCHAR 4C17
ENCODING 19479
SWIDTH 1000 0
DWIDTH 12 0
BBX 10 11 1 -1
BITMAP
1100
FFC0
FFC0
FFC0
9C40
BF40
9E40
BF40
BF40
A940
87C0
ENDCHAR
STARTCHAR 4C20
ENCODING 19488
SWIDTH 1000 0
DWIDTH 12 0
BBX 12 10 0 0
BITMAP
2080
3880
7BE0
6AA0
7BE0
7AA0
33E0
5880
54A0
DFF0
ENDCHAR
STARTCHAR 4CC4
ENCODING 19652
SWIDTH 1000 0
DWIDTH 12 0
BBX 12 11 0 -1
BITMAP
29C0
33E0
3640
77C0
7BC0
73F0
7220
75E0
75E0
CF20
02C0
ENDCHAR
STARTCHAR 4CD1
ENCODING 19665
SWIDTH 1000 0
DWIDTH 12 0
BBX 12 11 0 -1
BITMAP
31C0
27E0
7E40
23C0
3BC0
4BF0
BA00
39E0
4BE0
4BA0
5C40
ENDCHAR
STARTCHAR 4D07
ENCODING 19719
SWIDTH 1000 0
DWIDTH 12 0
BBX 12 11 0 -1
BITMAP
0880
7DC0
7E60
FDC0
6DC0
31F0
4A20
FDE0
2FE0
2BA0
2440
ENDCHAR
STARTCHAR 4D77
ENCODING 19831
SWIDTH 1000 0
DWIDTH 12 0
BBX 12 10 0 0
BITMAP
4000
33E0
7DA0
23E0
FFE0
25A0
2FE0
7FE0
25A0
F9F0
ENDCHAR
STARTCHAR 4E00
ENCODING 19968
SWIDTH 1000 0
DWIDTH 12 0
BBX 10 2 1 4
BITMAP
0080
FFC0
ENDCHAR
STARTCHAR 4E01
ENCODING 19969
SWIDTH 1000 0
DWIDTH 12 0
BBX 10 11 1 -2
BITMAP
0040
FFC0
0800
0800
0800
0800
0800
0800
0800
0800
3800
ENDCHAR
STARTCHAR 4E02
ENCODING 19970
SWIDTH 1000 0
DWIDTH 12 0
BBX 10 11 1 -1
BITMAP
0040
FFC0
1000
1000
1100
1F80
2100
2100
0100
0100
1F00
ENDCHAR
STARTCHAR 4E03
ENCODING 19971
SWIDTH 1000 0
DWIDTH 12 0
BBX 10 9 1 0
BITMAP
1000
1000
1040
3F80
D000
1000
1080
1080
1FC0
ENDCHAR
STARTCHAR 4E07
ENCODING 19975
SWIDTH 1000 0
DWIDTH 12 0
BBX 10 11 1 -1
BITMAP
0040
FFC0
0800
0800
0F80
1080
1080
1080
2080
4100
8F00
ENDCHAR
STARTCHAR 4E08
ENCODING 19976
SWIDTH 1000 0
DWIDTH 12 0
BBX 10 11 1 -1
BITMAP
0400
0400
0440
FFC0
0400
2400
1400
0C00
0C00
1300
E0C0
ENDCHAR
STARTCHAR 4E09
ENCODING 19977
SWIDTH 1000 0
DWIDTH 12 0
BBX 10 9 1 0
BITMAP
0080
7F80
0000
0100
7F80
0000
0000
0080
FFC0
ENDCHAR
STARTCHAR 4E0A
ENCODING 19978
SWIDTH 1000 0
DWIDTH 12 0
BBX 10 9 1 0
BITMAP
0C00
0800
0800
0880
0F80
0800
0800
0880
FFC0
ENDCHAR
STARTCHAR 4E0B
ENCODING 19979
SWIDTH 1000 0
DWIDTH 12 0
BBX 10 10 1 -1
BITMAP
0040
FFC0
0800
0800
0E00
0900
0880
0800
0800
0800
ENDCHAR
STARTCHAR 4E0D
ENCODING 19981
SWIDTH 1000 0
DWIDTH 12 0
BBX 10 11 1 -1
BITMAP
0040
FFC0
0400
0800
1E00
1900
2880
C840
0800
0800
0800
ENDCHAR
STARTCHAR 4E0E
ENCODING 19982
SWIDTH 1000 0
DWIDTH 12 0
BBX 10 12 1 -2
BITMAP
3000
2100
3F80
2000
2200
3F00
4200
FFC0
0200
0200
2200
1C00
ENDCHAR
STARTCHAR 4E0F
ENCODING 19983
SWIDTH 1000 0
DWIDTH 12 0
BBX 10 11 1 -1
BITMAP
0040
FFC0
0800
4880
67C0
4880
7F80
4080
0080
0080
0700
ENDCHAR
STARTCHAR 4E10
ENCODING 19984
SWIDTH 1000 0
DWIDTH 12 0
BBX 10 11 1 -1
BITMAP
0040
FFC0
0800
2780
4800
4880
7FC0
4080
0080
0080
0700
ENDCHAR
STARTCHAR 4E11
ENCODING 19985
SWIDTH 1000 0
DWIDTH 12 0
BBX 10 10 1 0
BITMAP
0200
7F00
1100
1100
1140
FFC0
1100
1200
2280
FFC0
ENDCHAR
STARTCHAR 4E12
ENCODING 19986
SWIDTH 1000 0
DWIDTH 12 0
BBX 10 10 1 0
BITMAP
0080
FFC0
0480
8680
7880
1480
2280
C080
0780
FFC0
ENDCHAR
STARTCHAR 4E14
ENCODING 19988
SWIDTH 1000 0
DWIDTH 12 0
BBX 10 10 1 0
BITMAP
0100
3F00
2100
2100
3F00
2100
2100
3F00
2100
FFC0
ENDCHAR
STARTCHAR 4E15
ENCODING 19989
SWIDTH 1000 0
DWIDTH 12 0
BBX 10 10 1 0
BITMAP
0080
FFC0
0400
0C00
1B00
2880
4840
8800
0800
FFC0
ENDCHAR
STARTCHAR 4E16
ENCODING 19990
SWIDTH 1000 0
DWIDTH 12 0
BBX 10 10 1 -1
BITMAP
6D00
4900
4940
FFC0
4900
4900
4F00
4080
7FC0
4000
ENDCHAR
STARTCHAR 4E17
ENCODING 19991
SWIDTH 1000 0
DWIDTH 12 0
BBX 11 11 1 -1
BITMAP
0C00
6980
4900
4940
FFE0
4900
4900
4900
4900
7F00
4100
ENDCHAR
STARTCHAR 4E18
ENCODING 19992
SWIDTH 1000 0
DWIDTH 12 0
BBX 10 9 1 0
BITMAP
0780
3800
2000
2080
3FC0
2200
2200
2240
FFC0
ENDCHAR
STARTCHAR 4E19
ENCODING 19993
SWIDTH 1000 0
DWIDTH 12 0
BBX 10 11 1 -1
BITMAP
0040
FFC0
0800
0880
7F80
88C0
8C80
9380
A080
8080
8380
ENDCHAR
STARTCHAR 4E1E
ENCODING 19998
SWIDTH 1000 0
DWIDTH 12 0
BBX 10 10 1 0
BITMAP
0100
7F00
0200
0480
FCC0
1B00
2900
C8C0
1880
FFC0
ENDCHAR
STARTCHAR 4E21
ENCODING 20001
SWIDTH 1000 0
DWIDTH 12 0
BBX 10 11 1 -1
BITMAP
0040
FFC0
0800
7FC0
8880
BB80
AA80
BE80
A280
8080
8380
ENDCHAR
STARTCHAR 4E26
ENCODING 20006
SWIDTH 1000 0
DWIDTH 12 0
BBX 10 10 1 0
BITMAP
2100
1200
1240
FFC0
1400
94C0
5480
3500
1440
FFC0
ENDCHAR
STARTCHAR 4E28
ENCODING 20008
SWIDTH 1000 0
DWIDTH 12 0
BBX 1 10 6 -1
BITMAP
80
80
80
80
80
80
80
80
80
80
ENDCHAR
STARTCHAR 4E29
ENCODING 20009
SWIDTH 1000 0
DWIDTH 12 0
BBX 6 11 2 -1
BITMAP
04
44
44
44
44
44
44
5C
A4
04
04
ENDCHAR
STARTCHAR 4E2A
ENCODING 20010
SWIDTH 1000 0
DWIDTH 12 0
BBX 10 11 1 -1
BITMAP
0800
0C00
0C00
1200
2D80
4840
8800
0800
0800
0800
0800
ENDCHAR
STARTCHAR 4E2B
ENCODING 20011
SWIDTH 1000 0
DWIDTH 12 0
BBX 6 11 3 -1
BITMAP
84
48
48
10
20
20
20
20
20
20
20
ENDCHAR
STARTCHAR 4E2C
ENCODING 20012
SWIDTH 1000 0
DWIDTH 12 0
BBX 6 10 2 -1
BITMAP
0C
48
28
28
08
18
68
88
08
08
ENDCHAR
STARTCHAR 4E2D
ENCODING 20013
SWIDTH 1000 0
DWIDTH 12 0
BBX 9 11 2 -1
BITMAP
0800
1000
1100
FF80
9100
9100
9100
FF00
1000
1000
1000
ENDCHAR
STARTCHAR 4E2E
ENCODING 20014
SWIDTH 1000 0
DWIDTH 12 0
BBX 11 11 1 -1
BITMAP
0100
FF80
0900
1300
7F00
1080
1280
FFC0
10C0
10C0
1060
ENDCHAR
STARTCHAR 4E2F
ENCODING 20015
SWIDTH 1000 0
DWIDTH 12 0
BBX 10 11 1 -1
BITMAP
0800
0C00
0B00
3C80
4980
0E00
78C0
0700
F800
0800
0800
ENDCHAR
STARTCHAR 4E30
ENCODING 20016
SWIDTH 1000 0
DWIDTH 12 0
BBX 10 11 1 -1
BITMAP
0C00
0880
FFC0
0800
0880
7F80
0800
FFC0
0800
0800
0800
ENDCHAR
STARTCHAR 4E31
ENCODING 20017
SWIDTH 1000 0
DWIDTH 12 0
BBX 9 11 2 -1
BITMAP
2400
3400
A580
A500
A500
A500
E700
A500
2400
4400
8400
ENDCHAR
STARTCHAR 4E32
ENCODING 20018
SWIDTH 1000 0
DWIDTH 12 0
BBX 10 11 1 -1
BITMAP
0400
0900
7F80
4880
7F80
0880
FFC0
FFC0
8840
0800
0800
ENDCHAR
STARTCHAR 4E36
ENCODING 20022
SWIDTH 1000 0
DWIDTH 12 0
BBX 4 4 4 3
BITMAP
80
40
20
10
ENDCHAR
STARTCHAR 4E38
ENCODING 20024
SWIDTH 1000 0
DWIDTH 12 0
BBX 10 11 1 -1
BITMAP
0800
1000
1200
FF00
1100
1100
7100
1900
2540
2140
C1C0
ENDCHAR
STARTCHAR 4E39
ENCODING 20025
SWIDTH 1000 0
DWIDTH 12 0
BBX 10 11 1 -1
BITMAP
0100
3F80
4100
4900
4500
4140
FFC0
4100
4100
4100
8700
ENDCHAR
STARTCHAR 4E3B
ENCODING 20027
SWIDTH 1000 0
DWIDTH 12 0
BBX 10 10 1 0
BITMAP
1000
0800
0480
FFC0
0800
0900
7F80
0800
0880
FFC0
ENDCHAR
STARTCHAR 4E3C
ENCODING 20028
SWIDTH 1000 0
DWIDTH 12 0
BBX 10 10 1 -1
BITMAP
3300
2280
FFC0
3200
2E00
2240
FFC0
2200
4200
8200
ENDCHAR
STARTCHAR 4E3F
ENCODING 20031
SWIDTH 1000 0
DWIDTH 12 0
BBX 3 10 4 -1
BITMAP
20
20
20
20
20
20
40
40
80
80
ENDCHAR
STARTCHAR 4E40
ENCODING 20032
SWIDTH 1000 0
DWIDTH 12 0
BBX 9 9 2 0
BITMAP
8000
8000
8000
4000
2000
1000
0800
0600
0180
ENDCHAR
STARTCHAR 4E42
ENCODING 20034
SWIDTH 1000 0
DWIDTH 12 0
BBX 10 9 1 0
BITMAP
4180
2100
2200
1200
1400
0C00
0C00
1300
E0C0
ENDCHAR
STARTCHAR 4E43
ENCODING 20035
SWIDTH 1000 0
DWIDTH 12 0
BBX 10 12 1 -2
BITMAP
0200
FF00
1100
1200
1280
13C0
1280
1080
2080
2080
4780
8200
ENDCHAR
STARTCHAR 4E45
ENCODING 20037
SWIDTH 1000 0
DWIDTH 12 0
BBX 10 11 1 -1
BITMAP
1800
1200
1E00
2200
2400
4400
4400
8A00
1100
2080
C040
ENDCHAR
STARTCHAR 4E47
ENCODING 20039
SWIDTH 1000 0
DWIDTH 12 0
BBX 10 9 1 0
BITMAP
0300
1C00
F000
1040
1780
F800
1000
1040
0FC0
ENDCHAR
STARTCHAR 4E48
ENCODING 20040
SWIDTH 1000 0
DWIDTH 12 0
BBX 9 9 1 0
BITMAP
1800
1000
2000
4400
8800
0A00
1100
1080
7F80
ENDCHAR
STARTCHAR 4E4B
ENCODING 20043
SWIDTH 1000 0
DWIDTH 12 0
BBX 10 10 1 0
BITMAP
0800
0C00
0900
7F80
0100
0200
4400
6800
9000
8FC0
ENDCHAR
STARTCHAR 4E4D
ENCODING 20045
SWIDTH 1000 0
DWIDTH 12 0
BBX 10 10 1 -1
BITMAP
3000
2040
3FC0
4800
8F80
0800
0FC0
0800
0800
0800
ENDCHAR
STARTCHAR 4E4E
ENCODING 20046
SWIDTH 1000 0
DWIDTH 12 0
BBX 10 11 1 -1
BITMAP
0100
1E80
E880
6900
2A00
0A40
FFC0
0800
0800
0800
3800
ENDCHAR
STARTCHAR 4E4F
ENCODING 20047
SWIDTH 1000 0
DWIDTH 12 0
BBX 10 10 1 0
BITMAP
0100
1E80
EC00
0900
7F00
0180
0200
4C00
7000
8FC0
ENDCHAR
STARTCHAR 4E51
ENCODING 20049
SWIDTH 1000 0
DWIDTH 12 0
BBX 10 10 1 -1
BITMAP
0780
7800
A4C0
3D00
4A00
9A00
2900
4880
8840
0800
ENDCHAR
STARTCHAR 4E55
ENCODING 20053
SWIDTH 1000 0
DWIDTH 12 0
BBX 10 11 1 -1
BITMAP
0180
7E00
8480
7FC0
8440
7FC0
BF80
A480
A480
A580
8400
ENDCHAR
STARTCHAR 4E56
ENCODING 20054
SWIDTH 1000 0
DWIDTH 12 0
BBX 10 11 1 -1
BITMAP
0100
FE80
0840
FFC0
3900
EA40
2980
2A40
E9C0
0800
0800
ENDCHAR
STARTCHAR 4E57
ENCODING 20055
SWIDTH 1000 0
DWIDTH 12 0
BBX 11 11 1 -1
BITMAP
0100
7E80
8880
FFC0
2900
FFC0
2900
FFC0
0C00
3B80
C860
ENDCHAR
STARTCHAR 4E58
ENCODING 20056
SWIDTH 1000 0
DWIDTH 12 0
BBX 10 11 1 -1
BITMAP
0100
7E80
0840
FFC0
2900
FAC0
2BC0
DD00
2B00
48C0
8800
ENDCHAR
STARTCHAR 4E59
ENCODING 20057
SWIDTH 1000 0
DWIDTH 12 0
BBX 9 9 2 0
BITMAP
0400
FE00
0400
0800
3000
4000
8100
8100
FF80
ENDCHAR
STARTCHAR 4E5A
ENCODING 20058
SWIDTH 1000 0
DWIDTH 12 0
BBX 8 9 3 0
BITMAP
80
80
80
80
80
80
82
82
FF
ENDCHAR
STARTCHAR 4E5D
ENCODING 20061
SWIDTH 1000 0
DWIDTH 12 0
BBX 10 11 1 -1
BITMAP
0800
1000
1200
FF00
1200
1200
1200
1240
2240
4240
81C0
ENDCHAR
STARTCHAR 4E5E
ENCODING 20062
SWIDTH 1000 0
DWIDTH 12 0
BBX 10 12 1 -2
BITMAP
1000
2080
3FC0
4000
4200
BF00
0400
0800
3080
4080
4080
3FC0
ENDCHAR
STARTCHAR 4E5F
ENCODING 20063
SWIDTH 1000 0
DWIDTH 12 0
BBX 10 10 1 -1
BITMAP
0400
6480
4580
5E80
E480
4480
4480
4740
4040
3FC0
ENDCHAR
STARTCHAR 4E62
ENCODING 20066
SWIDTH 1000 0
DWIDTH 12 0
BBX 10 12 1 -1
BITMAP
2200
2400
BC00
B400
B400
B400
B400
B440
F440
9440
8240
03C0
ENDCHAR
STARTCHAR 4E69
ENCODING 20073
SWIDTH 1000 0
DWIDTH 12 0
BBX 10 11 1 -1
BITMAP
2000
2600
2C00
3C00
2400
2400
FC00
9400
9440
F240
93C0
ENDCHAR
STARTCHAR 4E71
ENCODING 20081
SWIDTH 1000 0
DWIDTH 12 0
BBX 10 10 1 -1
BITMAP
3A00
E200
2A00
FE00
2200
2200
FA00
8A40
FA40
8BC0
ENDCHAR
STARTCHAR 4E73
ENCODING 20083
SWIDTH 1000 0
DWIDTH 12 0
BBX 10 11 1 -1
BITMAP
1B00
EE00
AE00
9A00
FA00
0E00
3600
FA40
A240
2240
E3C0
ENDCHAR
STARTCHAR 4E7E
ENCODING 20094
SWIDTH 1000 0
DWIDTH 12 0
BBX 11 11 0 -1
BITMAP
1100
2900
7DE0
7A00
4A00
7FC0
4880
3920
FE20
2220
23E0
ENDCHAR
STARTCHAR 4E80
ENCODING 20096
SWIDTH 1000 0
DWIDTH 12 0
BBX 11 10 1 0
BITMAP
3400
3C00
7F80
FF00
4900
BF80
7F80
8880
7FC0
0FE0
ENDCHAR
STARTCHAR 4E82
ENCODING 20098
SWIDTH 1000 0
DWIDTH 12 0
BBX 10 11 1 -1
BITMAP
0800
F900
A500
FD00
2100
FD00
D500
FD40
D540
B540
C9C0
ENDCHAR
STARTCHAR 4E85
ENCODING 20101
SWIDTH 1000 0
DWIDTH 12 0
BBX 3 10 4 -1
BITMAP
60
40
40
40
40
40
40
40
C0
40
ENDCHAR
STARTCHAR 4E86
ENCODING 20102
SWIDTH 1000 0
DWIDTH 12 0
BBX 8 11 2 -1
BITMAP
02
FF
02
04
08
10
10
10
10
10
70
ENDCHAR
STARTCHAR 4E88
ENCODING 20104
SWIDTH 1000 0
DWIDTH 12 0
BBX 10 12 1 -2
BITMAP
0100
7F80
0100
1E00
0480
FFC0
0880
0900
0800
0800
4800
3800
ENDCHAR
STARTCHAR 4E89
ENCODING 20105
SWIDTH 1000 0
DWIDTH 12 0
BBX 10 11 1 -1
BITMAP
1400
3E00
2400
7F80
88C0
FFC0
0880
7F80
0800
0800
3800
ENDCHAR
STARTCHAR 4E8A
ENCODING 20106
SWIDTH 1000 0
DWIDTH 12 0
BBX 11 11 0 -1
BITMAP
0620
7FE0
2480
1540
3FC0
0460
FFE0
3FC0
0440
0400
1C00
ENDCHAR
STARTCHAR 4E8B
ENCODING 20107
SWIDTH 1000 0
DWIDTH 12 0
BBX 11 11 1 -1
BITMAP
0C40
FFC0
0900
7F80
7F80
7F80
08C0
FFE0
7F80
0800
3800
ENDCHAR
STARTCHAR 4E8C
ENCODING 20108
SWIDTH 1000 0
DWIDTH 12 0
BBX 10 8 1 1
BITMAP
0100
7F80
0000
0000
0000
0000
0080
FFC0
ENDCHAR
STARTCHAR 4E8D
ENCODING 20109
SWIDTH 1000 0
DWIDTH 12 0
BBX 10 11 1 -1
BITMAP
0080
7F80
0000
0040
FFC0
0800
0800
0800
0800
0800
3800
ENDCHAR
STARTCHAR 4E8E
ENCODING 20110
SWIDTH 1000 0
DWIDTH 12 0
BBX 10 11 1 -1
BITMAP
0080
7F80
0800
0800
0840
FFC0
0800
0800
0800
0800
3800
ENDCHAR
STARTCHAR 4E91
ENCODING 20113
SWIDTH 1000 0
DWIDTH 12 0
BBX 10 11 1 -2
BITMAP
0100
7F80
0000
0080
FFC0
0800
1200
1100
2080
FF80
0040
ENDCHAR
STARTCHAR 4E92
ENCODING 20114
SWIDTH 1000 0
DWIDTH 12 0
BBX 10 10 1 0
BITMAP
0080
FFC0
1000
2200
1F00
2100
2100
3E00
0200
FFC0
ENDCHAR
STARTCHAR 4E94
ENCODING 20116
SWIDTH 1000 0
DWIDTH 12 0
BBX 10 10 1 0
BITMAP
0080
FFC0
0800
0800
1100
7F00
1100
1100
1140
FFC0
ENDCHAR
STARTCHAR 4E95
ENCODING 20117
SWIDTH 1000 0
DWIDTH 12 0
BBX 10 11 1 -1
BITMAP
1300
1200
1280
FFC0
1200
1200
1240
FFC0
2200
2200
C200
ENDCHAR
STARTCHAR 4E98
ENCODING 20120
SWIDTH 1000 0
DWIDTH 12 0
BBX 10 10 1 0
BITMAP
0080
FFC0
0000
3F80
4100
3F00
4100
3F00
4100
FFC0
ENDCHAR
STARTCHAR 4E99
ENCODING 20121
SWIDTH 1000 0
DWIDTH 12 0
BBX 10 10 1 0
BITMAP
0040
FFC0
1000
2200
1F00
2100
2D00
3A00
0640
FFC0
ENDCHAR
STARTCHAR 4E9B
ENCODING 20123
SWIDTH 1000 0
DWIDTH 12 0
BBX 10 10 1 0
BITMAP
2400
3200
EAC0
9B00
A200
ABC0
D000
7F80
0000
FFC0
ENDCHAR
STARTCHAR 4E9C
ENCODING 20124
SWIDTH 1000 0
DWIDTH 12 0
BBX 10 10 1 0
BITMAP
0040
FFC0
1200
1280
7F80
92C0
9280
7F80
1200
FFC0
ENDCHAR
STARTCHAR 4E9D
ENCODING 20125
SWIDTH 1000 0
DWIDTH 12 0
BBX 10 10 1 0
BITMAP
0800
1300
7E80
2300
5280
F740
0100
7F80
0000
FFC0
ENDCHAR
STARTCHAR 4E9E
ENCODING 20126
SWIDTH 1000 0
DWIDTH 12 0
BBX 10 10 1 0
BITMAP
0040
FFC0
1200
1280
73C0
8080
9080
7380
1200
FFC0
ENDCHAR
STARTCHAR 4E9F
ENCODING 20127
SWIDTH 1000 0
DWIDTH 12 0
BBX 10 10 1 0
BITMAP
0080
FFC0
1000
1FC0
7A80
AA80
A900
6980
1E40
FFC0
ENDCHAR
STARTCHAR 4EA0
ENCODING 20128
SWIDTH 1000 0
DWIDTH 12 0
BBX 10 4 1 4
BITMAP
0C00
0800
0840
FFC0
ENDCHAR
STARTCHAR 4EA1
ENCODING 20129
SWIDTH 1000 0
DWIDTH 12 0
BBX 10 10 1 0
BITMAP
0400
0800
0840
FFC0
4000
4000
4000
4000
4000
3FC0
ENDCHAR
STARTCHAR 4EA2
ENCODING 20130
SWIDTH 1000 0
DWIDTH 12 0
BBX 10 11 1 -1
BITMAP
0C00
0840
FFC0
0000
1E00
2300
2200
2200
2240
2240
C1C0
ENDCHAR
STARTCHAR 4EA4
ENCODING 20132
SWIDTH 1000 0
DWIDTH 12 0
BBX 10 11 1 -1
BITMAP
0400
0880
FFC0
0000
3300
4080
9280
1400
0C00
0A00
F1C0
ENDCHAR
STARTCHAR 4EA5
ENCODING 20133
SWIDTH 1000 0
DWIDTH 12 0
BBX 10 11 1 -1
BITMAP
0C00
0840
FFC0
0800
9300
6200
1D80
1300
6600
8900
F080
ENDCHAR
STARTCHAR 4EA6
ENCODING 20134
SWIDTH 1000 0
DWIDTH 12 0
BBX 10 11 1 -2
BITMAP
0C00
0840
FFC0
1200
5300
7280
5280
9240
A200
2200
CC00
ENDCHAR
STARTCHAR 4EA8
ENCODING 20136
SWIDTH 1000 0
DWIDTH 12 0
BBX 10 11 1 -1
BITMAP
0800
0C40
FFC0
3F80
4100
3F00
FF80
0100
0600
0400
3800
ENDCHAR
STARTCHAR 4EAB
ENCODING 20139
SWIDTH 1000 0
DWIDTH 12 0
BBX 10 11 1 -1
BITMAP
0C40
FFC0
0100
3F80
3F00
0100
7F80
FFC0
0800
0800
1800
ENDCHAR
STARTCHAR 4EAC
ENCODING 20140
SWIDTH 1000 0
DWIDTH 12 0
BBX 10 11 1 -1
BITMAP
0400
0840
FFC0
3F80
4100
4100
3F00
2A00
2980
C840
1800
ENDCHAR
STARTCHAR 4EAD
ENCODING 20141
SWIDTH 1000 0
DWIDTH 12 0
BBX 10 10 1 -1
BITMAP
0C80
FFC0
3F00
3F00
8040
FFC0
0800
0800
0800
1800
ENDCHAR
STARTCHAR 4EAE
ENCODING 20142
SWIDTH 1000 0
DWIDTH 12 0
BBX 10 11 1 -2
BITMAP
0C80
FFC0
3F00
3F00
8040
7FC0
8040
9680
1440
2440
C3C0
ENDCHAR
STARTCHAR 4EB0
ENCODING 20144
SWIDTH 1000 0
DWIDTH 12 0
BBX 10 11 1 -1
BITMAP
0400
0840
FFC0
3F80
4100
3F00
3F00
2900
4880
8840
1800
ENDCHAR
STARTCHAR 4EB3
ENCODING 20147
SWIDTH 1000 0
DWIDTH 12 0
BBX 10 11 1 -1
BITMAP
0C80
FFC0
0100
3F00
3F00
7FC0
8340
FC80
0F40
F880
0FC0
ENDCHAR
STARTCHAR 4EB6
ENCODING 20150
SWIDTH 1000 0
DWIDTH 12 0
BBX 10 10 1 0
BITMAP
0C80
FFC0
7F80
5E80
6280
5C80
3F00
3F00
3F00
FFC0
ENDCHAR
STARTCHAR 4EB9
ENCODING 20153
SWIDTH 1000 0
DWIDTH 12 0
BBX 10 11 1 -1
BITMAP
0C80
FFC0
BF80
7E80
7F80
FBC0
FFC0
3F80
3F00
2140
FFC0
ENDCHAR
STARTCHAR 4EBA
ENCODING 20154
SWIDTH 1000 0
DWIDTH 12 0
BBX 10 11 1 -1
BITMAP
1000
0C00
0800
0800
0C00
0C00
1200
1200
2100
40C0
8000
ENDCHAR
STARTCHAR 4EBB
ENCODING 20155
SWIDTH 1000 0
DWIDTH 12 0
BBX 6 11 2 -1
BITMAP
08
04
08
10
38
50
90
10
10
10
10
ENDCHAR
STARTCHAR 4EBC
ENCODING 20156
SWIDTH 1000 0
DWIDTH 12 0
BBX 10 10 1 0
BITMAP
0C00
0C00
1200
2200
2180
4040
8000
0000
0080
7F80
ENDCHAR
STARTCHAR 4EC0
ENCODING 20160
SWIDTH 1000 0
DWIDTH 12 0
BBX 11 10 0 -1
BITMAP
1900
1100
2100
3120
2FE0
6100
A100
2100
2100
2100
ENDCHAR
STARTCHAR 4EC1
ENCODING 20161
SWIDTH 1000 0
DWIDTH 12 0
BBX 10 11 1 -1
BITMAP
2000
2080
5FC0
4000
6000
C000
C000
4000
4040
5FC0
4000
ENDCHAR
STARTCHAR 4EC2
ENCODING 20162
SWIDTH 1000 0
DWIDTH 12 0
BBX 10 11 1 -1
BITMAP
2200
2400
4480
5FC0
6440
C440
C480
4480
4880
4880
5380
ENDCHAR
STARTCHAR 4EC3
ENCODING 20163
SWIDTH 1000 0
DWIDTH 12 0
BBX 12 11 0 -1
BITMAP
2000
1020
17F0
2080
2080
6080
A080
2080
2080
2080
2700
ENDCHAR
STARTCHAR 4EC4
ENCODING 20164
SWIDTH 1000 0
DWIDTH 12 0
BBX 11 11 0 -1
BITMAP
0020
3FE0
2000
2200
2200
4200
4200
4500
4500
48C0
B020
ENDCHAR
STARTCHAR 4EC6
ENCODING 20166
SWIDTH 1000 0
DWIDTH 12 0
BBX 10 11 1 -1
BITMAP
1000
1200
2200
2200
6200
A380
A240
2200
2200
2200
2200
ENDCHAR
STARTCHAR 4EC7
ENCODING 20167
SWIDTH 1000 0
DWIDTH 12 0
BBX 12 10 0 -1
BITMAP
1A00
1200
2280
2FC0
2280
6280
A480
24A0
28A0
3070
ENDCHAR
STARTCHAR 4EC8
ENCODING 20168
SWIDTH 1000 0
DWIDTH 12 0
BBX 11 11 1 -1
BITMAP
3100
2700
4100
4100
6D00
C900
C900
4880
5080
5040
6060
ENDCHAR
STARTCHAR 4ECA
ENCODING 20170
SWIDTH 1000 0
DWIDTH 12 0
BBX 10 11 1 -1
BITMAP
0C00
1400
1200
2380
5E40
8000
7F00
0100
0200
0200
0400
ENDCHAR
STARTCHAR 4ECB
ENCODING 20171
SWIDTH 1000 0
DWIDTH 12 0
BBX 10 11 1 -1
BITMAP
0800
0C00
1200
2100
40C0
9340
1200
2200
2200
2200
4200
ENDCHAR
STARTCHAR 4ECD
ENCODING 20173
SWIDTH 1000 0
DWIDTH 12 0
BBX 11 11 0 -1
BITMAP
1080
2FC0
2480
2480
24A0
64E0
A4A0
A420
2820
2840
31C0
ENDCHAR
STARTCHAR 4ECE
ENCODING 20174
SWIDTH 1000 0
DWIDTH 12 0
BBX 10 10 1 -1
BITMAP
2300
2200
2200
2200
6300
5300
5280
8C80
8840
1000
ENDCHAR
STARTCHAR 4ECF
ENCODING 20175
SWIDTH 1000 0
DWIDTH 12 0
BBX 10 11 1 -1
BITMAP
2000
3200
2200
4400
6400
C400
C500
4880
4840
5FC0
6040
ENDCHAR
STARTCHAR 4ED0
ENCODING 20176
SWIDTH 1000 0
DWIDTH 12 0
BBX 10 10 1 -1
BITMAP
0C00
1400
1300
2480
C840
0880
FFC0
0800
0800
0800
ENDCHAR
STARTCHAR 4ED4
ENCODING 20180
SWIDTH 1000 0
DWIDTH 12 0
BBX 11 11 0 -1
BITMAP
1040
1FE0
2040
2180
2100
6120
BFE0
A100
2100
2100
2700
ENDCHAR
STARTCHAR 4ED5
ENCODING 20181
SWIDTH 1000 0
DWIDTH 12 0
BBX 10 11 1 -1
BITMAP
3200
2200
4200
4240
5FC0
C200
C200
4200
4280
5FC0
4000
ENDCHAR
STARTCHAR 4ED6
ENCODING 20182
SWIDTH 1000 0
DWIDTH 12 0
BBX 12 11 0 -1
BITMAP
1100
2500
2560
27C0
7D40
A540
A5C0
2520
2420
27F0
2000
ENDCHAR
STARTCHAR 4ED7
ENCODING 20183
SWIDTH 1000 0
DWIDTH 12 0
BBX 11 11 0 -1
BITMAP
1180
1100
2120
2FE0
2100
6500
A500
2300
2300
24C0
3820
ENDCHAR
STARTCHAR 4ED8
ENCODING 20184
SWIDTH 1000 0
DWIDTH 12 0
BBX 11 11 0 -1
BITMAP
1040
1080
20A0
2FE0
2080
6880
A480
2280
2080
2080
2380
ENDCHAR
STARTCHAR 4ED9
ENCODING 20185
SWIDTH 1000 0
DWIDTH 12 0
BBX 11 11 0 -1
BITMAP
1100
2100
2100
2D20
6920
A920
A920
2920
2920
2FE0
2820
ENDCHAR
STARTCHAR 4EDA
ENCODING 20186
SWIDTH 1000 0
DWIDTH 12 0
BBX 10 11 1 -1
BITMAP
0C00
1400
1300
6480
8840
4880
4880
4880
4880
7F80
4080
ENDCHAR
STARTCHAR 4EDD
ENCODING 20189
SWIDTH 1000 0
DWIDTH 12 0
BBX 10 10 1 0
BITMAP
0C00
0C00
1200
2180
4140
BF80
0800
0800
0880
FFC0
ENDCHAR
STARTCHAR 4EDE
ENCODING 20190
SWIDTH 1000 0
DWIDTH 12 0
BBX 11 11 0 -1
BITMAP
1840
1FE0
2120
2120
3520
6A20
AA20
2240
2440
2440
29C0
ENDCHAR
STARTCHAR 4EDF
ENCODING 20191
SWIDTH 1000 0
DWIDTH 12 0
BBX 10 11 1 -1
BITMAP
2080
2700
5A00
4200
4240
DFC0
C200
4200
4200
4200
4200
ENDCHAR
STARTCHAR 4EE1
ENCODING 20193
SWIDTH 1000 0
DWIDTH 12 0
BBX 10 11 1 -1
BITMAP
2400
2840
4FC0
4800
7100
6F00
C100
C600
4840
4840
4FC0
ENDCHAR
STARTCHAR 4EE3
ENCODING 20195
SWIDTH 1000 0
DWIDTH 12 0
BBX 11 11 0 -1
BITMAP
1400
1A80
1240
2220
33C0
6E00
A100
2120
20A0
20A0
2060
ENDCHAR
STARTCHAR 4EE4
ENCODING 20196
SWIDTH 1000 0
DWIDTH 12 0
BBX 10 11 1 -1
BITMAP
0C00
0C00
1200
2300
5EC0
8000
7F80
0900
0900
0B00
0800
ENDCHAR
STARTCHAR 4EE5
ENCODING 20197
SWIDTH 1000 0
DWIDTH 12 0
BBX 10 10 1 -1
BITMAP
5180
4900
4500
4100
4100
4500
5980
6240
8440
1800
ENDCHAR
STARTCHAR 4EEB
ENCODING 20203
SWIDTH 1000 0
DWIDTH 12 0
BBX 10 11 1 -1
BITMAP
2000
3300
2200
4400
6A00
D300
C200
4500
4480
5F40
5040
ENDCHAR
STARTCHAR 4EED
ENCODING 20205
SWIDTH 1000 0
DWIDTH 12 0
BBX 11 11 1 -1
BITMAP
2080
3FC0
4480
5480
4C80
C480
C780
4480
48E0
5080
6300
ENDCHAR
STARTCHAR 4EEE
ENCODING 20206
SWIDTH 1000 0
DWIDTH 12 0
BBX 11 11 0 -1
BITMAP
1020
27E0
2400
2400
27E0
6640
A640
2580
2880
2940
3620
ENDCHAR
STARTCHAR 4EF0
ENCODING 20208
SWIDTH 1000 0
DWIDTH 12 0
BBX 11 11 0 -1
BITMAP
3220
2DE0
2920
4920
6920
6920
A920
2B20
3D60
3100
2100
ENDCHAR
STARTCHAR 4EF1
ENCODING 20209
SWIDTH 1000 0
DWIDTH 12 0
BBX 11 11 0 -1
BITMAP
1100
2300
24C0
24E0
2FA0
7000
AFC0
2040
2080
2080
2100
ENDCHAR
STARTCHAR 4EF2
ENCODING 20210
SWIDTH 1000 0
DWIDTH 12 0
BBX 11 11 0 -1
BITMAP
1100
1100
2120
2FE0
2920
6920
AFE0
2900
2100
2100
2100
ENDCHAR
STARTCHAR 4EF5
ENCODING 20213
SWIDTH 1000 0
DWIDTH 12 0
BBX 11 11 0 -1
BITMAP
1600
2440
27E0
2900
2900
6120
AFE0
2100
2100
2100
2100
ENDCHAR
STARTCHAR 4EF6
ENCODING 20214
SWIDTH 1000 0
DWIDTH 12 0
BBX 11 11 0 -1
BITMAP
1100
1500
2540
27E0
2900
6900
B120
AFE0
2100
2100
2100
ENDCHAR
STARTCHAR 4EF7
ENCODING 20215
SWIDTH 1000 0
DWIDTH 12 0
BBX 12 11 0 -1
BITMAP
1100
1300
2280
2440
2830
76C0
A480
2480
2480
2480
2880
ENDCHAR
STARTCHAR 4EFB
ENCODING 20219
SWIDTH 1000 0
DWIDTH 12 0
BBX 11 10 0 -1
BITMAP
10C0
2300
2D00
2100
6120
BFE0
A100
2100
2FE0
2000
ENDCHAR
STARTCHAR 4EFC
ENCODING 20220
SWIDTH 1000 0
DWIDTH 12 0
BBX 10 11 1 -1
BITMAP
3040
3FC0
4200
4200
6200
C280
CFC0
C200
4200
5FC0
4000
ENDCHAR
STARTCHAR 4EFD
ENCODING 20221
SWIDTH 1000 0
DWIDTH 12 0
BBX 12 11 0 -1
BITMAP
1080
1380
2480
2640
2860
6FF0
B240
2240
2440
2480
2B80
ENDCHAR
STARTCHAR 4EFF
ENCODING 20223
SWIDTH 1000 0
DWIDTH 12 0
BBX 11 11 0 -1
BITMAP
1100
1120
2FE0
2200
2240
63E0
A240
2240
2440
2440
29C0
ENDCHAR
STARTCHAR 4F00
ENCODING 20224
SWIDTH 1000 0
DWIDTH 12 0
BBX 11 11 1 -1
BITMAP
2100
3700
2900
4D00
6880
5240
E460
4500
4480
4740
5840
ENDCHAR
STARTCHAR 4F01
ENCODING 20225
SWIDTH 1000 0
DWIDTH 12 0
BBX 10 10 1 0
BITMAP
0C00
0C00
1300
2480
C440
2500
2780
2400
2480
FFC0
ENDCHAR
STARTCHAR 4F03
ENCODING 20227
SWIDTH 1000 0
DWIDTH 12 0
BBX 11 11 0 -1
BITMAP
1040
1FC0
2040
2380
30A0
2FE0
E120
A140
2100
2100
2700
ENDCHAR
STARTCHAR 4F09
ENCODING 20233
SWIDTH 1000 0
DWIDTH 12 0
BBX 12 11 0 -1
BITMAP
1100
2120
2FE0
2000
23C0
6480
A480
2480
24A0
24A0
3870
ENDCHAR
STARTCHAR 4F0A
ENCODING 20234
SWIDTH 1000 0
DWIDTH 12 0
BBX 12 11 0 -1
BITMAP
1040
2FC0
2240
2260
2FF0
6240
AFC0
2240
2200
2400
2800
ENDCHAR
STARTCHAR 4F0B
ENCODING 20235
SWIDTH 1000 0
DWIDTH 12 0
BBX 12 11 0 -1
BITMAP
1080
2FC0
2480
2480
27E0
6640
A540
2580
2880
2960
3630
ENDCHAR
STARTCHAR 4F0D
ENCODING 20237
SWIDTH 1000 0
DWIDTH 12 0
BBX 12 10 0 -1
BITMAP
1040
2FE0
2200
2200
6FC0
A240
2440
2460
3FF0
2000
ENDCHAR
STARTCHAR 4F0E
ENCODING 20238
SWIDTH 1000 0
DWIDTH 12 0
BBX 11 11 0 -1
BITMAP
1100
1120
2FE0
2100
2140
6FC0
A460
A280
2100
2280
2C60
ENDCHAR
STARTCHAR 4F0F
ENCODING 20239
SWIDTH 1000 0
DWIDTH 12 0
BBX 10 11 1 -1
BITMAP
2200
3500
4480
4440
5FC0
4200
C600
4500
4900
4880
7040
ENDCHAR
STARTCHAR 4F10
ENCODING 20240
SWIDTH 1000 0
DWIDTH 12 0
BBX 11 11 0 -1
BITMAP
1200
1280
2240
2220
3FC0
6240
A280
2120
2120
26E0
3820
ENDCHAR
STARTCHAR 4F11
ENCODING 20241
SWIDTH 1000 0
DWIDTH 12 0
BBX 12 11 0 -1
BITMAP
1100
1100
2120
2FE0
2100
6380
A580
2540
2920
3110
2100
ENDCHAR
STARTCHAR 4F16
ENCODING 20246
SWIDTH 1000 0
DWIDTH 12 0
BBX 12 11 0 -1
BITMAP
1200
2220
2FE0
2200
2240
63C0
A660
A680
2980
2940
3630
ENDCHAR
STARTCHAR 4F1A
ENCODING 20250
SWIDTH 1000 0
DWIDTH 12 0
BBX 10 12 1 -2
BITMAP
0C00
0C00
1300
2180
7FC0
8040
0080
FFC0
1000
1300
2180
DE40
ENDCHAR
STARTCHAR 4F1C
ENCODING 20252
SWIDTH 1000 0
DWIDTH 12 0
BBX 11 11 0 -1
BITMAP
1200
1280
2F80
2280
24E0
6900
A120
3FE0
2100
2100
2100
ENDCHAR
STARTCHAR 4F1D
ENCODING 20253
SWIDTH 1000 0
DWIDTH 12 0
BBX 11 10 0 -1
BITMAP
1040
1FE0
2000
2020
2FE0
E200
A280
2440
24E0
2B20
ENDCHAR
STARTCHAR 4F2F
ENCODING 20271
SWIDTH 1000 0
DWIDTH 12 0
BBX 11 11 0 -1
BITMAP
1100
1100
2240
27E0
2420
7420
A7E0
2420
2420
27E0
2420
ENDCHAR
STARTCHAR 4F30
ENCODING 20272
SWIDTH 1000 0
DWIDTH 12 0
BBX 11 11 0 -1
BITMAP
1100
1100
2120
2FE0
2100
6100
A7E0
2440
2440
27C0
2440
ENDCHAR
STARTCHAR 4F34
ENCODING 20276
SWIDTH 1000 0
DWIDTH 12 0
BBX 11 11 0 -1
BITMAP
2000
1140
2960
2580
21C0
6FE0
A100
2FE0
2100
2100
2100
ENDCHAR
STARTCHAR 4F36
ENCODING 20278
SWIDTH 1000 0
DWIDTH 12 0
BBX 12 11 0 -1
BITMAP
1100
1300
2480
2580
2FE0
7030
AFC0
A260
2240
22C0
2200
ENDCHAR
STARTCHAR 4F37
ENCODING 20279
SWIDTH 1000 0
DWIDTH 12 0
BBX 11 11 0 -1
BITMAP
1100
1100
2140
27E0
2920
6920
A7E0
2920
2920
27E0
2820
ENDCHAR
STARTCHAR 4F38
ENCODING 20280
SWIDTH 1000 0
DWIDTH 12 0
BBX 11 11 0 -1
BITMAP
1100
1140
2FE0
2920
2920
6FE0
A920
2FE0
2100
2100
2100
ENDCHAR
STARTCHAR 4F39
ENCODING 20281
SWIDTH 1000 0
DWIDTH 12 0
BBX 11 11 1 -1
BITMAP
2080
2F80
4880
4880
4F80
C880
C880
4F80
4880
5FE0
4000
ENDCHAR
STARTCHAR 4F3A
ENCODING 20282
SWIDTH 1000 0
DWIDTH 12 0
BBX 11 11 0 -1
BITMAP
1040
2FE0
2020
2FA0
2020
67A0
A920
2720
2820
2020
20C0
ENDCHAR
STARTCHAR 4F3C
ENCODING 20284
SWIDTH 1000 0
DWIDTH 12 0
BBX 11 11 0 -1
BITMAP
1000
2840
2E40
2940
2940
6840
A840
2B80
2CC0
3120
2620
ENDCHAR
STARTCHAR 4F3D
ENCODING 20285
SWIDTH 1000 0
DWIDTH 12 0
BBX 11 11 0 -1
BITMAP
2400
3820
28E0
3EA0
6AA0
4AA0
CAA0
4AA0
4AE0
4EA0
7480
ENDCHAR
STARTCHAR 4F3E
ENCODING 20286
SWIDTH 1000 0
DWIDTH 12 0
BBX 11 11 0 -1
BITMAP
1040
2FE0
2100
2100
2380
6540
A920
2100
2100
2FE0
2000
ENDCHAR
STARTCHAR 4F43
ENCODING 20291
SWIDTH 1000 0
DWIDTH 12 0
BBX 11 11 0 -1
BITMAP
3040
2FE0
2920
4920
6920
6FE0
A920
2920
2920
2FE0
2820
ENDCHAR
STARTCHAR 4F46
ENCODING 20294
SWIDTH 1000 0
DWIDTH 12 0
BBX 11 11 0 -1
BITMAP
1040
17C0
2440
2440
67C0
6440
A440
27C0
2440
2FE0
2000
ENDCHAR
STARTCHAR 4F47
ENCODING 20295
SWIDTH 1000 0
DWIDTH 12 0
BBX 12 11 0 -1
BITMAP
1100
2920
2FE0
2820
2020
6FF0
A100
2100
2100
2100
2700
ENDCHAR
STARTCHAR 4F48
ENCODING 20296
SWIDTH 1000 0
DWIDTH 12 0
BBX 12 11 0 -1
BITMAP
1100
1220
2FF0
2300
2580
67E0
AD20
3520
2560
2100
2100
ENDCHAR
STARTCHAR 4F49
ENCODING 20297
SWIDTH 1000 0
DWIDTH 12 0
BBX 11 11 0 -1
BITMAP
1100
2140
2FE0
2100
2120
6FE0
A200
2280
2440
2FA0
3020
ENDCHAR
STARTCHAR 4F4D
ENCODING 20301
SWIDTH 1000 0
DWIDTH 12 0
BBX 11 11 0 -1
BITMAP
1200
1100
2140
2FE0
2080
68C0
A480
2480
2520
3FE0
2000
ENDCHAR
STARTCHAR 4F4E
ENCODING 20302
SWIDTH 1000 0
DWIDTH 12 0
BBX 11 11 0 -1
BITMAP
10C0
2F20
2900
2920
67E0
6880
A880
2BA0
3560
2FE0
2020
ENDCHAR
STARTCHAR 4F4F
ENCODING 20303
SWIDTH 1000 0
DWIDTH 12 0
BBX 11 11 0 -1
BITMAP
1200
1100
2040
2FE0
2100
6140
AFE0
2100
2120
3FE0
2000
ENDCHAR
STARTCHAR 4F50
ENCODING 20304
SWIDTH 1000 0
DWIDTH 12 0
BBX 12 11 0 -1
BITMAP
1200
1300
2220
2FE0
2200
6440
A7E0
AD00
2900
37E0
2010
ENDCHAR
STARTCHAR 4F51
ENCODING 20305
SWIDTH 1000 0
DWIDTH 12 0
BBX 11 11 0 -1
BITMAP
1300
1220
2FE0
2200
2200
6440
A7E0
AC40
3440
23C0
2440
ENDCHAR
STARTCHAR 4F53
ENCODING 20307
SWIDTH 1000 0
DWIDTH 12 0
BBX 12 11 0 -1
BITMAP
1100
1200
2220
2FE0
6300
6680
A640
2FF0
3200
2200
2200
ENDCHAR
STARTCHAR 4F54
ENCODING 20308
SWIDTH 1000 0
DWIDTH 12 0
BBX 11 11 0 -1
BITMAP
1900
1100
1120
21E0
3100
6100
A7E0
2820
2820
27E0
2820
ENDCHAR
STARTCHAR 4F55
ENCODING 20309
SWIDTH 1000 0
DWIDTH 12 0
BBX 12 11 0 -1
BITMAP
2000
1020
2FF0
2040
2F40
6940
A940
2F40
2040
2040
21C0
ENDCHAR
STARTCHAR 4F56
ENCODING 20310
SWIDTH 1000 0
DWIDTH 12 0
BBX 11 11 0 -1
BITMAP
1000
2640
2140
2280
22C0
6B20
AB20
2A20
3240
2E40
33C0
ENDCHAR
STARTCHAR 4F57
ENCODING 20311
SWIDTH 1000 0
DWIDTH 12 0
BBX 11 11 0 -1
BITMAP
1100
1920
27E0
2820
2A40
6440
A5A0
2600
2420
2420
23E0
ENDCHAR
STARTCHAR 4F58
ENCODING 20312
SWIDTH 1000 0
DWIDTH 12 0
BBX 10 11 1 -1
BITMAP
0C00
0C00
1200
2100
5E80
80C0
FFC0
4C00
6B00
88C0
1800
ENDCHAR
STARTCHAR 4F59
ENCODING 20313
SWIDTH 1000 0
DWIDTH 12 0
BBX 10 11 1 -1
BITMAP
0C00
0C00
1200
2100
7E80
8840
FFC0
4A00
6980
8840
1800
ENDCHAR
STARTCHAR 4F5A
ENCODING 20314
SWIDTH 1000 0
DWIDTH 12 0
BBX 12 11 0 -1
BITMAP
1100
1500
2940
27E0
2900
7120
AFE0
A300
2280
2440
2830
ENDCHAR
STARTCHAR 4F5B
ENCODING 20315
SWIDTH 1000 0
DWIDTH 12 0
BBX 11 11 0 -1
BITMAP
1280
2340
2FE0
2340
2FC0
6B00
AFE0
3520
2520
2560
2900
ENDCHAR
STARTCHAR 4F5C
ENCODING 20316
SWIDTH 1000 0
DWIDTH 12 0
BBX 10 11 1 -1
BITMAP
3C00
2840
4FC0
4C00
7480
D3C0
C400
43C0
4400
4400
4400
ENDCHAR
STARTCHAR 4F5D
ENCODING 20317
SWIDTH 1000 0
DWIDTH 12 0
BBX 10 11 1 -1
BITMAP
2C00
2840
4FC0
5040
5F40
E940
C940
4F40
4040
4040
4380
ENDCHAR
STARTCHAR 4F5E
ENCODING 20318
SWIDTH 1000 0
DWIDTH 12 0
BBX 11 11 0 -1
BITMAP
1040
27C0
2000
2FE0
2200
7FE0
A480
2480
2B80
21C0
3E20
ENDCHAR
STARTCHAR 4F5F
ENCODING 20319
SWIDTH 1000 0
DWIDTH 12 0
BBX 12 11 0 -1
BITMAP
1200
1380
23C0
2440
2A80
7100
A2C0
2D30
3140
2180
2600
ENDCHAR
STARTCHAR 4F60
ENCODING 20320
SWIDTH 1000 0
DWIDTH 12 0
BBX 11 11 0 -1
BITMAP
1600
2420
27E0
2920
2940
6740
A520
2920
2920
2100
2700
ENDCHAR
STARTCHAR 4F64
ENCODING 20324
SWIDTH 1000 0
DWIDTH 12 0
BBX 11 11 0 -1
BITMAP
1020
1FE0
2400
23C0
2480
6680
A580
2560
2460
27E0
2820
ENDCHAR
STARTCHAR 4F69
ENCODING 20329
SWIDTH 1000 0
DWIDTH 12 0
BBX 12 11 0 -1
BITMAP
3040
2FC0
2960
4FC0
6FC0
4EC0
CEC0
56F0
57A0
5220
6220
ENDCHAR
STARTCHAR 4F6A
ENCODING 20330
SWIDTH 1000 0
DWIDTH 12 0
BBX 11 11 0 -1
BITMAP
1040
2FE0
2820
2BA0
2AA0
6AA0
AAA0
2BA0
2820
2FE0
2820
ENDCHAR
STARTCHAR 4F6C
ENCODING 20332
SWIDTH 1000 0
DWIDTH 12 0
BBX 11 11 0 -1
BITMAP
1300
12E0
2FC0
2280
3FE0
6100
A240
2F80
3220
2220
23E0
ENDCHAR
STARTCHAR 4F6F
ENCODING 20335
SWIDTH 1000 0
DWIDTH 12 0
BBX 11 11 0 -1
BITMAP
2880
14C0
12A0
2FE0
2100
6FE0
A100
2FE0
2100
2100
2100
ENDCHAR
STARTCHAR 4F70
ENCODING 20336
SWIDTH 1000 0
DWIDTH 12 0
BBX 11 11 0 -1
BITMAP
1020
1FE0
2100
2200
27E0
6440
A7C0
2440
2440
27C0
2440
ENDCHAR
STARTCHAR 4F73
ENCODING 20339
SWIDTH 1000 0
DWIDTH 12 0
BBX 11 11 0 -1
BITMAP
1100
1140
2FE0
2100
6120
6FE0
AFE0
2100
2120
3FE0
2000
ENDCHAR
STARTCHAR 4F75
ENCODING 20341
SWIDTH 1000 0
DWIDTH 12 0
BBX 11 11 0 -1
BITMAP
1840
2480
22A0
2FE0
2480
64A0
BFE0
A480
2480
2480
2880
ENDCHAR
STARTCHAR 4F76
ENCODING 20342
SWIDTH 1000 0
DWIDTH 12 0
BBX 11 11 0 -1
BITMAP
1100
1120
2FE0
2100
2140
6FE0
A000
27E0
2440
27C0
2440
ENDCHAR
STARTCHAR 4F77
ENCODING 20343
SWIDTH 1000 0
DWIDTH 12 0
BBX 10 11 1 -1
BITMAP
2080
3F80
2880
4F80
6880
CF80
CA40
4A80
4900
4E80
5040
ENDCHAR
STARTCHAR 4F78
ENCODING 20344
SWIDTH 1000 0
DWIDTH 12 0
BBX 11 11 0 -1
BITMAP
1040
1380
2D00
2120
2FE0
2100
6100
A7E0
2840
27C0
2840
ENDCHAR
STARTCHAR 4F7A
ENCODING 20346
SWIDTH 1000 0
DWIDTH 12 0
BBX 12 11 0 -1
BITMAP
2200
1700
2300
24C0
6FF0
B100
27C0
2100
2140
2FE0
2000
ENDCHAR
STARTCHAR 4F7B
ENCODING 20347
SWIDTH 1000 0
DWIDTH 12 0
BBX 11 11 0 -1
BITMAP
1380
2500
2520
3D40
2D80
6580
AD60
3520
2520
2920
30E0
ENDCHAR
STARTCHAR 4F7C
ENCODING 20348
SWIDTH 1000 0
DWIDTH 12 0
BBX 12 11 0 -1
BITMAP
1100
1120
2FE0
2500
26C0
68A0
B4C0
2300
2100
22C0
3C30
ENDCHAR
STARTCHAR 4F7D
ENCODING 20349
SWIDTH 1000 0
DWIDTH 12 0
BBX 12 11 0 -1
BITMAP
1180
2120
25E0
2EB0
22C0
62C0
A280
2D40
3140
2220
2430
ENDCHAR
STARTCHAR 4F7E
ENCODING 20350
SWIDTH 1000 0
DWIDTH 12 0
BBX 12 11 0 -1
BITMAP
1080
1BC0
1280
2460
3FD0
6460
A7C0
27C0
2440
2440
28C0
ENDCHAR
STARTCHAR 4F7F
ENCODING 20351
SWIDTH 1000 0
DWIDTH 12 0
BBX 12 11 0 -1
BITMAP
1100
2120
3FE0
2100
2FE0
6940
AFC0
2500
2300
22C0
3C30
ENDCHAR
STARTCHAR 4F82
ENCODING 20354
SWIDTH 1000 0
DWIDTH 12 0
BBX 11 11 0 -1
BITMAP
2100
3120
2FE0
4800
69C0
4F00
C920
57C0
5120
5120
51E0
ENDCHAR
STARTCHAR 4F83
ENCODING 20355
SWIDTH 1000 0
DWIDTH 12 0
BBX 12 11 0 -1
BITMAP
1040
27C0
2840
2840
27C0
6000
AF40
2A40
2A60
2A60
3070
ENDCHAR
STARTCHAR 4F85
ENCODING 20357
SWIDTH 1000 0
DWIDTH 12 0
BBX 11 11 0 -1
BITMAP
1100
1120
2FE0
2100
3240
6C80
A340
2260
2C80
2340
2C20
ENDCHAR
STARTCHAR 4F86
ENCODING 20358
SWIDTH 1000 0
DWIDTH 12 0
BBX 11 11 1 -1
BITMAP
0C00
0840
FFC0
0800
6900
6B00
9E80
9A00
2980
4860
8800
ENDCHAR
STARTCHAR 4F88
ENCODING 20360
SWIDTH 1000 0
DWIDTH 12 0
BBX 11 11 0 -1
BITMAP
1380
23C0
2440
2A80
2100
6380
ADE0
B220
2D40
2180
2E00
ENDCHAR
STARTCHAR 4F8A
ENCODING 20362
SWIDTH 1000 0
DWIDTH 12 0
BBX 11 11 0 -1
BITMAP
1100
1920
2540
2580
2120
6FE0
A280
2280
24A0
24A0
38E0
ENDCHAR
STARTCHAR 4F8B
ENCODING 20363
SWIDTH 1000 0
DWIDTH 12 0
BBX 11 11 0 -1
BITMAP
3120
3F20
24A0
2AA0
6FA0
4AA0
D6A0
62A0
4420
4820
50E0
ENDCHAR
STARTCHAR 4F8D
ENCODING 20365
SWIDTH 1000 0
DWIDTH 12 0
BBX 12 11 0 -1
BITMAP
1100
1940
2FE0
2100
2FF0
6080
AFE0
2480
2280
2080
2380
ENDCHAR
STARTCHAR 4F8F
ENCODING 20367
SWIDTH 1000 0
DWIDTH 12 0
BBX 12 11 0 -1
BITMAP
1100
1700
2540
27E0
2900
6FE0
A100
2380
2540
2930
3100
ENDCHAR
STARTCHAR 4F91
ENCODING 20369
SWIDTH 1000 0
DWIDTH 12 0
BBX 11 11 0 -1
BITMAP
1100
2220
2FE0
2400
27E0
6C40
B3C0
23C0
2440
2440
24C0
ENDCHAR
STARTCHAR 4F92
ENCODING 20370
SWIDTH 1000 0
DWIDTH 12 0
BBX 11 11 0 -1
BITMAP
1100
1120
27E0
2A20
2B20
6FE0
A240
A480
2680
21C0
2E20
ENDCHAR
STARTCHAR 4F94
ENCODING 20372
SWIDTH 1000 0
DWIDTH 12 0
BBX 11 11 0 -1
BITMAP
1200
1B00
2240
2FA0
3900
6540
A7E0
2FE0
2100
2100
2100
ENDCHAR
STARTCHAR 4F96
ENCODING 20374
SWIDTH 1000 0
DWIDTH 12 0
BBX 10 11 1 -1
BITMAP
0800
0C00
1200
2500
5E80
FFC0
5480
7F80
5480
5480
5580
ENDCHAR
STARTCHAR 4F97
ENCODING 20375
SWIDTH 1000 0
DWIDTH 12 0
BBX 11 11 0 -1
BITMAP
1040
2FE0
2820
2BE0
2820
6BA0
AAA0
2BA0
2A20
2820
28E0
ENDCHAR
STARTCHAR 4F98
ENCODING 20376
SWIDTH 1000 0
DWIDTH 12 0
BBX 11 11 0 -1
BITMAP
1100
2120
2FE0
2820
2980
6E40
A220
2FC0
2220
2220
21E0
ENDCHAR
STARTCHAR 4F9A
ENCODING 20378
SWIDTH 1000 0
DWIDTH 12 0
BBX 11 11 0 -1
BITMAP
1A00
1420
27E0
2420
2FA0
74A0
A7A0
27A0
2420
2020
21C0
ENDCHAR
STARTCHAR 4F9B
ENCODING 20379
SWIDTH 1000 0
DWIDTH 12 0
BBX 11 11 0 -1
BITMAP
1480
2680
24A0
3FE0
2480
6480
A4A0
BFE0
2500
26C0
3820
ENDCHAR
STARTCHAR 4F9D
ENCODING 20381
SWIDTH 1000 0
DWIDTH 12 0
BBX 11 10 0 -1
BITMAP
3100
2120
3FE0
2300
6520
AD40
B480
2440
25E0
2A20
ENDCHAR
STARTCHAR 4FA0
ENCODING 20384
SWIDTH 1000 0
DWIDTH 12 0
BBX 12 11 0 -1
BITMAP
1100
2220
2FE0
3240
2A80
66A0
BFE0
A100
2280
2440
3830
ENDCHAR
STARTCHAR 4FA1
ENCODING 20385
SWIDTH 1000 0
DWIDTH 12 0
BBX 12 11 0 -1
BITMAP
1020
2FF0
2280
2280
2FE0
6AA0
AAA0
2AA0
2AA0
2FE0
2820
ENDCHAR
STARTCHAR 4FAB
ENCODING 20395
SWIDTH 1000 0
DWIDTH 12 0
BBX 11 11 0 -1
BITMAP
1100
2140
2FE0
2800
2FE0
6220
BFE0
2480
2480
2B80
3E60
ENDCHAR
STARTCHAR 4FAD
ENCODING 20397
SWIDTH 1000 0
DWIDTH 12 0
BBX 12 11 0 -1
BITMAP
1040
27E0
2840
2840
27C0
6880
AA80
2940
2C40
3330
2080
ENDCHAR
STARTCHAR 4FAE
ENCODING 20398
SWIDTH 1000 0
DWIDTH 12 0
BBX 12 11 0 -1
BITMAP
1400
2420
27E0
2FC0
3540
6560
BFF0
2A40
27E0
2840
2180
ENDCHAR
STARTCHAR 4FAF
ENCODING 20399
SWIDTH 1000 0
DWIDTH 12 0
BBX 12 11 0 -1
BITMAP
1080
17C0
2080
2FE0
2400
67E0
A900
3FE0
2300
2280
3C70
ENDCHAR
STARTCHAR 4FB2
ENCODING 20402
SWIDTH 1000 0
DWIDTH 12 0
BBX 11 11 0 -1
BITMAP
1040
2FE0
2800
2BC0
2800
6FE0
AAA0
AAC0
2A80
33C0
3420
ENDCHAR
STARTCHAR 4FB5
ENCODING 20405
SWIDTH 1000 0
DWIDTH 12 0
BBX 11 11 0 -1
BITMAP
2040
17C0
27C0
2040
37A0
6FE0
BFC0
2480
2300
2280
3C60
ENDCHAR
STARTCHAR 4FB6
ENCODING 20406
SWIDTH 1000 0
DWIDTH 12 0
BBX 11 11 0 -1
BITMAP
1040
17E0
2440
2440
27C0
6100
A7E0
2820
2820
27E0
2820
ENDCHAR
STARTCHAR 4FBE
ENCODING 20414
SWIDTH 1000 0
DWIDTH 12 0
BBX 11 11 0 -1
BITMAP
1200
1360
2F80
2280
2FE0
63C0
AD00
3FE0
2100
2100
2700
ENDCHAR
STARTCHAR 4FBF
ENCODING 20415
SWIDTH 1000 0
DWIDTH 12 0
BBX 11 11 0 -1
BITMAP
1020
2FE0
2100
2FE0
2FE0
6920
AFE0
2500
2200
2380
3C60
ENDCHAR
STARTCHAR 4FC2
ENCODING 20418
SWIDTH 1000 0
DWIDTH 12 0
BBX 11 11 0 -1
BITMAP
1040
27A0
2A80
2CC0
2380
6260
BDE0
2580
2940
2920
3100
ENDCHAR
STARTCHAR 4FC3
ENCODING 20419
SWIDTH 1000 0
DWIDTH 12 0
BBX 12 11 0 -1
BITMAP
1040
17E0
2440
2440
27C0
6100
A540
A5E0
2D00
2B00
31F0
ENDCHAR
STARTCHAR 4FC4
ENCODING 20420
SWIDTH 1000 0
DWIDTH 12 0
BBX 11 11 0 -1
BITMAP
2100
37C0
3D20
4520
7FE0
4540
C5E0
5EC0
44A0
4560
5E20
ENDCHAR
STARTCHAR 4FC5
ENCODING 20421
SWIDTH 1000 0
DWIDTH 12 0
BBX 12 11 0 -1
BITMAP
0200
11C0
1160
2FE0
2100
2D20
65C0
A340
2D20
2130
2700
ENDCHAR
STARTCHAR 4FC9
ENCODING 20425
SWIDTH 1000 0
DWIDTH 12 0
BBX 11 11 0 -1
BITMAP
1040
2FE0
2200
2FC0
2280
62A0
BFE0
27C0
2840
27C0
2840
ENDCHAR
STARTCHAR 4FCA
ENCODING 20426
SWIDTH 1000 0
DWIDTH 12 0
BBX 12 11 0 -1
BITMAP
1300
2240
2FA0
2520
24E0
6A00
A3C0
2480
2A80
3380
3C70
ENDCHAR
STARTCHAR 4FCB
ENCODING 20427
SWIDTH 1000 0
DWIDTH 12 0
BBX 12 11 0 -1
BITMAP
1080
17C0
2440
27C0
2FE0
6940
A940
2FC0
2820
2820
27F0
ENDCHAR
STARTCHAR 4FCD
ENCODING 20429
SWIDTH 1000 0
DWIDTH 12 0
BBX 12 11 0 -1
BITMAP
1100
1140
27E0
2440
27C0
6440
A7A0
2540
2480
2740
2830
ENDCHAR
STARTCHAR 4FCE
ENCODING 20430
SWIDTH 1000 0
DWIDTH 12 0
BBX 11 10 1 0
BITMAP
2080
4780
44C0
6480
9780
D480
6480
4780
7480
9FE0
ENDCHAR
STARTCHAR 4FCF
ENCODING 20431
SWIDTH 1000 0
DWIDTH 12 0
BBX 11 11 0 -1
BITMAP
2100
1D80
1560
2960
37C0
67C0
A440
27C0
2440
2440
25C0
ENDCHAR
STARTCHAR 4FD0
ENCODING 20432
SWIDTH 1000 0
DWIDTH 12 0
BBX 11 11 0 -1
BITMAP
3620
3DA0
26A0
5FA0
64A0
A6A0
ADA0
34A0
2420
2420
24E0
ENDCHAR
STARTCHAR 4FD1
ENCODING 20433
SWIDTH 1000 0
DWIDTH 12 0
BBX 11 11 0 -1
BITMAP
1040
2FC0
2300
2FE0
2920
6FE0
A920
2FE0
2920
2920
29E0
ENDCHAR
STARTCHAR 4FD2
ENCODING 20434
SWIDTH 1000 0
DWIDTH 12 0
BBX 11 11 0 -1
BITMAP
1100
1120
27E0
2840
2FC0
6000
AFE0
A280
22A0
24A0
38E0
ENDCHAR
STARTCHAR 4FD4
ENCODING 20436
SWIDTH 1000 0
DWIDTH 12 0
BBX 11 11 0 -1
BITMAP
1040
17E0
2440
27C0
27C0
6440
A7C0
2280
22A0
24A0
38E0
ENDCHAR
STARTCHAR 4FD7
ENCODING 20439
SWIDTH 1000 0
DWIDTH 12 0
BBX 12 11 0 -1
BITMAP
2000
1680
2440
2920
3300
64C0
A860
B7F0
2440
27C0
2440
ENDCHAR
STARTCHAR 4FD8
ENCODING 20440
SWIDTH 1000 0
DWIDTH 12 0
BBX 11 11 0 -1
BITMAP
19C0
2640
2920
2940
37C0
6080
A120
3FE0
2100
2100
2700
ENDCHAR
STARTCHAR 4FDA
ENCODING 20442
SWIDTH 1000 0
DWIDTH 12 0
BBX 11 11 0 -1
BITMAP
1040
27E0
2940
27C0
2940
67C0
A900
2FE0
2100
3FE0
2000
ENDCHAR
STARTCHAR 4FDB
ENCODING 20443
SWIDTH 1000 0
DWIDTH 12 0
BBX 11 11 0 -1
BITMAP
1280
1780
2500
2FE0
3920
6920
AFE0
2300
2320
2520
38E0
ENDCHAR
STARTCHAR 4FDD
ENCODING 20445
SWIDTH 1000 0
DWIDTH 12 0
BBX 12 11 0 -1
BITMAP
1040
27C0
2840
2840
27C0
6120
BFE0
A300
25C0
2930
3100
ENDCHAR
STARTCHAR 4FDF
ENCODING 20447
SWIDTH 1000 0
DWIDTH 12 0
BBX 12 11 0 -1
BITMAP
1200
1380
2440
2FA0
2440
67E0
A900
3FF0
2300
2280
3C60
ENDCHAR
STARTCHAR 4FE0
ENCODING 20448
SWIDTH 1000 0
DWIDTH 12 0
BBX 12 11 0 -1
BITMAP
1100
2120
3FE0
2100
2D40
6540
ADA0
3300
2280
2440
3830
ENDCHAR
STARTCHAR 4FE1
ENCODING 20449
SWIDTH 1000 0
DWIDTH 12 0
BBX 12 11 0 -1
BITMAP
1040
27C0
2020
2FF0
27C0
6040
A7C0
27C0
2860
27C0
2840
ENDCHAR
STARTCHAR 4FE3
ENCODING 20451
SWIDTH 1000 0
DWIDTH 12 0
BBX 12 11 0 -1
BITMAP
1080
27C0
2840
27C0
6040
AFE0
3FE0
2100
2280
2440
3830
ENDCHAR
STARTCHAR 4FE4
ENCODING 20452
SWIDTH 1000 0
DWIDTH 12 0
BBX 11 11 0 -1
BITMAP
1440
22C0
2FE0
2120
2FE0
6900
AFE0
3320
2520
29E0
3100
ENDCHAR
STARTCHAR 4FE5
ENCODING 20453
SWIDTH 1000 0
DWIDTH 12 0
BBX 11 11 0 -1
BITMAP
2100
3120
2FE0
2FC0
2960
6FC0
AFC0
2120
3FE0
2100
2100
ENDCHAR
STARTCHAR 4FE6
ENCODING 20454
SWIDTH 1000 0
DWIDTH 12 0
BBX 11 11 0 -1
BITMAP
0100
1120
2FE0
2FC0
2220
2FE0
6240
AFE0
2640
2940
3180
ENDCHAR
STARTCHAR 4FEE
ENCODING 20462
SWIDTH 1000 0
DWIDTH 12 0
BBX 12 11 0 -1
BITMAP
0400
3220
23E0
2E40
7980
5270
DD80
5EC0
5760
4080
4700
ENDCHAR
STARTCHAR 4FEF
ENCODING 20463
SWIDTH 1000 0
DWIDTH 12 0
BBX 11 11 0 -1
BITMAP
2100
3120
2FE0
5240
7460
55E0
D640
5D40
54C0
5440
64C0
ENDCHAR
STARTCHAR 4FF1
ENCODING 20465
SWIDTH 1000 0
DWIDTH 12 0
BBX 12 11 0 -1
BITMAP
1040
27C0
2840
27C0
27C0
6840
A7C0
3FF0
2400
26C0
3820
ENDCHAR
STARTCHAR 4FF2
ENCODING 20466
SWIDTH 1000 0
DWIDTH 12 0
BBX 11 11 0 -1
BITMAP
34C0
2680
3F80
4BE0
6AA0
54A0
EEA0
44A0
4B20
4920
52C0
ENDCHAR
STARTCHAR 4FF3
ENCODING 20467
SWIDTH 1000 0
DWIDTH 12 0
BBX 11 11 0 -1
BITMAP
2000
1280
22A0
2EE0
6280
AEE0
2AE0
3480
2480
2480
2880
ENDCHAR
STARTCHAR 4FF5
ENCODING 20469
SWIDTH 1000 0
DWIDTH 12 0
BBX 12 11 0 -1
BITMAP
2100
3240
2FE0
2FC0
4220
5FE0
C340
4560
5C80
4540
4A30
ENDCHAR
STARTCHAR 4FF6
ENCODING 20470
SWIDTH 1000 0
DWIDTH 12 0
BBX 12 11 0 -1
BITMAP
3420
25E0
2720
2520
26A0
7FC0
A4C0
BE40
3540
25A0
2E30
ENDCHAR
STARTCHAR 4FF8
ENCODING 20472
SWIDTH 1000 0
DWIDTH 12 0
BBX 12 11 0 -1
BITMAP
2100
3140
2FE0
2FE0
2320
7FE0
A560
3FF0
2FE0
2100
2100
ENDCHAR
STARTCHAR 4FFA
ENCODING 20474
SWIDTH 1000 0
DWIDTH 12 0
BBX 12 11 0 -1
BITMAP
1300
2220
3FE0
2500
2A80
6FE0
BFD0
2FC0
2A60
2220
21E0
ENDCHAR
STARTCHAR 4FFE
ENCODING 20478
SWIDTH 1000 0
DWIDTH 12 0
BBX 11 11 0 -1
BITMAP
1100
2240
2FE0
2FC0
6940
AFC0
2520
3FE0
2100
2100
2100
ENDCHAR
STARTCHAR 4FFF
ENCODING 20479
SWIDTH 1000 0
DWIDTH 12 0
BBX 11 11 0 -1
BITMAP
1140
11E0
2100
2FE0
29A0
6F60
A9E0
AB80
2A80
2AA0
3CE0
ENDCHAR
STARTCHAR 5000
ENCODING 20480
SWIDTH 1000 0
DWIDTH 12 0
BBX 11 11 0 -1
BITMAP
1040
17E0
27C0
2480
27C0
7FE0
A540
2560
2480
2740
2820
ENDCHAR
STARTCHAR 5001
ENCODING 20481
SWIDTH 1000 0
DWIDTH 12 0
BBX 11 11 0 -1
BITMAP
1800
2C20
2FE0
2CA0
36A0
7FA0
A4A0
26A0
2AE0
29A0
3000
ENDCHAR
STARTCHAR 5002
ENCODING 20482
SWIDTH 1000 0
DWIDTH 12 0
BBX 11 11 0 -1
BITMAP
2480
3640
26A0
3FE0
2480
6580
AFE0
3480
2880
2880
3080
ENDCHAR
STARTCHAR 5005
ENCODING 20485
SWIDTH 1000 0
DWIDTH 12 0
BBX 11 11 0 -1
BITMAP
1100
1240
2FE0
2440
6880
6F60
B120
3FE0
2200
2200
2200
ENDCHAR
STARTCHAR 5006
ENCODING 20486
SWIDTH 1000 0
DWIDTH 12 0
BBX 11 11 0 -1
BITMAP
2020
3FE0
2100
4FE0
75A0
D5E0
D5A0
5DE0
5F60
5120
51E0
ENDCHAR
STARTCHAR 5009
ENCODING 20489
SWIDTH 1000 0
DWIDTH 12 0
BBX 10 11 1 -1
BITMAP
0400
0C00
1200
3F80
FFC0
3F00
2100
3F80
6080
5F80
A080
ENDCHAR
STARTCHAR 500B
ENCODING 20491
SWIDTH 1000 0
DWIDTH 12 0
BBX 11 11 0 -1
BITMAP
3040
2FE0
2920
49A0
6FE0
6920
ABA0
2BA0
2CA0
2FE0
2820
ENDCHAR
STARTCHAR 500D
ENCODING 20493
SWIDTH 1000 0
DWIDTH 12 0
BBX 12 11 0 -1
BITMAP
1100
2140
2FE0
2440
22A0
6FF0
A000
27C0
2440
27C0
2440
ENDCHAR
STARTCHAR 500E
ENCODING 20494
SWIDTH 1000 0
DWIDTH 12 0
BBX 12 11 0 -1
BITMAP
1280
12C0
2FE0
2AC0
2AC0
6FC0
AAC0
3FF0
2500
26C0
3820
ENDCHAR
STARTCHAR 500F
ENCODING 20495
SWIDTH 1000 0
DWIDTH 12 0
BBX 12 11 0 -1
BITMAP
3340
23C0
3240
5D80
79C0
57B0
D960
5FE0
5180
4240
4C30
ENDCHAR
STARTCHAR 5010
ENCODING 20496
SWIDTH 1000 0
DWIDTH 12 0
BBX 12 11 0 -1
BITMAP
3340
23C0
3240
5D80
7140
D7B0
DD40
5580
5180
4260
4C30
ENDCHAR
STARTCHAR 5011
ENCODING 20497
SWIDTH 1000 0
DWIDTH 12 0
BBX 11 11 0 -1
BITMAP
3240
2EE0
2B20
4EE0
6EE0
4820
C820
4820
4820
4820
48E0
ENDCHAR
STARTCHAR 5012
ENCODING 20498
SWIDTH 1000 0
DWIDTH 12 0
BBX 11 11 0 -1
BITMAP
1220
3F20
24A0
2AA0
7FA0
64A0
A6A0
BFA0
2620
3820
20E0
ENDCHAR
STARTCHAR 5013
ENCODING 20499
SWIDTH 1000 0
DWIDTH 12 0
BBX 11 11 0 -1
BITMAP
1100
1520
2540
2980
22C0
6520
AD20
2940
2A80
2440
3820
ENDCHAR
STARTCHAR 5014
ENCODING 20500
SWIDTH 1000 0
DWIDTH 12 0
BBX 11 11 0 -1
BITMAP
1040
27E0
2820
27E0
2880
6AE0
AAC0
ABE0
2CA0
33E0
3420
ENDCHAR
STARTCHAR 5016
ENCODING 20502
SWIDTH 1000 0
DWIDTH 12 0
BBX 11 11 0 -1
BITMAP
1100
2140
2FE0
2100
3FE0
6480
BFE0
2FE0
2100
2100
2100
ENDCHAR
STARTCHAR 5018
ENCODING 20504
SWIDTH 1000 0
DWIDTH 12 0
BBX 11 11 0 -1
BITMAP
1100
1540
2720
2920
2FE0
7BA0
AAA0
2BA0
2AA0
2820
28C0
ENDCHAR
STARTCHAR 5019
ENCODING 20505
SWIDTH 1000 0
DWIDTH 12 0
BBX 11 11 0 -1
BITMAP
2080
37C0
2080
3FE0
7200
57E0
DFE0
5100
5180
4260
4C20
ENDCHAR
STARTCHAR 501A
ENCODING 20506
SWIDTH 1000 0
DWIDTH 12 0
BBX 12 11 0 -1
BITMAP
1340
1FE0
2200
2380
2C60
7FF0
A740
2740
2940
2040
21C0
ENDCHAR
STARTCHAR 501C
ENCODING 20508
SWIDTH 1000 0
DWIDTH 12 0
BBX 11 11 0 -1
BITMAP
1040
2FE0
2920
2BE0
2FE0
6920
ABA0
2BA0
2AA0
2820
30C0
ENDCHAR
STARTCHAR 501E
ENCODING 20510
SWIDTH 1000 0
DWIDTH 12 0
BBX 11 11 0 -1
BITMAP
1100
2120
2FE0
27C0
2460
6440
A7C0
2580
2960
3120
2700
ENDCHAR
STARTCHAR 501F
ENCODING 20511
SWIDTH 1000 0
DWIDTH 12 0
BBX 12 11 0 -1
BITMAP
1280
24A0
2FE0
2480
24A0
7FF0
A7C0
27C0
2440
27C0
2440
ENDCHAR
STARTCHAR 5021
ENCODING 20513
SWIDTH 1000 0
DWIDTH 12 0
BBX 11 11 0 -1
BITMAP
1040
27C0
27C0
2440
27C0
6040
AFE0
2FE0
2820
2FE0
2820
ENDCHAR
STARTCHAR 5022
ENCODING 20514
SWIDTH 1000 0
DWIDTH 12 0
BBX 12 11 0 -1
BITMAP
2000
1120
2FE0
2FC0
3FF0
6140
AFC0
29E0
2D00
2B00
31F0
ENDCHAR
STARTCHAR 5023
ENCODING 20515
SWIDTH 1000 0
DWIDTH 12 0
BBX 12 11 0 -1
BITMAP
3C80
2B00
3F20
48F0
6940
4F40
CEC0
CC40
5440
54A0
6F30
ENDCHAR
STARTCHAR 5024
ENCODING 20516
SWIDTH 1000 0
DWIDTH 12 0
BBX 11 11 0 -1
BITMAP
2100
31A0
2FE0
23C0
2A40
6BC0
ABC0
2BC0
2A40
2FE0
2800
ENDCHAR
STARTCHAR 5025
ENCODING 20517
SWIDTH 1000 0
DWIDTH 12 0
BBX 11 11 0 -1
BITMAP
1100
2120
2FE0
2B20
2D20
64E0
B840
2FE0
2100
2FE0
2000
ENDCHAR
STARTCHAR 5026
ENCODING 20518
SWIDTH 1000 0
DWIDTH 12 0
BBX 12 11 0 -1
BITMAP
2100
3680
2AE0
2FE0
3FE0
6440
A7A0
3CF0
2480
2540
27E0
ENDCHAR
STARTCHAR 5027
ENCODING 20519
SWIDTH 1000 0
DWIDTH 12 0
BBX 11 11 0 -1
BITMAP
1100
1120
27E0
2840
27C0
6040
AFE0
A100
2540
2920
3700
ENDCHAR
STARTCHAR 5028
ENCODING 20520
SWIDTH 1000 0
DWIDTH 12 0
BBX 11 11 0 -1
BITMAP
1040
2FE0
2820
2FE0
2900
6FE0
A900
2FE0
2C20
37E0
3420
ENDCHAR
STARTCHAR 5029
ENCODING 20521
SWIDTH 1000 0
DWIDTH 12 0
BBX 11 11 0 -1
BITMAP
1140
2FE0
2140
2FC0
6FE0
67C0
A940
27C0
2840
2840
29C0
ENDCHAR
STARTCHAR 502A
ENCODING 20522
SWIDTH 1000 0
DWIDTH 12 0
BBX 11 11 0 -1
BITMAP
3240
2CE0
2840
2EC0
2840
6840
AFC0
2300
2520
2520
38E0
ENDCHAR
STARTCHAR 502B
ENCODING 20523
SWIDTH 1000 0
DWIDTH 12 0
BBX 12 11 0 -1
BITMAP
2200
3300
2480
2940
37B0
6FE0
AD40
2FC0
2D40
2D40
2D40
ENDCHAR
STARTCHAR 502C
ENCODING 20524
SWIDTH 1000 0
DWIDTH 12 0
BBX 11 11 0 -1
BITMAP
2200
3320
21E0
2FC0
2860
6FC0
AFC0
3FE0
2100
2100
2100
ENDCHAR
STARTCHAR 502D
ENCODING 20525
SWIDTH 1000 0
DWIDTH 12 0
BBX 11 11 0 -1
BITMAP
33C0
2D20
2FE0
2380
6560
BA00
A320
3FE0
2480
2B00
3EE0
ENDCHAR
STARTCHAR 502E
ENCODING 20526
SWIDTH 1000 0
DWIDTH 12 0
BBX 12 11 0 -1
BITMAP
1040
17C0
2960
27C0
2940
67A0
AFE0
2300
25C0
2930
3100
ENDCHAR
STARTCHAR 5036
ENCODING 20534
SWIDTH 1000 0
DWIDTH 12 0
BBX 12 11 0 -1
BITMAP
1040
27C0
2840
27C0
27C0
6840
A7C0
3FF0
2400
26C0
3820
ENDCHAR
STARTCHAR 5039
ENCODING 20537
SWIDTH 1000 0
DWIDTH 12 0
BBX 12 11 0 -1
BITMAP
1300
1300
2580
2BE0
3130
6FC0
A940
2FC0
2300
22C0
3C30
ENDCHAR
STARTCHAR 503B
ENCODING 20539
SWIDTH 1000 0
DWIDTH 12 0
BBX 11 11 0 -1
BITMAP
1220
3FE0
2AA0
2EC0
2AC0
6AC0
AEA0
AAA0
2AA0
36E0
2280
ENDCHAR
ENDFONT
